SplineFontDB: 3.0
FontName: Midway-Regular
FullName: Midway
FamilyName: Midway
Weight: Book
Copyright: Copyright 2011 Canonical Ltd.\nCopyright 2015 Yuta Taniguchi\nLicensed under the Ubuntu Font Licence 1.0
Version: 0.1
ItalicAngle: 0
UnderlinePosition: -156
UnderlineWidth: 23
Ascent: 800
Descent: 200
InvalidEm: 0
sfntRevision: 0x0000199a
LayerCount: 2
Layer: 0 1 "Back" 1
Layer: 1 1 "Fore" 0
XUID: [1021 935 -1301570125 11509133]
StyleMap: 0x0000
FSType: 0
OS2Version: 3
OS2_WeightWidthSlopeOnly: 0
OS2_UseTypoMetrics: 0
CreationTime: 1304432203
ModificationTime: 1558229931
PfmFamily: 49
TTFWeight: 400
TTFWidth: 5
LineGap: 0
VLineGap: 0
Panose: 2 11 5 9 3 6 2 3 2 4
OS2TypoAscent: 993
OS2TypoAOffset: 0
OS2TypoDescent: -211
OS2TypoDOffset: 0
OS2TypoLinegap: 0
OS2WinAscent: 993
OS2WinAOffset: 0
OS2WinDescent: 211
OS2WinDOffset: 0
HheadAscent: 993
HheadAOffset: 0
HheadDescent: -211
HheadDOffset: 0
OS2SubXSize: 824
OS2SubYSize: 766
OS2SubXOff: 0
OS2SubYOff: 165
OS2SupXSize: 824
OS2SupYSize: 766
OS2SupXOff: 0
OS2SupYOff: 562
OS2StrikeYSize: 59
OS2StrikeYPos: 294
OS2CapHeight: 729
OS2XHeight: 547
OS2Vendor: 'DAMA'
OS2CodePages: 2000009f.56010000
OS2UnicodeRanges: e00002ff.5000205b.00000000.00000000
Lookup: 1 0 0 "'locl' Localized Forms in Latin lookup 0" { "'locl' Localized Forms in Latin lookup 0 subtable"  } ['locl' ('latn' <'AZE ' > ) ]
Lookup: 1 0 0 "'locl' Localized Forms in Latin lookup 1" { "'locl' Localized Forms in Latin lookup 1 subtable"  } ['locl' ('latn' <'TRK ' > ) ]
Lookup: 1 0 0 "'locl' Localized Forms in Latin lookup 2" { "'locl' Localized Forms in Latin lookup 2 subtable"  } ['locl' ('latn' <'CRT ' > ) ]
Lookup: 1 0 0 "'locl' Localized Forms in Cyrillic lookup 3" { "'locl' Localized Forms in Cyrillic lookup 3 subtable"  } ['locl' ('cyrl' <'BGR ' > ) ]
Lookup: 1 0 0 "'locl' Localized Forms in Cyrillic lookup 4" { "'locl' Localized Forms in Cyrillic lookup 4 subtable"  } ['locl' ('cyrl' <'MKD ' > ) ]

StartChar: SF030000.001
Encoding: 65536 -1 0
Width: 550
VWidth: 1177
Flags: W
LayerCount: 2
Fore
SplineSet
29 0 m 1,0,-1
 29 883 l 1,1,-1
 29 893 l 1,2,-1
 39 893 l 1,3,-1
 510 893 l 1,4,-1
 520 893 l 1,5,-1
 520 883 l 1,6,-1
 520 0 l 1,7,-1
 520 -10 l 1,8,-1
 510 -10 l 1,9,-1
 39 -10 l 1,10,-1
 29 -10 l 1,11,-1
 29 0 l 1,0,-1
441 69 m 1,12,-1
 441 814 l 1,13,-1
 108 814 l 1,14,-1
 108 69 l 1,15,-1
 441 69 l 1,12,-1
EndSplineSet
EndChar

StartChar: exclam
Encoding: 33 33 4
Width: 550
VWidth: 1177
Flags: W
LayerCount: 2
Fore
SplineSet
336 531 m 2,0,1
 336 519.969726562 336 519.969726562 335.9375 509.439453125 c 256,2,3
 335.875 498.91015625 335.875 498.91015625 335.749023438 488.875976562 c 256,4,5
 335.624023438 478.840820312 335.624023438 478.840820312 335.435546875 469.301757812 c 256,6,7
 335.247070312 459.763671875 335.247070312 459.763671875 334.99609375 450.72265625 c 0,8,9
 333.987304688 414.408203125 333.987304688 414.408203125 330.958984375 381.094726562 c 0,10,11
 327.951171875 348.012695312 327.951171875 348.012695312 324.442382812 315.4296875 c 256,12,13
 320.938476562 282.89453125 320.938476562 282.89453125 316.935546875 247.864257812 c 2,14,-1
 315.921875 239 l 1,15,-1
 307 239 l 1,16,-1
 240 239 l 1,17,-1
 231.078125 239 l 1,18,-1
 230.064453125 247.864257812 l 2,19,20
 226.053710938 282.96484375 226.053710938 282.96484375 223.041992188 315.581054688 c 256,21,22
 220.041992188 348.087890625 220.041992188 348.087890625 217.041015625 381.094726562 c 0,23,24
 216.28515625 389.411132812 216.28515625 389.411132812 215.624023438 397.9453125 c 256,25,26
 214.961914062 406.48046875 214.961914062 406.48046875 214.395507812 415.229492188 c 256,27,28
 213.829101562 423.978515625 213.829101562 423.978515625 213.357421875 432.942382812 c 256,29,30
 212.885742188 441.90625 212.885742188 441.90625 212.508789062 451.08984375 c 0,31,32
 211 487.794921875 211 487.794921875 211 531 c 2,33,-1
 211 729 l 1,34,-1
 211 739 l 1,35,-1
 221 739 l 1,36,-1
 326 739 l 1,37,-1
 336 739 l 1,38,-1
 336 729 l 1,39,-1
 336 531 l 2,0,1
273 -24 m 0,40,41
 237.115234375 -24 237.115234375 -24 210.75 0.1220703125 c 0,42,43
 184 24.595703125 184 24.595703125 184 66 c 0,44,45
 184 71.7568359375 184 71.7568359375 184.5390625 77.234375 c 256,46,47
 185.078125 82.712890625 185.078125 82.712890625 186.165039062 87.921875 c 256,48,49
 187.251953125 93.1318359375 187.251953125 93.1318359375 188.876953125 98.0224609375 c 256,50,51
 190.500976562 102.913085938 190.500976562 102.913085938 192.688476562 107.504882812 c 256,52,53
 194.875976562 112.096679688 194.875976562 112.096679688 197.59765625 116.330078125 c 256,54,55
 200.319335938 120.563476562 200.319335938 120.563476562 203.618164062 124.467773438 c 256,56,57
 206.916992188 128.372070312 206.916992188 128.372070312 210.75 131.877929688 c 0,58,59
 219.442382812 139.831054688 219.442382812 139.831054688 229.354492188 145.205078125 c 256,60,61
 239.266601562 150.580078125 239.266601562 150.580078125 250.221679688 153.290039062 c 256,62,63
 261.177734375 156 261.177734375 156 273 156 c 0,64,65
 310.012695312 156 310.012695312 156 335.912109375 131.2265625 c 256,66,67
 362 106.272460938 362 106.272460938 362 66 c 0,68,69
 362 24.6591796875 362 24.6591796875 335.829101562 0.1943359375 c 0,70,71
 309.946289062 -24 309.946289062 -24 273 -24 c 0,40,41
EndSplineSet
EndChar

StartChar: quotedbl
Encoding: 34 34 5
Width: 550
VWidth: 1177
Flags: W
LayerCount: 2
Fore
SplineSet
233 800 m 1,0,-1
 233 747 l 2,1,2
 233 694.549804688 233 694.549804688 226.959960938 627.6015625 c 256,3,4
 220.920898438 560.668945312 220.920898438 560.668945312 210.844726562 504.2421875 c 2,5,-1
 209.372070312 496 l 1,6,-1
 201 496 l 1,7,-1
 152 496 l 1,8,-1
 143.349609375 496 l 1,9,-1
 142.104492188 504.560546875 l 2,10,11
 134.064453125 559.833007812 134.064453125 559.833007812 128.040039062 627.108398438 c 256,12,13
 122 694.552734375 122 694.552734375 122 748 c 2,14,-1
 122 800 l 1,15,-1
 122 810 l 1,16,-1
 132 810 l 1,17,-1
 223 810 l 1,18,-1
 233 810 l 1,19,-1
 233 800 l 1,0,-1
427 800 m 1,20,-1
 427 747 l 2,21,22
 427 694.549804688 427 694.549804688 420.959960938 627.6015625 c 256,23,24
 414.936523438 560.842773438 414.936523438 560.842773438 406.899414062 504.5859375 c 2,25,-1
 405.672851562 496 l 1,26,-1
 397 496 l 1,27,-1
 347 496 l 1,28,-1
 338.502929688 496 l 1,29,-1
 337.130859375 504.384765625 l 2,30,31
 328.072265625 559.745117188 328.072265625 559.745117188 322.040039062 627.108398438 c 256,32,33
 316 694.552734375 316 694.552734375 316 748 c 2,34,-1
 316 800 l 1,35,-1
 316 810 l 1,36,-1
 326 810 l 1,37,-1
 417 810 l 1,38,-1
 427 810 l 1,39,-1
 427 800 l 1,20,-1
EndSplineSet
EndChar

StartChar: numbersign
Encoding: 35 35 6
Width: 550
VWidth: 1177
Flags: W
LayerCount: 2
Fore
SplineSet
358 -10 m 1,0,-1
 270 -10 l 1,1,-1
 257.951171875 -10 l 1,2,-1
 260.170898438 1.8427734375 l 1,3,-1
 293.951171875 182 l 1,4,-1
 184.256835938 182 l 1,5,-1
 148.819335938 -1.892578125 l 1,6,-1
 147.256835938 -10 l 1,7,-1
 139 -10 l 1,8,-1
 51 -10 l 1,9,-1
 38.951171875 -10 l 1,10,-1
 41.1708984375 1.8427734375 l 1,11,-1
 74.951171875 182 l 1,12,-1
 12 182 l 1,13,-1
 2 182 l 1,14,-1
 2 192 l 1,15,-1
 2 271 l 1,16,-1
 2 281 l 1,17,-1
 12 281 l 1,18,-1
 93.7412109375 281 l 1,19,-1
 125.891601562 448 l 1,20,-1
 12 448 l 1,21,-1
 2 448 l 1,22,-1
 2 458 l 1,23,-1
 2 536 l 1,24,-1
 2 546 l 1,25,-1
 12 546 l 1,26,-1
 145.735351562 546 l 1,27,-1
 181.178710938 730.8828125 l 1,28,-1
 182.735351562 739 l 1,29,-1
 191 739 l 1,30,-1
 279 739 l 1,31,-1
 291.038085938 739 l 1,32,-1
 288.830078125 727.166015625 l 1,33,-1
 255.038085938 546 l 1,34,-1
 364.692382812 546 l 1,35,-1
 399.169921875 730.833984375 l 1,36,-1
 400.692382812 739 l 1,37,-1
 409 739 l 1,38,-1
 497 739 l 1,39,-1
 508.9765625 739 l 1,40,-1
 506.83984375 727.215820312 l 1,41,-1
 473.9765625 546 l 1,42,-1
 537 546 l 1,43,-1
 547 546 l 1,44,-1
 547 536 l 1,45,-1
 547 458 l 1,46,-1
 547 448 l 1,47,-1
 537 448 l 1,48,-1
 454.258789062 448 l 1,49,-1
 422.108398438 281 l 1,50,-1
 537 281 l 1,51,-1
 547 281 l 1,52,-1
 547 271 l 1,53,-1
 547 192 l 1,54,-1
 547 182 l 1,55,-1
 537 182 l 1,56,-1
 403.256835938 182 l 1,57,-1
 367.819335938 -1.892578125 l 1,58,-1
 366.256835938 -10 l 1,59,-1
 358 -10 l 1,0,-1
344.827148438 448 m 1,60,-1
 235.258789062 448 l 1,61,-1
 203.108398438 281 l 1,62,-1
 311.78515625 281 l 1,63,-1
 344.827148438 448 l 1,60,-1
EndSplineSet
EndChar

StartChar: dollar
Encoding: 36 36 7
Width: 550
VWidth: 1177
Flags: W
LayerCount: 2
Fore
SplineSet
139.033203125 128.401367188 m 0,0,1
 183.588867188 115.182617188 183.588867188 115.182617188 253.260742188 115.182617188 c 0,2,3
 297.512695312 115.182617188 297.512695312 115.182617188 328.271484375 121.313476562 c 0,4,5
 343.224609375 124.293945312 343.224609375 124.293945312 354.642578125 128.561523438 c 128,-1,6
 366.061523438 132.830078125 366.061523438 132.830078125 373.823242188 138.149414062 c 0,7,8
 389.322265625 148.770507812 389.322265625 148.770507812 395.772460938 162.940429688 c 0,9,10
 402.529296875 177.78515625 402.529296875 177.78515625 402.529296875 195.418945312 c 0,11,12
 402.529296875 208.27734375 402.529296875 208.27734375 399.083984375 219.025390625 c 128,-1,13
 395.637695312 229.774414062 395.637695312 229.774414062 388.760742188 238.784179688 c 0,14,15
 374.299804688 257.729492188 374.299804688 257.729492188 350.149414062 271.83984375 c 0,16,17
 343.892578125 275.494140625 343.892578125 275.494140625 337.19921875 278.979492188 c 128,-1,18
 330.505859375 282.46484375 330.505859375 282.46484375 323.359375 285.787109375 c 128,-1,19
 316.213867188 289.109375 316.213867188 289.109375 308.609375 292.265625 c 128,-1,20
 301.004882812 295.421875 301.004882812 295.421875 292.965820312 298.403320312 c 0,21,22
 282.020507812 302.4609375 282.020507812 302.4609375 270.80859375 306.453125 c 128,-1,23
 259.596679688 310.446289062 259.596679688 310.446289062 248.057617188 314.393554688 c 128,-1,24
 236.51953125 318.341796875 236.51953125 318.341796875 224.635742188 322.250976562 c 128,-1,25
 212.928710938 326.22265625 212.928710938 326.22265625 201.3984375 330.393554688 c 128,-1,26
 189.869140625 334.565429688 189.869140625 334.565429688 178.483398438 338.94921875 c 128,-1,27
 167.096679688 343.333007812 167.096679688 343.333007812 155.786132812 347.953125 c 0,28,29
 122.571289062 362.204101562 122.571289062 362.204101562 97.01953125 383.125 c 0,30,31
 90.517578125 388.448242188 90.517578125 388.448242188 84.6328125 394.33984375 c 128,-1,32
 78.7470703125 400.231445312 78.7470703125 400.231445312 73.4990234375 406.66796875 c 128,-1,33
 68.2509765625 413.103515625 68.2509765625 413.103515625 63.63671875 420.083007812 c 128,-1,34
 59.0234375 427.0625 59.0234375 427.0625 55.0546875 434.569335938 c 0,35,36
 38.9375 465.060546875 38.9375 465.060546875 38.9375 508.538085938 c 0,37,38
 38.9375 519.448242188 38.9375 519.448242188 39.89453125 529.83984375 c 128,-1,39
 40.8515625 540.23046875 40.8515625 540.23046875 42.7734375 550.11328125 c 128,-1,40
 44.6953125 559.99609375 44.6953125 559.99609375 47.57421875 569.329101562 c 128,-1,41
 50.453125 578.661132812 50.453125 578.661132812 54.30859375 587.462890625 c 128,-1,42
 58.1640625 596.264648438 58.1640625 596.264648438 62.9755859375 604.485351562 c 128,-1,43
 67.7861328125 612.705078125 67.7861328125 612.705078125 73.5859375 620.372070312 c 128,-1,44
 79.384765625 628.038085938 79.384765625 628.038085938 86.1396484375 635.092773438 c 0,45,46
 130.517578125 681.444335938 130.517578125 681.444335938 218.6484375 695.90625 c 1,47,-1
 218.6484375 806 l 1,48,-1
 218.6484375 816 l 1,49,-1
 229.46484375 816 l 1,50,-1
 323.568359375 816 l 1,51,-1
 334.384765625 816 l 1,52,-1
 334.384765625 806 l 1,53,-1
 334.384765625 699.840820312 l 1,54,55
 343.703125 699.34375 343.703125 699.34375 352.620117188 698.6328125 c 128,-1,56
 361.537109375 697.921875 361.537109375 697.921875 370.146484375 696.989257812 c 128,-1,57
 378.755859375 696.056640625 378.755859375 696.056640625 387.088867188 694.89453125 c 128,-1,58
 395.420898438 693.733398438 395.420898438 693.733398438 403.509765625 692.341796875 c 0,59,60
 411.322265625 690.950195312 411.322265625 690.950195312 418.658203125 689.314453125 c 0,61,62
 458.81640625 680.361328125 458.81640625 680.361328125 483.448242188 671.323242188 c 2,63,-1
 491.75390625 668.275390625 l 1,64,-1
 489.65234375 659.842773438 l 1,65,-1
 469.65234375 579.606445312 l 1,66,-1
 467.016601562 569.03125 l 1,67,-1
 456.549804688 572.717773438 l 2,68,69
 431.950195312 581.383789062 431.950195312 581.383789062 393.79296875 591.061523438 c 0,70,71
 380.889648438 594.173828125 380.889648438 594.173828125 365.475585938 596.271484375 c 128,-1,72
 350.060546875 598.368164062 350.060546875 598.368164062 331.927734375 599.442382812 c 128,-1,73
 313.795898438 600.516601562 313.795898438 600.516601562 293.282226562 600.516601562 c 0,74,75
 279.883789062 600.516601562 279.883789062 600.516601562 267.767578125 599.615234375 c 128,-1,76
 255.650390625 598.71484375 255.650390625 598.71484375 245.107421875 596.974609375 c 128,-1,77
 234.565429688 595.233398438 234.565429688 595.233398438 225.306640625 592.651367188 c 128,-1,78
 216.049804688 590.069335938 216.049804688 590.069335938 208.28125 586.739257812 c 128,-1,79
 200.512695312 583.408203125 200.512695312 583.408203125 194.032226562 579.295898438 c 0,80,81
 183.364257812 572.526367188 183.364257812 572.526367188 176.391601562 563.950195312 c 128,-1,82
 169.418945312 555.374023438 169.418945312 555.374023438 165.91015625 544.504882812 c 128,-1,83
 162.40234375 533.634765625 162.40234375 533.634765625 162.40234375 520.279296875 c 0,84,85
 162.40234375 498.55078125 162.40234375 498.55078125 171.65234375 484.743164062 c 0,86,87
 181.203125 470.487304688 181.203125 470.487304688 199.71484375 459.469726562 c 0,88,89
 219.475585938 447.709960938 219.475585938 447.709960938 246.186523438 437.286132812 c 0,90,91
 259.840820312 431.958007812 259.840820312 431.958007812 274.915039062 426.6484375 c 128,-1,92
 289.989257812 421.338867188 289.989257812 421.338867188 306.724609375 415.966796875 c 0,93,94
 328.681640625 408.517578125 328.681640625 408.517578125 349.900390625 400.520507812 c 128,-1,95
 371.118164062 392.5234375 371.118164062 392.5234375 391.91015625 383.861328125 c 0,96,97
 432.337890625 366.188476562 432.337890625 366.188476562 461.366210938 342.349609375 c 0,98,99
 490.858398438 318.12890625 490.858398438 318.12890625 509.271484375 284.154296875 c 0,100,101
 527.9375 249.713867188 527.9375 249.713867188 527.9375 202.268554688 c 0,102,103
 527.9375 166.782226562 527.9375 166.782226562 515.696289062 136.188476562 c 128,-1,104
 503.455078125 105.59375 503.455078125 105.59375 479.192382812 80.5625 c 0,105,106
 433.086914062 32.99609375 433.086914062 32.99609375 334.384765625 19.544921875 c 1,107,-1
 334.384765625 -104 l 1,108,-1
 334.384765625 -114 l 1,109,-1
 323.568359375 -114 l 1,110,-1
 229.46484375 -114 l 1,111,-1
 218.6484375 -114 l 1,112,-1
 218.6484375 -104 l 1,113,-1
 218.6484375 15.69140625 l 1,114,115
 200.099609375 16.341796875 200.099609375 16.341796875 183.291015625 17.6337890625 c 128,-1,116
 166.482421875 18.9267578125 166.482421875 18.9267578125 151.217773438 20.884765625 c 0,117,118
 136.486328125 22.8427734375 136.486328125 22.8427734375 123.846679688 25.484375 c 128,-1,119
 111.208007812 28.1259765625 111.208007812 28.1259765625 100.025390625 31.4560546875 c 0,120,121
 76.4462890625 38.478515625 76.4462890625 38.478515625 59.0390625 45.2392578125 c 128,-1,122
 41.630859375 52.0009765625 41.630859375 52.0009765625 29.849609375 58.8125 c 2,123,-1
 23 62.7734375 l 1,124,-1
 25.404296875 70.1943359375 l 1,125,-1
 51.404296875 150.430664062 l 1,126,-1
 54.8525390625 161.0703125 l 1,127,-1
 65.181640625 156.333007812 l 2,128,129
 96.62109375 141.912109375 96.62109375 141.912109375 139.033203125 128.401367188 c 0,0,1
EndSplineSet
EndChar

StartChar: percent
Encoding: 37 37 8
Width: 550
VWidth: 1177
Flags: W
LayerCount: 2
Fore
SplineSet
88.60546875 -10 m 1,0,-1
 83 -10 l 1,1,-1
 0 -10 l 1,2,-1
 -17.8623046875 -10 l 1,3,-1
 -8.525390625 5.2275390625 l 1,4,-1
 458.474609375 734.227539062 l 1,5,-1
 461.401367188 739 l 1,6,-1
 467 739 l 1,7,-1
 549 739 l 1,8,-1
 566.840820312 739 l 1,9,-1
 557.530273438 723.78125 l 1,10,-1
 91.5302734375 -5.21875 l 1,11,-1
 88.60546875 -10 l 1,0,-1
-9.0048828125 477.044921875 m 128,-1,13
 -18 511.849609375 -18 511.849609375 -18 556.973632812 c 0,14,15
 -18 647.889648438 -18 647.889648438 18.5 695.294921875 c 0,16,17
 56 744 56 744 122.162109375 744 c 0,18,19
 144.866210938 744 144.866210938 744 164.631835938 738.338867188 c 128,-1,20
 184.395507812 732.827148438 184.395507812 732.827148438 200.953125 721.841796875 c 128,-1,21
 217.509765625 710.856445312 217.509765625 710.856445312 230.477539062 694.583984375 c 0,22,23
 249.782226562 670.357421875 249.782226562 670.357421875 259.19140625 635.936523438 c 128,-1,24
 268.602539062 601.515625 268.602539062 601.515625 268.602539062 556.899414062 c 0,25,26
 268.602539062 526.922851562 268.602539062 526.922851562 264.506835938 501.669921875 c 128,-1,27
 260.413085938 476.416015625 260.413085938 476.416015625 251.913085938 455.290039062 c 128,-1,28
 243.4140625 434.163085938 243.4140625 434.163085938 230.509765625 417.793945312 c 0,29,30
 211.060546875 393.125 211.060546875 393.125 183.681640625 380.5625 c 128,-1,31
 156.301757812 368 156.301757812 368 122.162109375 368 c 0,32,33
 88.837890625 368 88.837890625 368 62.9287109375 380.551757812 c 128,-1,34
 37.0185546875 393.102539062 37.0185546875 393.102539062 18.4384765625 417.758789062 c 128,-1,12
 -0.0087890625 442.239257812 -0.0087890625 442.239257812 -9.0048828125 477.044921875 c 128,-1,13
155.857421875 477.5546875 m 0,35,36
 169.9140625 508.276367188 169.9140625 508.276367188 169.9140625 557 c 128,-1,37
 169.9140625 605.723632812 169.9140625 605.723632812 155.857421875 636.4453125 c 0,38,39
 143.70703125 663 143.70703125 663 122.162109375 663 c 0,40,41
 111.413085938 663 111.413085938 663 102.870117188 656.780273438 c 0,42,43
 94.771484375 650.560546875 94.771484375 650.560546875 88.1494140625 636.2265625 c 0,44,45
 81.1650390625 621.109375 81.1650390625 621.109375 77.5830078125 601.270507812 c 128,-1,46
 74 581.431640625 74 581.431640625 74 557 c 0,47,48
 74 508.338867188 74 508.338867188 87.6982421875 477.665039062 c 0,49,50
 99.6064453125 451 99.6064453125 451 122.162109375 451 c 0,51,52
 132.860351562 451 132.860351562 451 141.09375 457.141601562 c 128,-1,53
 149.326171875 463.282226562 149.326171875 463.282226562 155.857421875 477.5546875 c 0,35,36
321.041015625 33.8115234375 m 0,54,55
 283.458984375 81.1796875 283.458984375 81.1796875 283.458984375 172.012695312 c 0,56,57
 283.458984375 217.12109375 283.458984375 217.12109375 292.719726562 251.76953125 c 128,-1,58
 301.981445312 286.41796875 301.981445312 286.41796875 321.009765625 310.661132812 c 0,59,60
 340.203125 335.115234375 340.203125 335.115234375 367.45703125 347.557617188 c 128,-1,61
 394.712890625 360 394.712890625 360 428.837890625 360 c 0,62,63
 495.032226562 360 495.032226562 360 532.53125 310.771484375 c 0,64,65
 551.001953125 286.522460938 551.001953125 286.522460938 560.000976562 251.833007812 c 128,-1,66
 569 217.143554688 569 217.143554688 569 172.012695312 c 0,67,68
 569 81.103515625 569 81.103515625 532.5 33.701171875 c 0,69,70
 495 -15 495 -15 428.837890625 -15 c 0,71,72
 359.76953125 -15 359.76953125 -15 321.041015625 33.8115234375 c 0,54,55
462.850585938 92.779296875 m 0,73,74
 477 123.412109375 477 123.412109375 477 172.022460938 c 128,-1,75
 477 220.659179688 477 220.659179688 462.829101562 251.790039062 c 0,76,77
 450.443359375 279 450.443359375 279 428.837890625 279 c 128,-1,78
 407.333007812 279 407.333007812 279 395.1640625 252.006835938 c 0,79,80
 381.0859375 220.78125 381.0859375 220.78125 381.0859375 172.022460938 c 128,-1,81
 381.0859375 123.2890625 381.0859375 123.2890625 395.142578125 92.560546875 c 0,82,83
 401.672851562 78.28515625 401.672851562 78.28515625 409.907226562 72.142578125 c 128,-1,84
 418.140625 66 418.140625 66 428.837890625 66 c 128,-1,85
 439.586914062 66 439.586914062 66 448.129882812 72.220703125 c 0,86,87
 456.228515625 78.4423828125 456.228515625 78.4423828125 462.850585938 92.779296875 c 0,73,74
EndSplineSet
EndChar

StartChar: ampersand
Encoding: 38 38 9
Width: 550
VWidth: 1177
Flags: W
LayerCount: 2
Fore
SplineSet
302.580078125 339.524414062 m 2,0,1
 312.662109375 327.42578125 312.662109375 327.42578125 323.018554688 315.58984375 c 256,2,3
 333.374023438 303.754882812 333.374023438 303.754882812 344.37109375 291.756835938 c 0,4,5
 352.000976562 283.434570312 352.000976562 283.434570312 360.48828125 273.750976562 c 256,6,7
 368.974609375 264.067382812 368.974609375 264.067382812 376.236328125 255.436523438 c 1,8,9
 379.424804688 268.359375 379.424804688 268.359375 382.197265625 281.077148438 c 256,10,11
 384.969726562 293.794921875 384.969726562 293.794921875 387.6796875 307.888671875 c 0,12,13
 395.060546875 346.267578125 395.060546875 346.267578125 398.020507812 392.63671875 c 2,14,-1
 398.6953125 403.208984375 l 1,15,-1
 409.2109375 401.926757812 l 1,16,-1
 491.2109375 391.926757812 l 1,17,-1
 500.952148438 390.73828125 l 1,18,-1
 499.947265625 380.975585938 l 2,19,20
 492.874023438 312.266601562 492.874023438 312.266601562 479.201171875 257.57421875 c 0,21,22
 466.405273438 206.391601562 466.405273438 206.391601562 447.487304688 164.076171875 c 1,23,24
 472.94140625 127.9140625 472.94140625 127.9140625 496.02734375 90.22265625 c 0,25,26
 520.87109375 49.662109375 520.87109375 49.662109375 541.137695312 4.0615234375 c 2,27,-1
 547.387695312 -10 l 1,28,-1
 532 -10 l 1,29,-1
 430 -10 l 1,30,-1
 423.751953125 -10 l 1,31,-1
 421.012695312 -4.3837890625 l 2,32,33
 412.70703125 12.642578125 412.70703125 12.642578125 403.2734375 29.5537109375 c 256,34,35
 393.840820312 46.4658203125 393.840820312 46.4658203125 383.913085938 62.2236328125 c 1,36,37
 347.53125 21.3056640625 347.53125 21.3056640625 304.534179688 2.349609375 c 0,38,39
 280.36328125 -8.3056640625 280.36328125 -8.3056640625 255.193359375 -13.6533203125 c 256,40,41
 230.0234375 -19 230.0234375 -19 204 -19 c 0,42,43
 157.036132812 -19 157.036132812 -19 119.71875 -3.7578125 c 0,44,45
 101.036132812 3.8740234375 101.036132812 3.8740234375 85.126953125 14.6123046875 c 256,46,47
 69.2177734375 25.3505859375 69.2177734375 25.3505859375 56.2216796875 39.1416015625 c 0,48,49
 30.4111328125 66.533203125 30.4111328125 66.533203125 16.2060546875 102.309570312 c 256,50,51
 2 138.086914062 2 138.086914062 2 178 c 0,52,53
 2 235.37890625 2 235.37890625 31.5712890625 294.00390625 c 0,54,55
 59.2265625 348.829101562 59.2265625 348.829101562 118.208007812 396.813476562 c 1,56,57
 90.3330078125 435.357421875 90.3330078125 435.357421875 72.87109375 474.418945312 c 0,58,59
 53 518.866210938 53 518.866210938 53 565 c 0,60,61
 53 613.080078125 53 613.080078125 68.8291015625 649.487304688 c 256,62,63
 84.7216796875 686.040039062 84.7216796875 686.040039062 110.904296875 709.016601562 c 0,64,65
 123.876953125 720.400390625 123.876953125 720.400390625 138.96875 729.137695312 c 256,66,67
 154.059570312 737.875 154.059570312 737.875 171.1640625 743.926757812 c 256,68,69
 188.197265625 749.954101562 188.197265625 749.954101562 205.676757812 752.977539062 c 256,70,71
 223.157226562 756 223.157226562 756 241 756 c 0,72,73
 257.267578125 756 257.267578125 756 273.17578125 753.501953125 c 256,74,75
 289.083984375 751.00390625 289.083984375 751.00390625 304.565429688 746.018554688 c 0,76,77
 320.251953125 740.966796875 320.251953125 740.966796875 334.052734375 733.1953125 c 256,78,79
 347.853515625 725.424804688 347.853515625 725.424804688 359.6328125 714.983398438 c 0,80,81
 364.336914062 710.814453125 364.336914062 710.814453125 368.702148438 706.254882812 c 256,82,83
 373.067382812 701.694335938 373.067382812 701.694335938 377.07421875 696.76953125 c 256,84,85
 381.081054688 691.844726562 381.081054688 691.844726562 384.744140625 686.54296875 c 256,86,87
 388.407226562 681.240234375 388.407226562 681.240234375 391.712890625 675.584960938 c 256,88,89
 395.018554688 669.928710938 395.018554688 669.928710938 397.975585938 663.909179688 c 0,90,91
 403 653.680664062 403 653.680664062 406.346679688 642.547851562 c 256,92,93
 409.694335938 631.415039062 409.694335938 631.415039062 411.346679688 619.546875 c 256,94,95
 413 607.677734375 413 607.677734375 413 595 c 0,96,97
 413 580.698242188 413 580.698242188 410.653320312 566.192382812 c 256,98,99
 408.306640625 551.6875 408.306640625 551.6875 403.646484375 537.084960938 c 256,100,101
 398.985351562 522.481445312 398.985351562 522.481445312 392.081054688 507.7890625 c 256,102,103
 385.176757812 493.095703125 385.176757812 493.095703125 376.008789062 478.247070312 c 0,104,105
 341.831054688 422.887695312 341.831054688 422.887695312 270.263671875 375.880859375 c 1,106,-1
 302.580078125 339.524414062 l 2,0,1
177.23046875 321.44140625 m 1,107,108
 163.39453125 307.540039062 163.39453125 307.540039062 153.234375 292.736328125 c 256,109,110
 143.073242188 277.93359375 143.073242188 277.93359375 135.661132812 260.9921875 c 0,111,112
 130.073242188 248.21875 130.073242188 248.21875 126.365234375 235.712890625 c 256,113,114
 122.65625 223.206054688 122.65625 223.206054688 120.828125 211.064453125 c 256,115,116
 119 198.923828125 119 198.923828125 119 187 c 0,117,118
 119 144.450195312 119 144.450195312 140.372070312 117.166992188 c 256,119,120
 161.6484375 90.005859375 161.6484375 90.005859375 192.624023438 83.271484375 c 0,121,122
 224.015625 76.447265625 224.015625 76.447265625 261.088867188 92.203125 c 0,123,124
 295.80078125 106.956054688 295.80078125 106.956054688 325.614257812 146.926757812 c 1,125,126
 316.001953125 159.8203125 316.001953125 159.8203125 306.703125 171.72265625 c 256,127,128
 297.403320312 183.625 297.403320312 183.625 288.063476562 194.9765625 c 256,129,130
 278.723632812 206.327148438 278.723632812 206.327148438 269.356445312 217.129882812 c 256,131,132
 259.989257812 227.931640625 259.989257812 227.931640625 250.111328125 238.760742188 c 0,133,134
 212.299804688 280.217773438 212.299804688 280.217773438 177.23046875 321.44140625 c 1,107,108
304 584 m 0,135,136
 304 621.659179688 304 621.659179688 284.170898438 640.194335938 c 0,137,138
 264.053710938 659 264.053710938 659 239 659 c 0,139,140
 225.415039062 659 225.415039062 659 212.838867188 653.750976562 c 256,141,142
 200.262695312 648.500976562 200.262695312 648.500976562 188.212890625 637.587890625 c 0,143,144
 176.765625 627.220703125 176.765625 627.220703125 170.8828125 611.016601562 c 256,145,146
 165 594.8125 165 594.8125 165 572 c 0,147,148
 165 555.80859375 165 555.80859375 167.483398438 540.791015625 c 256,149,150
 169.966796875 525.7734375 169.966796875 525.7734375 174.920898438 511.853515625 c 0,151,152
 183.926757812 486.55078125 183.926757812 486.55078125 213.306640625 448.271484375 c 1,153,154
 262.177734375 479.936523438 262.177734375 479.936523438 282.331054688 514.984375 c 0,155,156
 289.647460938 527.708984375 289.647460938 527.708984375 294.491210938 539.740234375 c 256,157,158
 299.334960938 551.771484375 299.334960938 551.771484375 301.66796875 562.752929688 c 256,159,160
 304 573.735351562 304 573.735351562 304 584 c 0,135,136
EndSplineSet
EndChar

StartChar: quotesingle
Encoding: 39 39 10
Width: 550
VWidth: 1177
Flags: W
LayerCount: 2
Fore
SplineSet
336 800 m 1,0,-1
 336 747 l 2,1,2
 336 720.776367188 336 720.776367188 334.490234375 687.052734375 c 256,3,4
 332.98046875 653.345703125 332.98046875 653.345703125 329.965820312 617.169921875 c 256,5,6
 326.958984375 581.08984375 326.958984375 581.08984375 323.450195312 546.004882812 c 0,7,8
 321.681640625 528.313476562 321.681640625 528.313476562 319.529296875 512.615234375 c 256,9,10
 317.376953125 496.91796875 317.376953125 496.91796875 314.833007812 483.178710938 c 2,11,-1
 313.318359375 475 l 1,12,-1
 305 475 l 1,13,-1
 245 475 l 1,14,-1
 236.681640625 475 l 1,15,-1
 235.166992188 483.178710938 l 2,16,17
 230.090820312 510.58984375 230.090820312 510.58984375 226.549804688 546.004882812 c 0,18,19
 223.041015625 581.08984375 223.041015625 581.08984375 220.034179688 617.169921875 c 256,20,21
 217.01953125 653.352539062 217.01953125 653.352539062 215.509765625 687.559570312 c 0,22,23
 214.754882812 704.661132812 214.754882812 704.661132812 214.377929688 719.765625 c 256,24,25
 214 734.869140625 214 734.869140625 214 748 c 2,26,-1
 214 800 l 1,27,-1
 214 810 l 1,28,-1
 224 810 l 1,29,-1
 326 810 l 1,30,-1
 336 810 l 1,31,-1
 336 800 l 1,0,-1
EndSplineSet
EndChar

StartChar: parenleft
Encoding: 40 40 11
Width: 550
VWidth: 1177
Flags: W
LayerCount: 2
Fore
SplineSet
435.42578125 745 m 1,0,1
 381.551757812 702.873046875 381.551757812 702.873046875 341.456054688 655.7734375 c 256,2,3
 301.361328125 608.673828125 301.361328125 608.673828125 273.37109375 554.883789062 c 0,4,5
 217 446.553710938 217 446.553710938 217 318 c 0,6,7
 217 253.129882812 217 253.129882812 230.248046875 195.23046875 c 256,8,9
 243.463867188 137.47265625 243.463867188 137.47265625 270.877929688 84.603515625 c 0,10,11
 284.60546875 58.1279296875 284.60546875 58.1279296875 302.03515625 32.474609375 c 256,12,13
 319.46484375 6.8212890625 319.46484375 6.8212890625 340.614257812 -18.0166015625 c 0,14,15
 383.118164062 -67.9345703125 383.118164062 -67.9345703125 441.5390625 -118.434570312 c 2,16,-1
 448.58203125 -124.522460938 l 1,17,-1
 443.013671875 -131.981445312 l 1,18,-1
 390.013671875 -202.981445312 l 1,19,-1
 384.053710938 -210.965820312 l 1,20,-1
 376.047851562 -205.03515625 l 2,21,22
 239.14453125 -103.625976562 239.14453125 -103.625976562 171.076171875 30.9873046875 c 256,23,24
 103 165.615234375 103 165.615234375 103 316 c 0,25,26
 103 464.376953125 103 464.376953125 171.069335938 599.499023438 c 256,27,28
 239.161132812 734.666992188 239.161132812 734.666992188 376.125 834.092773438 c 2,29,-1
 384.258789062 839.997070312 l 1,30,-1
 390.122070312 831.833984375 l 1,31,-1
 441.122070312 760.833984375 l 1,32,-1
 452.495117188 745 l 1,33,-1
 435.42578125 745 l 1,0,1
EndSplineSet
Substitution2: "'case' Case-Sensitive Forms lookup 17 subtable" Parenleft
EndChar

StartChar: parenright
Encoding: 41 41 12
Width: 550
VWidth: 1177
Flags: W
LayerCount: 2
Fore
SplineSet
112.29296875 -116 m 1,0,1
 218.768554688 -32.7548828125 218.768554688 -32.7548828125 275.380859375 74.1787109375 c 0,2,3
 332.71875 182.483398438 332.71875 182.483398438 332.71875 311 c 0,4,5
 332.71875 332.6484375 332.71875 332.6484375 331.243164062 353.517578125 c 256,6,7
 329.768554688 374.385742188 329.768554688 374.385742188 326.825195312 394.4375 c 256,8,9
 323.8828125 414.48828125 323.8828125 414.48828125 319.470703125 433.76953125 c 0,10,11
 312.865234375 462.637695312 312.865234375 462.637695312 302.594726562 490.26953125 c 256,12,13
 292.325195312 517.900390625 292.325195312 517.900390625 278.375 544.33203125 c 256,14,15
 264.391601562 570.827148438 264.391601562 570.827148438 246.828125 596.497070312 c 256,16,17
 229.264648438 622.166992188 229.264648438 622.166992188 208.104492188 647.016601562 c 0,18,19
 165.600585938 696.934570312 165.600585938 696.934570312 107.1796875 747.434570312 c 2,20,-1
 100.13671875 753.522460938 l 1,21,-1
 105.705078125 760.981445312 l 1,22,-1
 158.705078125 831.981445312 l 1,23,-1
 164.665039062 839.965820312 l 1,24,-1
 172.670898438 834.03515625 l 2,25,26
 241.028320312 783.400390625 241.028320312 783.400390625 292.310546875 724.375 c 256,27,28
 343.59375 665.348632812 343.59375 665.348632812 377.642578125 598.012695312 c 0,29,30
 445.71875 463.384765625 445.71875 463.384765625 445.71875 313 c 0,31,32
 445.71875 238.77734375 445.71875 238.77734375 427.923828125 167.090820312 c 256,33,34
 410.146484375 95.47265625 410.146484375 95.47265625 376.122070312 28.9462890625 c 0,35,36
 359.096679688 -4.341796875 359.096679688 -4.341796875 337.883789062 -35.7158203125 c 256,37,38
 316.671875 -67.08984375 316.671875 -67.08984375 291.29296875 -96.529296875 c 0,39,40
 240.545898438 -155.396484375 240.545898438 -155.396484375 172.622070312 -205.071289062 c 2,41,-1
 164.555664062 -210.970703125 l 1,42,-1
 158.651367188 -202.909179688 l 1,43,-1
 106.651367188 -131.909179688 l 1,44,-1
 95 -116 l 1,45,-1
 112.29296875 -116 l 1,0,1
EndSplineSet
Substitution2: "'case' Case-Sensitive Forms lookup 17 subtable" Parenright
EndChar

StartChar: asterisk
Encoding: 42 42 13
Width: 550
VWidth: 1177
Flags: W
LayerCount: 2
Fore
SplineSet
341.422851562 483.646484375 m 1,0,1
 366.0625 460.990234375 366.0625 460.990234375 391.444335938 436.728515625 c 0,2,3
 402.850585938 425.826171875 402.850585938 425.826171875 413.455078125 414.026367188 c 256,4,5
 424.060546875 402.227539062 424.060546875 402.227539062 433.36328125 390.165039062 c 256,6,7
 442.665039062 378.1015625 442.665039062 378.1015625 450.653320312 365.858398438 c 2,8,-1
 454.342773438 361.247070312 l 1,9,-1
 460.813476562 353.159179688 l 1,10,-1
 452.502929688 346.9765625 l 1,11,-1
 370.502929688 285.9765625 l 1,12,-1
 362.510742188 280.03125 l 1,13,-1
 356.534179688 288 l 1,14,-1
 350.46484375 296.092773438 l 2,15,16
 324.8984375 331.885742188 324.8984375 331.885742188 304.525390625 374.158203125 c 0,17,18
 297.055664062 389.658203125 297.055664062 389.658203125 289.947265625 404.938476562 c 256,19,20
 282.83984375 420.217773438 282.83984375 420.217773438 276.098632812 435.247070312 c 1,21,22
 261.591796875 405.385742188 261.591796875 405.385742188 246.54296875 374.158203125 c 0,23,24
 236.323242188 352.952148438 236.323242188 352.952148438 224.298828125 333.380859375 c 256,25,26
 212.274414062 313.809570312 212.274414062 313.809570312 198.452148438 295.891601562 c 2,27,-1
 198.059570312 295.3828125 l 1,28,-1
 197.60546875 294.928710938 l 1,29,-1
 191.60546875 288.928710938 l 1,30,-1
 185.59375 282.91796875 l 1,31,-1
 178.693359375 287.8828125 l 1,32,-1
 96.693359375 346.8828125 l 1,33,-1
 87.8564453125 353.241210938 l 1,34,-1
 94.94140625 361.5078125 l 1,35,-1
 100.627929688 368.142578125 l 1,36,37
 127.29296875 405.912109375 127.29296875 405.912109375 160.629882812 437.733398438 c 0,38,39
 185.448242188 461.424804688 185.448242188 461.424804688 210.018554688 483.995117188 c 1,40,41
 192.526367188 486.408203125 192.526367188 486.408203125 175.838867188 488.751953125 c 256,42,43
 159.151367188 491.095703125 159.151367188 491.095703125 141.620117188 493.600585938 c 0,44,45
 95.2275390625 500.227539062 95.2275390625 500.227539062 52.1962890625 514.571289062 c 2,46,-1
 44.0224609375 517.63671875 l 1,47,-1
 35 521.020507812 l 1,48,-1
 38.046875 530.162109375 l 1,49,-1
 70.046875 626.162109375 l 1,50,-1
 73.3291015625 636.006835938 l 1,51,-1
 83.0458984375 632.36328125 l 1,52,-1
 91.107421875 629.33984375 l 2,53,54
 132.551757812 613.166992188 132.551757812 613.166992188 174.920898438 592.486328125 c 0,55,56
 185.458007812 587.342773438 185.458007812 587.342773438 195.921875 582.075195312 c 256,57,58
 206.384765625 576.807617188 206.384765625 576.807617188 216.448242188 571.584960938 c 256,59,60
 226.51171875 566.362304688 226.51171875 566.362304688 236.326171875 561.112304688 c 1,61,62
 229.638671875 594.03515625 229.638671875 594.03515625 223.681640625 628.286132812 c 0,63,64
 215.534179688 675.13671875 215.534179688 675.13671875 215.534179688 721 c 2,65,-1
 215.534179688 729 l 1,66,-1
 215.534179688 739 l 1,67,-1
 225.534179688 739 l 1,68,-1
 326.534179688 739 l 1,69,-1
 336.534179688 739 l 1,70,-1
 336.534179688 729 l 1,71,-1
 336.534179688 721 l 2,72,73
 336.534179688 698.08984375 336.534179688 698.08984375 334.625976562 674.935546875 c 256,74,75
 332.717773438 651.78125 332.717773438 651.78125 328.904296875 628.390625 c 0,76,77
 327.790039062 621.559570312 327.790039062 621.559570312 326.60546875 614.616210938 c 256,78,79
 325.421875 607.672851562 325.421875 607.672851562 324.21484375 600.887695312 c 256,80,81
 323.008789062 594.103515625 323.008789062 594.103515625 321.766601562 587.389648438 c 256,82,83
 320.525390625 580.674804688 320.525390625 580.674804688 319.283203125 574.21484375 c 256,84,85
 318.040039062 567.754882812 318.040039062 567.754882812 316.798828125 561.548828125 c 1,86,87
 346.56640625 577.942382812 346.56640625 577.942382812 377.239257812 592.530273438 c 0,88,89
 418.194335938 612.009765625 418.194335938 612.009765625 459.567382812 627.196289062 c 1,90,-1
 467.0625 630.944335938 l 1,91,-1
 477.504882812 636.166015625 l 1,92,-1
 481.059570312 625.043945312 l 1,93,-1
 512.059570312 528.043945312 l 1,94,-1
 515.200195312 518.21875 l 1,95,-1
 505.28125 515.384765625 l 1,96,-1
 498.38671875 513.415039062 l 2,97,98
 455.78515625 500.228515625 455.78515625 500.228515625 409.5546875 493.116210938 c 0,99,100
 375.5390625 487.8828125 375.5390625 487.8828125 341.422851562 483.646484375 c 1,0,1
EndSplineSet
EndChar

StartChar: plus
Encoding: 43 43 14
Width: 550
VWidth: 1177
Flags: W
LayerCount: 2
Fore
SplineSet
34 361 m 1,0,-1
 222 361 l 1,1,-1
 222 568 l 1,2,-1
 222 578 l 1,3,-1
 232 578 l 1,4,-1
 317 578 l 1,5,-1
 327 578 l 1,6,-1
 327 568 l 1,7,-1
 327 361 l 1,8,-1
 516 361 l 1,9,-1
 526 361 l 1,10,-1
 526 351 l 1,11,-1
 526 269 l 1,12,-1
 526 259 l 1,13,-1
 516 259 l 1,14,-1
 327 259 l 1,15,-1
 327 51 l 1,16,-1
 327 41 l 1,17,-1
 317 41 l 1,18,-1
 232 41 l 1,19,-1
 222 41 l 1,20,-1
 222 51 l 1,21,-1
 222 259 l 1,22,-1
 34 259 l 1,23,-1
 24 259 l 1,24,-1
 24 269 l 1,25,-1
 24 351 l 1,26,-1
 24 361 l 1,27,-1
 34 361 l 1,0,-1
EndSplineSet
EndChar

StartChar: comma
Encoding: 44 44 15
Width: 550
VWidth: 1177
Flags: W
LayerCount: 2
Fore
SplineSet
154.451171875 -83.271484375 m 2,0,1
 175.53515625 -78.251953125 175.53515625 -78.251953125 196.123046875 -73.732421875 c 0,2,3
 202.557617188 -72.3203125 202.557617188 -72.3203125 208.66015625 -70.4423828125 c 256,4,5
 214.763671875 -68.564453125 214.763671875 -68.564453125 220.510742188 -66.2333984375 c 256,6,7
 226.2578125 -63.9033203125 226.2578125 -63.9033203125 231.694335938 -61.107421875 c 0,8,9
 239.837890625 -56.9189453125 239.837890625 -56.9189453125 247.268554688 -51.6943359375 c 256,10,11
 254.698242188 -46.4697265625 254.698242188 -46.4697265625 261.453125 -40.1806640625 c 0,12,13
 270.232421875 -32.0068359375 270.232421875 -32.0068359375 276.732421875 -18.87890625 c 1,14,15
 260.641601562 -15.3720703125 260.641601562 -15.3720703125 248.150390625 -7.369140625 c 256,16,17
 235.66015625 0.6337890625 235.66015625 0.6337890625 227.447265625 12.953125 c 0,18,19
 208.767578125 40.97265625 208.767578125 40.97265625 208.767578125 68 c 0,20,21
 208.767578125 119.374023438 208.767578125 119.374023438 238.479492188 146.842773438 c 0,22,23
 252.98828125 160.256835938 252.98828125 160.256835938 269.956054688 167.127929688 c 256,24,25
 286.924804688 174 286.924804688 174 305.767578125 174 c 0,26,27
 317.73046875 174 317.73046875 174 328.456054688 171.759765625 c 256,28,29
 339.181640625 169.518554688 339.181640625 169.518554688 348.541992188 165.073242188 c 256,30,31
 357.90234375 160.627929688 357.90234375 160.627929688 365.825195312 153.87890625 c 256,32,33
 373.748046875 147.129882812 373.748046875 147.129882812 379.965820312 138.225585938 c 0,34,35
 403.767578125 104.146484375 403.767578125 104.146484375 403.767578125 57 c 0,36,37
 403.767578125 39.06640625 403.767578125 39.06640625 400.231445312 20.337890625 c 256,38,39
 396.6953125 1.609375 396.6953125 1.609375 389.676757812 -17.88671875 c 0,40,41
 375.565429688 -57.0830078125 375.565429688 -57.0830078125 346.901367188 -90.958984375 c 0,42,43
 337.329101562 -102.271484375 337.329101562 -102.271484375 326.189453125 -112.48046875 c 256,44,45
 315.05078125 -122.688476562 315.05078125 -122.688476562 302.426757812 -131.73828125 c 256,46,47
 289.803710938 -140.787109375 289.803710938 -140.787109375 275.66015625 -148.721679688 c 0,48,49
 267.065429688 -153.54296875 267.065429688 -153.54296875 257.814453125 -157.686523438 c 256,50,51
 248.563476562 -161.830078125 248.563476562 -161.830078125 238.71484375 -165.278320312 c 256,52,53
 228.866210938 -168.7265625 228.866210938 -168.7265625 218.368164062 -171.505859375 c 256,54,55
 207.870117188 -174.286132812 207.870117188 -174.286132812 196.7890625 -176.385742188 c 256,56,57
 185.708984375 -178.485351562 185.708984375 -178.485351562 173.986328125 -179.92578125 c 2,58,-1
 164.849609375 -181.047851562 l 1,59,-1
 162.9765625 -172.034179688 l 1,60,-1
 146.9765625 -95.0341796875 l 1,61,-1
 145 -85.5224609375 l 1,62,-1
 154.451171875 -83.271484375 l 2,0,1
EndSplineSet
EndChar

StartChar: hyphen
Encoding: 45 45 16
Width: 550
VWidth: 1177
Flags: W
LayerCount: 2
Fore
SplineSet
98 355 m 1,0,-1
 451 355 l 1,1,-1
 461 355 l 1,2,-1
 461 345 l 1,3,-1
 461 253 l 1,4,-1
 461 243 l 1,5,-1
 451 243 l 1,6,-1
 98 243 l 1,7,-1
 88 243 l 1,8,-1
 88 253 l 1,9,-1
 88 345 l 1,10,-1
 88 355 l 1,11,-1
 98 355 l 1,0,-1
EndSplineSet
Substitution2: "'case' Case-Sensitive Forms lookup 17 subtable" Hyphen
EndChar

StartChar: period
Encoding: 46 46 17
Width: 550
VWidth: 1177
Flags: W
LayerCount: 2
Fore
SplineSet
372 75 m 0,0,1
 372 55.76953125 372 55.76953125 365.450195312 38.48828125 c 256,2,3
 358.900390625 21.20703125 358.900390625 21.20703125 346.04296875 6.4345703125 c 0,4,5
 337.2734375 -3.640625 337.2734375 -3.640625 326.384765625 -10.4384765625 c 256,6,7
 315.49609375 -17.236328125 315.49609375 -17.236328125 302.868164062 -20.6181640625 c 256,8,9
 290.239257812 -24 290.239257812 -24 276 -24 c 0,10,11
 254.11328125 -24 254.11328125 -24 236.032226562 -16.3740234375 c 256,12,13
 217.952148438 -8.748046875 217.952148438 -8.748046875 204.526367188 6.3564453125 c 0,14,15
 191.396484375 21.126953125 191.396484375 21.126953125 184.698242188 38.4296875 c 256,16,17
 178 55.7333984375 178 55.7333984375 178 75 c 0,18,19
 178 115.801757812 178 115.801757812 204.526367188 145.643554688 c 0,20,21
 217.942382812 160.737304688 217.942382812 160.737304688 236.029296875 168.368164062 c 256,22,23
 254.115234375 176 254.115234375 176 276 176 c 0,24,25
 319.553710938 176 319.553710938 176 346.04296875 145.565429688 c 0,26,27
 372 115.7421875 372 115.7421875 372 75 c 0,0,1
EndSplineSet
EndChar

StartChar: slash
Encoding: 47 47 18
Width: 550
VWidth: 1177
Flags: W
LayerCount: 2
Fore
SplineSet
161.745117188 -204 m 1,0,-1
 61.7451171875 -204 l 1,1,-1
 48 -204 l 1,2,-1
 52.23046875 -190.921875 l 1,3,-1
 381.23046875 826.078125 l 1,4,-1
 383.469726562 833 l 1,5,-1
 390.745117188 833 l 1,6,-1
 488.745117188 833 l 1,7,-1
 502.46484375 833 l 1,8,-1
 498.264648438 819.939453125 l 1,9,-1
 171.264648438 -197.060546875 l 1,10,-1
 169.034179688 -204 l 1,11,-1
 161.745117188 -204 l 1,0,-1
EndSplineSet
Substitution2: "'case' Case-Sensitive Forms lookup 17 subtable" Slash
Substitution2: "'ss02' Style Set 2 lookup 14 subtable" fraction
Substitution2: "'frac' Diagonal Fractions lookup 12 subtable" fraction
EndChar

StartChar: zero
Encoding: 48 48 19
Width: 550
VWidth: 1177
Flags: W
LayerCount: 2
Fore
SplineSet
336.791015625 438.685546875 m 0,0,1
 359.015625 412.463867188 359.015625 412.463867188 359.015625 378 c 0,2,3
 359.015625 360.901367188 359.015625 360.901367188 353.377929688 345.901367188 c 128,-1,4
 347.741210938 330.901367188 347.741210938 330.901367188 336.571289062 318.564453125 c 0,5,6
 328.993164062 310.192382812 328.993164062 310.192382812 319.71484375 304.486328125 c 128,-1,7
 310.4375 298.78125 310.4375 298.78125 299.737304688 295.890625 c 128,-1,8
 289.038085938 293 289.038085938 293 277.19140625 293 c 0,9,10
 258.39453125 293 258.39453125 293 242.752929688 299.45703125 c 128,-1,11
 227.110351562 305.915039062 227.110351562 305.915039062 215.658203125 318.564453125 c 0,12,13
 210.068359375 324.73828125 210.068359375 324.73828125 205.845703125 331.62109375 c 128,-1,14
 201.625 338.50390625 201.625 338.50390625 198.827148438 345.965820312 c 128,-1,15
 196.029296875 353.428710938 196.029296875 353.428710938 194.62109375 361.453125 c 128,-1,16
 193.21484375 369.478515625 193.21484375 369.478515625 193.21484375 378 c 0,17,18
 193.21484375 395.0625 193.21484375 395.0625 198.8046875 410.358398438 c 128,-1,19
 204.395507812 425.655273438 204.395507812 425.655273438 215.438476562 438.685546875 c 0,20,21
 226.844726562 452.142578125 226.844726562 452.142578125 242.556640625 459.071289062 c 128,-1,22
 258.268554688 466 258.268554688 466 277.19140625 466 c 0,23,24
 313.640625 466 313.640625 466 336.791015625 438.685546875 c 0,0,1
78.587890625 67 m 0,25,26
 14 167.55859375 14 167.55859375 14 354.658203125 c 128,-1,27
 14 541.74609375 14 541.74609375 78.576171875 642.797851562 c 0,28,29
 145.33203125 746 145.33203125 746 273.961914062 746 c 0,30,31
 403.66796875 746 403.66796875 746 470.423828125 642.79296875 c 0,32,33
 535 541.737304688 535 541.737304688 535 354.640625 c 128,-1,34
 535 167.551757812 535 167.551757812 470.931640625 67 c 0,35,36
 457.939453125 50.8955078125 457.939453125 50.8955078125 442.577148438 37.9345703125 c 128,-1,37
 427.21484375 24.9736328125 427.21484375 24.9736328125 409.16015625 15.2314453125 c 0,38,39
 390.169921875 5.48828125 390.169921875 5.48828125 368.791992188 -1.0439453125 c 128,-1,40
 347.4140625 -7.5751953125 347.4140625 -7.5751953125 323.671875 -10.853515625 c 0,41,42
 299.927734375 -15 299.927734375 -15 273.961914062 -15 c 0,43,44
 145.34765625 -15 145.34765625 -15 78.587890625 67 c 0,25,26
408.631835938 256.758789062 m 0,45,46
 416 307.754882812 416 307.754882812 416 365.017578125 c 0,47,48
 416 376.48046875 416 376.48046875 415.72265625 387.693359375 c 128,-1,49
 415.4453125 398.905273438 415.4453125 398.905273438 414.8828125 409.856445312 c 128,-1,50
 414.287109375 420.807617188 414.287109375 420.807617188 413.393554688 431.508789062 c 128,-1,51
 412.5 442.208984375 412.5 442.208984375 411.309570312 452.6484375 c 128,-1,52
 410.118164062 463.087890625 410.118164062 463.087890625 408.631835938 473.276367188 c 0,53,54
 401.278320312 523.639648438 401.278320312 523.639648438 384.053710938 561.0625 c 0,55,56
 367.234375 597.6015625 367.234375 597.6015625 340.01953125 619.280273438 c 0,57,58
 314.010742188 640 314.010742188 640 273.961914062 640 c 0,59,60
 234.989257812 640 234.989257812 640 208.98046875 619.280273438 c 0,61,62
 195.436523438 608.491210938 195.436523438 608.491210938 184.423828125 593.971679688 c 128,-1,63
 173.411132812 579.452148438 173.411132812 579.452148438 164.946289062 561.0625 c 0,64,65
 159.234375 548.651367188 159.234375 548.651367188 154.602539062 534.797851562 c 128,-1,66
 149.96875 520.943359375 149.96875 520.943359375 146.3984375 505.53125 c 128,-1,67
 142.827148438 490.118164062 142.827148438 490.118164062 140.368164062 473.276367188 c 0,68,69
 136.6484375 447.795898438 136.6484375 447.795898438 134.786132812 420.73046875 c 128,-1,70
 133 393.6640625 133 393.6640625 133 365.017578125 c 0,71,72
 133 345.916015625 133 345.916015625 133.76953125 327.509765625 c 128,-1,73
 134.581054688 309.103515625 134.581054688 309.103515625 136.235351562 291.422851562 c 128,-1,74
 137.888671875 273.7421875 137.888671875 273.7421875 140.368164062 256.758789062 c 0,75,76
 147.721679688 206.395507812 147.721679688 206.395507812 164.946289062 168.97265625 c 0,77,78
 181.743164062 132.483398438 181.743164062 132.483398438 208.896484375 111.303710938 c 0,79,80
 234.92578125 91 234.92578125 91 273.961914062 91 c 128,-1,81
 313.053710938 91 313.053710938 91 339.640625 111.360351562 c 0,82,83
 353.395507812 121.895507812 353.395507812 121.895507812 364.5 136.2578125 c 128,-1,84
 375.60546875 150.620117188 375.60546875 150.620117188 384.053710938 168.97265625 c 0,85,86
 401.278320312 206.395507812 401.278320312 206.395507812 408.631835938 256.758789062 c 0,45,46
EndSplineSet
Substitution2: "'ss02' Style Set 2 lookup 15 subtable" zerosuperior
Substitution2: "'sinf' Scientific Inferiors lookup 11 subtable" zero.sinf
Substitution2: "'subs' Subscript lookup 10 subtable" zero.sinf
Substitution2: "'sups' Superscript lookup 9 subtable" zero.sups
Substitution2: "'dnom' Denominators lookup 8 subtable" zeroinferior
Substitution2: "'numr' Numerators lookup 6 subtable" zerosuperior
EndChar

StartChar: one
Encoding: 49 49 20
Width: 550
VWidth: 1177
Flags: W
LayerCount: 2
Fore
SplineSet
44 573.4921875 m 1,0,-1
 53.482421875 577.28515625 l 2,1,2
 112.61328125 600.936523438 112.61328125 600.936523438 168.732421875 636.43359375 c 0,3,4
 229.301757812 671.688476562 229.301757812 671.688476562 281.931640625 725.65234375 c 2,5,-1
 285.197265625 729 l 1,6,-1
 290.10546875 729 l 1,7,-1
 364.544921875 729 l 1,8,-1
 375.4921875 729 l 1,9,-1
 375.4921875 719 l 1,10,-1
 375.4921875 82 l 1,11,-1
 505.196289062 82 l 1,12,-1
 515.196289062 82 l 1,13,-1
 515.196289062 74.173828125 l 1,14,-1
 515.196289062 10 l 1,15,-1
 515.196289062 0 l 1,16,-1
 505.196289062 0 l 1,17,-1
 93.1962890625 0 l 1,18,-1
 83.1962890625 0 l 1,19,-1
 83.1962890625 10 l 1,20,-1
 83.1962890625 74.173828125 l 1,21,-1
 83.1962890625 82 l 1,22,-1
 93.1962890625 82 l 1,23,-1
 248.506835938 82 l 1,24,-1
 248.506835938 562.620117188 l 1,25,26
 240.1875 556.823242188 240.1875 556.823242188 231.099609375 551.213867188 c 0,27,28
 210.336914062 538.3984375 210.336914062 538.3984375 185.70703125 526.637695312 c 0,29,30
 161.625976562 515.03125 161.625976562 515.03125 137.935546875 503.943359375 c 0,31,32
 113.84765625 492.66796875 113.84765625 492.66796875 91.228515625 485.470703125 c 2,33,-1
 82.55078125 482.709960938 l 1,34,-1
 78.9921875 491.090820312 l 1,35,-1
 47.9921875 564.090820312 l 1,36,-1
 44 573.4921875 l 1,0,-1
EndSplineSet
Substitution2: "'ss02' Style Set 2 lookup 15 subtable" onesuperior
Substitution2: "'sinf' Scientific Inferiors lookup 11 subtable" one.sinf
Substitution2: "'subs' Subscript lookup 10 subtable" one.sinf
Substitution2: "'sups' Superscript lookup 9 subtable" one.sups
Substitution2: "'dnom' Denominators lookup 8 subtable" oneinferior
Substitution2: "'numr' Numerators lookup 6 subtable" onesuperior
EndChar

StartChar: two
Encoding: 50 50 21
Width: 550
VWidth: 1177
Flags: W
LayerCount: 2
Fore
SplineSet
438.459960938 690.733398438 m 0,0,1
 496.555664062 635.279296875 496.555664062 635.279296875 496.555664062 533 c 0,2,3
 496.555664062 492.947265625 496.555664062 492.947265625 480.747070312 456.060546875 c 0,4,5
 465.345703125 420.125 465.345703125 420.125 440.764648438 384.7890625 c 0,6,7
 416.369140625 349.720703125 416.369140625 349.720703125 383.716796875 316.212890625 c 0,8,9
 367.131835938 299.651367188 367.131835938 299.651367188 350.060546875 283.517578125 c 128,-1,10
 332.989257812 267.3828125 332.989257812 267.3828125 315.641601562 251.873046875 c 0,11,12
 306.056640625 243.026367188 306.056640625 243.026367188 294.828125 232.288085938 c 128,-1,13
 283.600585938 221.55078125 283.600585938 221.55078125 270.971679688 209.151367188 c 0,14,15
 245.752929688 184.389648438 245.752929688 184.389648438 223.224609375 159.142578125 c 0,16,17
 212.114257812 146.689453125 212.114257812 146.689453125 202.75 134.396484375 c 128,-1,18
 193.38671875 122.102539062 193.38671875 122.102539062 185.770507812 109.982421875 c 0,19,20
 175.995117188 94.4267578125 175.995117188 94.4267578125 172.85546875 82 c 1,21,-1
 515.555664062 82 l 1,22,-1
 525.555664062 82 l 1,23,-1
 525.555664062 74.173828125 l 1,24,-1
 525.555664062 10 l 1,25,-1
 525.555664062 0 l 1,26,-1
 515.555664062 0 l 1,27,-1
 53.5556640625 0 l 1,28,-1
 45.083984375 0 l 1,29,-1
 43.69140625 8.3564453125 l 2,30,31
 43.12109375 11.671875 43.12109375 11.671875 42.8388671875 15.1005859375 c 128,-1,32
 42.5556640625 18.529296875 42.5556640625 18.529296875 42.5556640625 22.0654296875 c 2,33,-1
 42.5556640625 34.1826171875 l 2,34,35
 42.5556640625 83.494140625 42.5556640625 83.494140625 59.7333984375 126.381835938 c 0,36,37
 76.662109375 168.6484375 76.662109375 168.6484375 103.337890625 205.94140625 c 0,38,39
 129.784179688 242.916015625 129.784179688 242.916015625 164.232421875 276.421875 c 0,40,41
 199.588867188 309.512695312 199.588867188 309.512695312 234.34765625 339.637695312 c 0,42,43
 262.379882812 364.715820312 262.379882812 364.715820312 288.307617188 388.876953125 c 0,44,45
 291.147460938 391.5234375 291.147460938 391.5234375 293.909179688 394.165039062 c 128,-1,46
 296.670898438 396.805664062 296.670898438 396.805664062 299.348632812 399.436523438 c 128,-1,47
 302.02734375 402.068359375 302.02734375 402.068359375 304.625976562 404.693359375 c 128,-1,48
 307.225585938 407.317382812 307.225585938 407.317382812 309.7421875 409.932617188 c 128,-1,49
 312.259765625 412.547851562 312.259765625 412.547851562 314.697265625 415.15625 c 128,-1,50
 317.133789062 417.764648438 317.133789062 417.764648438 319.489257812 420.36328125 c 128,-1,51
 321.844726562 422.961914062 321.844726562 422.961914062 324.120117188 425.553710938 c 128,-1,52
 326.396484375 428.145507812 326.396484375 428.145507812 328.58984375 430.727539062 c 128,-1,53
 330.783203125 433.309570312 330.783203125 433.309570312 332.8984375 435.883789062 c 0,54,55
 351.678710938 458.752929688 351.678710938 458.752929688 363.653320312 483.438476562 c 0,56,57
 375.217773438 507.278320312 375.217773438 507.278320312 375.217773438 532.407226562 c 0,58,59
 375.217773438 539.749023438 375.217773438 539.749023438 374.579101562 546.516601562 c 128,-1,60
 373.939453125 553.283203125 373.939453125 553.283203125 372.681640625 559.381835938 c 128,-1,61
 371.422851562 565.479492188 371.422851562 565.479492188 369.584960938 570.943359375 c 128,-1,62
 367.74609375 576.407226562 367.74609375 576.407226562 365.31640625 581.296875 c 0,63,64
 362.001953125 587.96875 362.001953125 587.96875 357.953125 593.794921875 c 128,-1,65
 353.903320312 599.62109375 353.903320312 599.62109375 349.16796875 604.57421875 c 128,-1,66
 344.432617188 609.526367188 344.432617188 609.526367188 338.932617188 613.723632812 c 0,67,68
 330.525390625 620.138671875 330.525390625 620.138671875 320.756835938 625.005859375 c 128,-1,69
 310.98828125 629.873046875 310.98828125 629.873046875 299.740234375 633.227539062 c 0,70,71
 295.215820312 634.577148438 295.215820312 634.577148438 290.55078125 635.65625 c 128,-1,72
 285.88671875 636.736328125 285.88671875 636.736328125 281.051757812 637.551757812 c 128,-1,73
 276.217773438 638.366210938 276.217773438 638.366210938 271.233398438 638.91015625 c 128,-1,74
 266.250976562 639.453125 266.250976562 639.453125 261.091796875 639.7265625 c 128,-1,75
 255.932617188 640 255.932617188 640 250.6171875 640 c 0,76,77
 234.639648438 640 234.639648438 640 220.3515625 637.998046875 c 128,-1,78
 206.0625 635.99609375 206.0625 635.99609375 193.428710938 632.032226562 c 0,79,80
 180.375976562 627.936523438 180.375976562 627.936523438 168.825195312 623.14453125 c 128,-1,81
 157.274414062 618.353515625 157.274414062 618.353515625 147.23046875 612.88671875 c 0,82,83
 137.66015625 607.298828125 137.66015625 607.298828125 129.438476562 601.736328125 c 128,-1,84
 121.215820312 596.173828125 121.215820312 596.173828125 114.26953125 590.665039062 c 0,85,86
 100.219726562 579.522460938 100.219726562 579.522460938 93.626953125 572.928710938 c 2,87,-1
 85.232421875 564.534179688 l 1,88,-1
 78.3857421875 574.233398438 l 1,89,-1
 30.3857421875 642.233398438 l 1,90,-1
 26 648.446289062 l 1,91,-1
 30.8154296875 654.33203125 l 2,92,93
 40.4541015625 666.112304688 40.4541015625 666.112304688 60.234375 682.249023438 c 0,94,95
 70.1943359375 690.374023438 70.1943359375 690.374023438 82.0107421875 697.905273438 c 128,-1,96
 93.828125 705.436523438 93.828125 705.436523438 107.516601562 712.41015625 c 0,97,98
 134.869140625 726.344726562 134.869140625 726.344726562 170.69140625 736.109375 c 0,99,100
 189.333007812 741.0625 189.333007812 741.0625 209.32421875 743.53125 c 128,-1,101
 229.314453125 746 229.314453125 746 250.6171875 746 c 0,102,103
 378.475585938 746 378.475585938 746 438.459960938 690.733398438 c 0,0,1
EndSplineSet
Substitution2: "'ss02' Style Set 2 lookup 15 subtable" twosuperior
Substitution2: "'sinf' Scientific Inferiors lookup 11 subtable" two.sinf
Substitution2: "'subs' Subscript lookup 10 subtable" two.sinf
Substitution2: "'sups' Superscript lookup 9 subtable" two.sups
Substitution2: "'dnom' Denominators lookup 8 subtable" twoinferior
Substitution2: "'numr' Numerators lookup 6 subtable" twosuperior
EndChar

StartChar: three
Encoding: 51 51 22
Width: 550
VWidth: 1177
Flags: W
LayerCount: 2
Fore
SplineSet
168.37890625 94.1591796875 m 0,0,1
 195.151367188 91 195.151367188 91 226.975585938 91 c 0,2,3
 251.5625 91 251.5625 91 272.5703125 93.17578125 c 128,-1,4
 293.577148438 95.3515625 293.577148438 95.3515625 310.500976562 99.5869140625 c 128,-1,5
 327.424804688 103.823242188 327.424804688 103.823242188 340.603515625 109.911132812 c 128,-1,6
 353.78125 115.999023438 353.78125 115.999023438 363.391601562 123.96875 c 0,7,8
 383.158203125 140.364257812 383.158203125 140.364257812 392.998046875 162.201171875 c 128,-1,9
 402.750976562 184.038085938 402.750976562 184.038085938 402.750976562 212.116210938 c 0,10,11
 402.750976562 247.903320312 402.750976562 247.903320312 386.471679688 272.0546875 c 0,12,13
 369.932617188 296.463867188 369.932617188 296.463867188 342.897460938 311.092773438 c 0,14,15
 315.244140625 326.056640625 315.244140625 326.056640625 278.610351562 332.453125 c 0,16,17
 241.11328125 339 241.11328125 339 199.836914062 339 c 2,18,-1
 172.697265625 339 l 1,19,-1
 161.841796875 339 l 1,20,-1
 161.841796875 349 l 1,21,-1
 161.841796875 428 l 1,22,-1
 161.841796875 438 l 1,23,-1
 172.697265625 438 l 1,24,-1
 209.606445312 438 l 2,25,26
 236.870117188 438 236.870117188 438 266.318359375 442.616210938 c 0,27,28
 294.801757812 447.080078125 294.801757812 447.080078125 318.094726562 459.080078125 c 0,29,30
 329.421875 464.916015625 329.421875 464.916015625 338.4609375 472.849609375 c 128,-1,31
 347.499023438 480.783203125 347.499023438 480.783203125 354.430664062 490.994140625 c 0,32,33
 368.098632812 511.1328125 368.098632812 511.1328125 368.098632812 543.763671875 c 0,34,35
 368.098632812 595.928710938 368.098632812 595.928710938 332.627929688 617.385742188 c 0,36,37
 295.244140625 640 295.244140625 640 244.344726562 640 c 0,38,39
 191.208984375 640 191.208984375 640 155.262695312 625.80859375 c 0,40,41
 120.397460938 611.112304688 120.397460938 611.112304688 97.05078125 596.51953125 c 2,42,-1
 87.724609375 590.69140625 l 1,43,-1
 82.806640625 600.528320312 l 1,44,-1
 45.806640625 674.528320312 l 1,45,-1
 42 682.141601562 l 1,46,-1
 48.908203125 687.115234375 l 2,47,48
 62.1337890625 696.637695312 62.1337890625 696.637695312 81.2041015625 706.235351562 c 128,-1,49
 100.275390625 715.833007812 100.275390625 715.833007812 125.5859375 725.803710938 c 0,50,51
 179.321289062 746 179.321289062 746 248.686523438 746 c 0,52,53
 313.51171875 746 313.51171875 746 359.776367188 731.315429688 c 0,54,55
 383.046875 723.9296875 383.046875 723.9296875 402.344726562 713.51171875 c 0,56,57
 420.166992188 703.09375 420.166992188 703.09375 434.25390625 689.627929688 c 128,-1,58
 448.258789062 676.241210938 448.258789062 676.241210938 458.74609375 660.592773438 c 128,-1,59
 469.233398438 644.943359375 469.233398438 644.943359375 476.108398438 627.166992188 c 0,60,61
 489.750976562 591.89453125 489.750976562 591.89453125 489.750976562 550.174804688 c 0,62,63
 489.750976562 490.74609375 489.750976562 490.74609375 457.750976562 448.852539062 c 0,64,65
 445.607421875 433.079101562 445.607421875 433.079101562 430.505859375 420.006835938 c 128,-1,66
 415.405273438 406.935546875 415.405273438 406.935546875 397.828125 397.030273438 c 1,67,68
 443.930664062 378.5078125 443.930664062 378.5078125 478.354492188 339.244140625 c 0,69,70
 521.750976562 289.747070312 521.750976562 289.747070312 521.750976562 209.186523438 c 0,71,72
 521.385742188 161.162109375 521.385742188 161.162109375 505.051757812 120.360351562 c 0,73,74
 488.196289062 78.79296875 488.196289062 78.79296875 453.971679688 48.5283203125 c 128,-1,75
 419.877929688 18.3779296875 419.877929688 18.3779296875 363.840820312 1.6572265625 c 0,76,77
 335.208007812 -6.6572265625 335.208007812 -6.6572265625 301.286132812 -10.7744140625 c 128,-1,78
 267.36328125 -15 267.36328125 -15 228.061523438 -15 c 0,79,80
 198.005859375 -15 198.005859375 -15 165.787109375 -10.90625 c 0,81,82
 157.767578125 -9.8876953125 157.767578125 -9.8876953125 150.055664062 -8.708984375 c 0,83,84
 142.7890625 -7.5302734375 142.7890625 -7.5302734375 135.952148438 -6.1884765625 c 128,-1,85
 129.114257812 -4.8466796875 129.114257812 -4.8466796875 122.545898438 -3.3408203125 c 128,-1,86
 115.9765625 -1.8349609375 115.9765625 -1.8349609375 109.686523438 -0.166015625 c 0,87,88
 84.884765625 6.4140625 84.884765625 6.4140625 65.0888671875 13.0126953125 c 2,89,-1
 36.5888671875 22.5126953125 l 1,90,-1
 28 25.3759765625 l 1,91,-1
 29.9970703125 34.2060546875 l 1,92,-1
 48.9970703125 118.206054688 l 1,93,-1
 51.7509765625 130.380859375 l 1,94,-1
 63.0322265625 125.037109375 l 2,95,96
 81.4033203125 116.334960938 81.4033203125 116.334960938 122.240234375 103.54296875 c 0,97,98
 142.111328125 97.318359375 142.111328125 97.318359375 168.37890625 94.1591796875 c 0,0,1
EndSplineSet
Substitution2: "'ss02' Style Set 2 lookup 15 subtable" threesuperior
Substitution2: "'sinf' Scientific Inferiors lookup 11 subtable" three.sinf
Substitution2: "'subs' Subscript lookup 10 subtable" three.sinf
Substitution2: "'sups' Superscript lookup 9 subtable" three.sups
Substitution2: "'dnom' Denominators lookup 8 subtable" threeinferior
Substitution2: "'numr' Numerators lookup 6 subtable" threesuperior
EndChar

StartChar: four
Encoding: 52 52 23
Width: 550
VWidth: 1177
Flags: W
LayerCount: 2
Fore
SplineSet
1 252.645507812 m 1,0,-1
 1.798828125 254.48828125 l 2,1,2
 22.0244140625 301.169921875 22.0244140625 301.169921875 57.30859375 362.063476562 c 128,-1,3
 92.48828125 422.774414062 92.48828125 422.774414062 137.248046875 486.909179688 c 0,4,5
 184.010742188 551.067382812 184.010742188 551.067382812 237.20703125 613.229492188 c 0,6,7
 263.870117188 644.38671875 263.870117188 644.38671875 290.956054688 672.596679688 c 128,-1,8
 318.041992188 700.806640625 318.041992188 700.806640625 345.557617188 726.071289062 c 2,9,-1
 348.690429688 729 l 1,10,-1
 353.122070312 729 l 1,11,-1
 452 729 l 1,12,-1
 462 729 l 1,13,-1
 462 719 l 1,14,-1
 462 276 l 1,15,-1
 538 276 l 1,16,-1
 548 276 l 1,17,-1
 548 266 l 1,18,-1
 548 186 l 1,19,-1
 548 176 l 1,20,-1
 538 176 l 1,21,-1
 462 176 l 1,22,-1
 462 10 l 1,23,-1
 462 0 l 1,24,-1
 452 0 l 1,25,-1
 353.122070312 0 l 1,26,-1
 342.424804688 0 l 1,27,-1
 342.424804688 10 l 1,28,-1
 342.424804688 176 l 1,29,-1
 11 176 l 1,30,-1
 1 176 l 1,31,-1
 1 185.821289062 l 1,32,-1
 1 250.642578125 l 1,33,-1
 1 252.645507812 l 1,0,-1
342.424804688 276 m 1,34,-1
 342.424804688 588.272460938 l 1,35,36
 337.452148438 583.05859375 337.452148438 583.05859375 332.481445312 577.701171875 c 128,-1,37
 327.510742188 572.34375 327.510742188 572.34375 322.533203125 566.833984375 c 128,-1,38
 317.555664062 561.32421875 317.555664062 561.32421875 312.56640625 555.65625 c 128,-1,39
 307.579101562 549.989257812 307.579101562 549.989257812 302.577148438 544.162109375 c 128,-1,40
 297.57421875 538.333984375 297.57421875 538.333984375 292.548828125 532.333984375 c 0,41,42
 258.037109375 491.135742188 258.037109375 491.135742188 225.622070312 445.931640625 c 128,-1,43
 193.22265625 400.747070312 193.22265625 400.747070312 165.083007812 354.088867188 c 0,44,45
 141.5546875 315.078125 141.5546875 315.078125 121.724609375 276 c 1,46,-1
 342.424804688 276 l 1,34,-1
EndSplineSet
Substitution2: "'ss02' Style Set 2 lookup 15 subtable" foursuperior
Substitution2: "'sinf' Scientific Inferiors lookup 11 subtable" four.sinf
Substitution2: "'subs' Subscript lookup 10 subtable" four.sinf
Substitution2: "'sups' Superscript lookup 9 subtable" four.sups
Substitution2: "'dnom' Denominators lookup 8 subtable" fourinferior
Substitution2: "'numr' Numerators lookup 6 subtable" foursuperior
EndChar

StartChar: five
Encoding: 53 53 24
Width: 550
VWidth: 1177
Flags: W
LayerCount: 2
Fore
SplineSet
203.31640625 482.340820312 m 128,-1,1
 202.521484375 473.741210938 202.521484375 473.741210938 202.012695312 467.537109375 c 1,2,3
 258.294921875 464.841796875 258.294921875 464.841796875 303.794921875 456.162109375 c 128,-1,4
 349.295898438 447.482421875 349.295898438 447.482421875 385.357421875 432.368164062 c 0,5,6
 419.624023438 417.254882812 419.624023438 417.254882812 444.126953125 395.473632812 c 0,7,8
 519.482421875 328.490234375 519.482421875 328.490234375 519.482421875 217 c 0,9,10
 519.482421875 207.071289062 519.482421875 207.071289062 518.83984375 197.416015625 c 128,-1,11
 518.197265625 187.760742188 518.197265625 187.760742188 516.907226562 178.360351562 c 128,-1,12
 515.6171875 168.959960938 515.6171875 168.959960938 513.682617188 159.84375 c 128,-1,13
 511.748046875 150.727539062 511.748046875 150.727539062 509.16015625 141.875 c 128,-1,14
 506.572265625 133.021484375 506.572265625 133.021484375 503.336914062 124.463867188 c 0,15,16
 486.985351562 81.212890625 486.985351562 81.212890625 452.704101562 50.095703125 c 0,17,18
 441.29296875 39.73828125 441.29296875 39.73828125 427.857421875 30.9208984375 c 128,-1,19
 414.421875 22.1044921875 414.421875 22.1044921875 399.109375 14.8994140625 c 0,20,21
 382.466796875 7.693359375 382.466796875 7.693359375 363.688476562 2.00390625 c 0,22,23
 335.508789062 -6.53515625 335.508789062 -6.53515625 302.541015625 -10.767578125 c 128,-1,24
 269.57421875 -15 269.57421875 -15 231.76171875 -15 c 0,25,26
 216.127929688 -15 216.127929688 -15 200.494140625 -13.974609375 c 128,-1,27
 184.859375 -12.94921875 184.859375 -12.94921875 169.232421875 -10.8994140625 c 0,28,29
 153.836914062 -8.8662109375 153.836914062 -8.8662109375 140.47265625 -6.3212890625 c 128,-1,30
 127.108398438 -3.775390625 127.108398438 -3.775390625 114.604492188 -0.712890625 c 0,31,32
 89.669921875 5.3935546875 89.669921875 5.3935546875 70.24609375 12.0380859375 c 0,33,34
 50.611328125 18.755859375 50.611328125 18.755859375 42.0107421875 23.0556640625 c 2,35,-1
 35 26.5615234375 l 1,36,-1
 36.7294921875 34.2060546875 l 1,37,-1
 55.7294921875 118.206054688 l 1,38,-1
 58.4833984375 130.380859375 l 1,39,-1
 69.763671875 125.037109375 l 2,40,41
 88.2177734375 116.295898438 88.2177734375 116.295898438 126.645507812 103.487304688 c 0,42,43
 164.916992188 91 164.916992188 91 228.495117188 91 c 0,44,45
 253.315429688 91 253.315429688 91 274.014648438 93.435546875 c 128,-1,46
 294.713867188 95.87109375 294.713867188 95.87109375 311.138671875 100.641601562 c 0,47,48
 322.129882812 103.834960938 322.129882812 103.834960938 331.640625 107.771484375 c 128,-1,49
 341.151367188 111.708007812 341.151367188 111.708007812 348.987304688 116.254882812 c 128,-1,50
 356.825195312 120.802734375 356.825195312 120.802734375 363.235351562 126.041015625 c 0,51,52
 382.5703125 141.838867188 382.5703125 141.838867188 391.462890625 162.831054688 c 0,53,54
 396.032226562 173.614257812 396.032226562 173.614257812 398.301757812 184.553710938 c 128,-1,55
 400.482421875 195.494140625 400.482421875 195.494140625 400.482421875 206.68359375 c 0,56,57
 400.482421875 243.265625 400.482421875 243.265625 386.749023438 271.814453125 c 0,58,59
 373.403320312 299.37890625 373.403320312 299.37890625 339.3046875 318.021484375 c 0,60,61
 333.517578125 321.184570312 333.517578125 321.184570312 326.994140625 324.131835938 c 128,-1,62
 320.46875 327.078125 320.46875 327.078125 313.176757812 329.819335938 c 128,-1,63
 305.88671875 332.560546875 305.88671875 332.560546875 297.826171875 335.078125 c 128,-1,64
 289.767578125 337.596679688 289.767578125 337.596679688 280.978515625 339.883789062 c 128,-1,65
 272.188476562 342.171875 272.188476562 342.171875 262.596679688 344.231445312 c 128,-1,66
 253.004882812 346.291992188 253.004882812 346.291992188 242.713867188 348.09765625 c 0,67,68
 180.594726562 359 180.594726562 359 90.482421875 359 c 2,69,-1
 79.046875 359 l 1,70,-1
 80.572265625 370.028320312 l 2,71,72
 87.5498046875 420.4609375 87.5498046875 420.4609375 92.0322265625 464.081054688 c 128,-1,73
 96.5185546875 507.728515625 96.5185546875 507.728515625 99.5068359375 549.416015625 c 128,-1,74
 102.495117188 591.090820312 102.495117188 591.090820312 103.989257812 632.275390625 c 0,75,76
 105.495117188 673.78125 105.495117188 673.78125 108.502929688 719.63671875 c 2,77,-1
 109.100585938 729 l 1,78,-1
 118.482421875 729 l 1,79,-1
 489.482421875 729 l 1,80,-1
 499.482421875 729 l 1,81,-1
 499.482421875 719 l 1,82,-1
 499.482421875 654.826171875 l 1,83,-1
 499.482421875 647 l 1,84,-1
 489.482421875 647 l 1,85,-1
 216.958984375 647 l 1,86,87
 216.041015625 632.889648438 216.041015625 632.889648438 214.865234375 613.4453125 c 0,88,89
 213.221679688 586.286132812 213.221679688 586.286132812 210.486328125 556.655273438 c 128,-1,90
 207.760742188 527.120117188 207.760742188 527.120117188 205.033203125 500.078125 c 0,91,0
 204.111328125 490.939453125 204.111328125 490.939453125 203.31640625 482.340820312 c 128,-1,1
EndSplineSet
Substitution2: "'ss02' Style Set 2 lookup 15 subtable" fivesuperior
Substitution2: "'sinf' Scientific Inferiors lookup 11 subtable" five.sinf
Substitution2: "'subs' Subscript lookup 10 subtable" five.sinf
Substitution2: "'sups' Superscript lookup 9 subtable" five.sups
Substitution2: "'dnom' Denominators lookup 8 subtable" fiveinferior
Substitution2: "'numr' Numerators lookup 6 subtable" fivesuperior
EndChar

StartChar: six
Encoding: 54 54 25
Width: 550
VWidth: 1177
Flags: W
LayerCount: 2
Fore
SplineSet
84.96484375 67.8330078125 m 0,0,1
 23 149.306640625 23 149.306640625 23 293.745117188 c 0,2,3
 23 346.10546875 23 346.10546875 30.25 392.682617188 c 128,-1,4
 37.4990234375 439.258789062 37.4990234375 439.258789062 52.0546875 480.046875 c 0,5,6
 81.283203125 561.955078125 81.283203125 561.955078125 136.833007812 617.560546875 c 0,7,8
 196.411132812 673.1640625 196.411132812 673.1640625 281.400390625 702.174804688 c 0,9,10
 365.889648438 731.014648438 365.889648438 731.014648438 466.791992188 732.998046875 c 2,11,-1
 476.064453125 733.19140625 l 1,12,-1
 476.954101562 723.958984375 l 1,13,-1
 484.954101562 659.388671875 l 1,14,-1
 485.993164062 651 l 1,15,-1
 475.161132812 650.814453125 l 2,16,17
 444.681640625 650.293945312 444.681640625 650.293945312 416.983398438 646.788085938 c 0,18,19
 387.756835938 643.282226562 387.756835938 643.282226562 360.8203125 636.81640625 c 0,20,21
 307.547851562 624.02734375 307.547851562 624.02734375 265.3515625 595.96484375 c 0,22,23
 254.873046875 588.995117188 254.873046875 588.995117188 245.282226562 581.02734375 c 128,-1,24
 235.690429688 573.059570312 235.690429688 573.059570312 226.955078125 564.0625 c 128,-1,25
 218.220703125 555.06640625 218.220703125 555.06640625 210.348632812 545.034179688 c 128,-1,26
 202.475585938 535.001953125 202.475585938 535.001953125 195.455078125 523.923828125 c 0,27,28
 183.6796875 505.341796875 183.6796875 505.341796875 174.155273438 482.680664062 c 0,29,30
 164.631835938 460.651367188 164.631835938 460.651367188 157.45703125 434.969726562 c 1,31,32
 170.017578125 439.448242188 170.017578125 439.448242188 181.502929688 442.780273438 c 128,-1,33
 192.987304688 446.111328125 192.987304688 446.111328125 206.35546875 449.201171875 c 0,34,35
 244.422851562 458 244.422851562 458 285.775390625 458 c 0,36,37
 308.399414062 458 308.399414062 458 328.840820312 455.874023438 c 128,-1,38
 349.283203125 453.748046875 349.283203125 453.748046875 367.798828125 449.41796875 c 128,-1,39
 386.315429688 445.087890625 386.315429688 445.087890625 402.637695312 438.557617188 c 0,40,41
 448.206054688 419.014648438 448.206054688 419.014648438 475.711914062 386.379882812 c 0,42,43
 503.020507812 353.98046875 503.020507812 353.98046875 515.59765625 311.897460938 c 0,44,45
 521.797851562 291.150390625 521.797851562 291.150390625 524.899414062 269.640625 c 128,-1,46
 528 248.129882812 528 248.129882812 528 225.907226562 c 0,47,48
 528 219.116210938 528 219.116210938 527.624023438 212.282226562 c 128,-1,49
 527.248046875 205.44921875 527.248046875 205.44921875 526.498046875 198.5859375 c 128,-1,50
 525.747070312 191.723632812 525.747070312 191.723632812 524.624023438 184.826171875 c 128,-1,51
 523.500976562 177.928710938 523.500976562 177.928710938 522.004882812 170.999023438 c 128,-1,52
 520.508789062 164.0703125 520.508789062 164.0703125 518.643554688 157.11328125 c 128,-1,53
 516.779296875 150.157226562 516.779296875 150.157226562 514.54296875 143.166992188 c 0,54,55
 510.03515625 129.07421875 510.03515625 129.07421875 503.8984375 115.697265625 c 128,-1,56
 497.760742188 102.3203125 497.760742188 102.3203125 490.013671875 89.6923828125 c 128,-1,57
 482.266601562 77.064453125 482.266601562 77.064453125 472.91796875 65.1962890625 c 0,58,59
 444.53515625 29.1650390625 444.53515625 29.1650390625 399.361328125 7.109375 c 0,60,61
 351.090820312 -15 351.090820312 -15 284.694335938 -15 c 0,62,63
 148.368164062 -15 148.368164062 -15 84.96484375 67.8330078125 c 0,0,1
376.571289062 321.672851562 m 0,64,65
 344.65234375 357 344.65234375 357 274.958984375 357 c 0,66,67
 269.234375 357 269.234375 357 263.662109375 356.865234375 c 128,-1,68
 258.090820312 356.731445312 258.090820312 356.731445312 252.689453125 356.462890625 c 128,-1,69
 247.290039062 356.1953125 247.290039062 356.1953125 242.04296875 355.794921875 c 128,-1,70
 236.796875 355.393554688 236.796875 355.393554688 231.721679688 354.861328125 c 128,-1,71
 226.646484375 354.328125 226.646484375 354.328125 221.725585938 353.6640625 c 128,-1,72
 216.8046875 352.999023438 216.8046875 352.999023438 212.0546875 352.205078125 c 128,-1,73
 207.3046875 351.411132812 207.3046875 351.411132812 202.708007812 350.486328125 c 0,74,75
 173.149414062 344.534179688 173.149414062 344.534179688 142.528320312 333.0859375 c 0,76,77
 142.26171875 329.01171875 142.26171875 329.01171875 142.130859375 325.125 c 128,-1,78
 142 321.23828125 142 321.23828125 142 317.458984375 c 2,79,-1
 142 294.313476562 l 2,80,81
 142 283.3984375 142 283.3984375 142.399414062 272.81640625 c 128,-1,82
 142.798828125 262.233398438 142.798828125 262.233398438 143.646484375 251.997070312 c 128,-1,83
 144.509765625 241.760742188 144.509765625 241.760742188 145.799804688 231.869140625 c 128,-1,84
 147.091796875 221.977539062 147.091796875 221.977539062 148.8125 212.419921875 c 0,85,86
 155.5859375 174.791015625 155.5859375 174.791015625 171.633789062 145.711914062 c 0,87,88
 187.114257812 117.66015625 187.114257812 117.66015625 213.897460938 101.739257812 c 0,89,90
 226.9765625 93.9658203125 226.9765625 93.9658203125 244.345703125 89.982421875 c 128,-1,91
 261.715820312 86 261.715820312 86 283.612304688 86 c 0,92,93
 289.534179688 86 289.534179688 86 295.098632812 67 c 0,94,95
 300.662109375 67 300.662109375 67 305.813476562 67 c 0,96,97
 310.963867188 67.76953125 310.963867188 67.76953125 315.75 68.904296875 c 128,-1,98
 320.53515625 70.0380859375 320.53515625 70.0380859375 324.958007812 71.544921875 c 128,-1,99
 329.381835938 73.0517578125 329.381835938 73.0517578125 333.4296875 74.8974609375 c 128,-1,100
 337.477539062 76.744140625 337.477539062 76.744140625 341.208007812 78.9521484375 c 0,101,102
 352.990234375 85.92578125 352.990234375 85.92578125 362.698242188 94.7607421875 c 128,-1,103
 372.40625 103.595703125 372.40625 103.595703125 380.1640625 114.397460938 c 128,-1,104
 387.966796875 125.26171875 387.966796875 125.26171875 393.5 137.447265625 c 128,-1,105
 399.03515625 149.633789062 399.03515625 149.633789062 402.331054688 163.252929688 c 0,106,107
 409 191.145507812 409 191.145507812 409 214.858398438 c 0,108,109
 409 285.690429688 409 285.690429688 376.571289062 321.672851562 c 0,64,65
EndSplineSet
Substitution2: "'ss02' Style Set 2 lookup 15 subtable" sixsuperior
Substitution2: "'sinf' Scientific Inferiors lookup 11 subtable" six.sinf
Substitution2: "'subs' Subscript lookup 10 subtable" six.sinf
Substitution2: "'sups' Superscript lookup 9 subtable" six.sups
Substitution2: "'dnom' Denominators lookup 8 subtable" sixinferior
Substitution2: "'numr' Numerators lookup 6 subtable" sixsuperior
EndChar

StartChar: seven
Encoding: 55 55 26
Width: 550
VWidth: 1177
Flags: W
LayerCount: 2
Fore
SplineSet
136.259765625 0 m 1,0,-1
 137.025390625 10.3798828125 l 2,1,2
 143.08984375 92.642578125 143.08984375 92.642578125 168.911132812 184.0859375 c 0,3,4
 195.0546875 275.243164062 195.0546875 275.243164062 232.098632812 360.565429688 c 128,-1,5
 269.173828125 445.95703125 269.173828125 445.95703125 314.45703125 519.200195312 c 0,6,7
 352.494140625 580.72265625 352.494140625 580.72265625 389.646484375 624 c 1,8,-1
 38 624 l 1,9,-1
 28 624 l 1,10,-1
 28 634 l 1,11,-1
 28 719 l 1,12,-1
 28 729 l 1,13,-1
 38 729 l 1,14,-1
 520 729 l 1,15,-1
 530 729 l 1,16,-1
 530 719 l 1,17,-1
 530 640.219726562 l 1,18,-1
 530 636.633789062 l 1,19,-1
 527.60546875 633.905273438 l 2,20,21
 510.461914062 614.373046875 510.461914062 614.373046875 491.548828125 587.802734375 c 128,-1,22
 472.634765625 561.233398438 472.634765625 561.233398438 452.0859375 527.762695312 c 128,-1,23
 431.526367188 494.275390625 431.526367188 494.275390625 412.051757812 456.514648438 c 0,24,25
 391.137695312 418.75390625 391.137695312 418.75390625 371.243164062 376.731445312 c 128,-1,26
 351.361328125 334.733398438 351.361328125 334.733398438 334.15625 290.056640625 c 128,-1,27
 316.953125 245.380859375 316.953125 245.380859375 302.428710938 198.025390625 c 0,28,29
 273.483398438 103.640625 273.483398438 103.640625 265.98046875 9.287109375 c 2,30,-1
 265.262695312 0 l 1,31,-1
 255.181640625 0 l 1,32,-1
 147 0 l 1,33,-1
 136.259765625 0 l 1,0,-1
EndSplineSet
Substitution2: "'ss02' Style Set 2 lookup 15 subtable" sevensuperior
Substitution2: "'sinf' Scientific Inferiors lookup 11 subtable" seven.sinf
Substitution2: "'subs' Subscript lookup 10 subtable" seven.sinf
Substitution2: "'sups' Superscript lookup 9 subtable" seven.sups
Substitution2: "'dnom' Denominators lookup 8 subtable" seveninferior
Substitution2: "'numr' Numerators lookup 6 subtable" sevensuperior
EndChar

StartChar: eight
Encoding: 56 56 27
Width: 550
VWidth: 1177
Flags: W
LayerCount: 2
Fore
SplineSet
417.223632812 377.0703125 m 1,0,1
 529 317.18359375 529 317.18359375 529 194.494140625 c 0,2,3
 529 100.71484375 529 100.71484375 467.447265625 42.7880859375 c 128,-1,4
 405.803710938 -15 405.803710938 -15 272.879882812 -15 c 0,5,6
 197.336914062 -15 197.336914062 -15 146.791015625 3.2333984375 c 0,7,8
 122.853515625 12.365234375 122.853515625 12.365234375 104.032226562 24.4189453125 c 128,-1,9
 85.2099609375 36.47265625 85.2099609375 36.47265625 71.1181640625 51.4970703125 c 0,10,11
 43.109375 81.3583984375 43.109375 81.3583984375 31.4482421875 118.024414062 c 0,12,13
 20 154.018554688 20 154.018554688 20 188.618164062 c 0,14,15
 20 252.096679688 20 252.096679688 55.8115234375 301.865234375 c 0,16,17
 86.072265625 343.918945312 86.072265625 343.918945312 127.211914062 371.55078125 c 1,18,19
 35.9755859375 430.028320312 35.9755859375 430.028320312 35 540.280273438 c 0,20,21
 35 581.275390625 35 581.275390625 51.2958984375 618.661132812 c 128,-1,22
 67.5908203125 656.046875 67.5908203125 656.046875 97.556640625 684.215820312 c 128,-1,23
 127.442382812 712.310546875 127.442382812 712.310546875 172.114257812 729.09375 c 0,24,25
 195.017578125 737.508789062 195.017578125 737.508789062 220.502929688 741.69921875 c 128,-1,26
 245.98828125 746 245.98828125 746 273.959960938 746 c 0,27,28
 339.916015625 746 339.916015625 746 387.328125 727.672851562 c 0,29,30
 432.84375 709.338867188 432.84375 709.338867188 460.266601562 681.076171875 c 128,-1,31
 487.754882812 652.747070312 487.754882812 652.747070312 499.958007812 618.108398438 c 0,32,33
 505.959960938 601.071289062 505.959960938 601.071289062 508.98046875 584.311523438 c 128,-1,34
 512 567.552734375 512 567.552734375 512 551.122070312 c 0,35,36
 512 487.666015625 512 487.666015625 478.721679688 440.828125 c 0,37,38
 465.193359375 421.787109375 465.193359375 421.787109375 449.811523438 405.862304688 c 128,-1,39
 434.430664062 389.9375 434.430664062 389.9375 417.223632812 377.0703125 c 1,0,1
159.755859375 259.521484375 m 0,40,41
 134 223.557617188 134 223.557617188 134 172.618164062 c 0,42,43
 134 166.875976562 134 166.875976562 134.706054688 160.908203125 c 128,-1,44
 135.413085938 154.939453125 135.413085938 154.939453125 136.859375 148.6328125 c 128,-1,45
 138.305664062 142.325195312 138.305664062 142.325195312 140.526367188 135.780273438 c 0,46,47
 147.333984375 116.873046875 147.333984375 116.873046875 163.525390625 100.978515625 c 0,48,49
 168.854492188 95.74609375 168.854492188 95.74609375 175.403320312 91.1318359375 c 128,-1,50
 181.953125 86.517578125 181.953125 86.517578125 189.940429688 82.4287109375 c 128,-1,51
 197.928710938 78.33984375 197.928710938 78.33984375 207.2109375 74.9033203125 c 0,52,53
 234.98828125 85 234.98828125 85 273.959960938 85 c 0,54,55
 280.36328125 85 280.36328125 85 286.458007812 82.978515625 c 128,-1,56
 292.552734375 80.95703125 292.552734375 80.95703125 298.282226562 76.947265625 c 128,-1,57
 304.009765625 72.9384765625 304.009765625 72.9384765625 309.41015625 67 c 0,58,59
 314.811523438 67.7861328125 314.811523438 67.7861328125 319.87109375 68.828125 c 128,-1,60
 324.931640625 69.8701171875 324.931640625 69.8701171875 329.641601562 71.1552734375 c 128,-1,61
 334.353515625 72.439453125 334.353515625 72.439453125 338.74609375 73.974609375 c 0,62,63
 347.662109375 77.0888671875 347.662109375 77.0888671875 355.455078125 80.904296875 c 128,-1,64
 363.249023438 84.71875 363.249023438 84.71875 369.819335938 89.146484375 c 128,-1,65
 376.388671875 93.57421875 376.388671875 93.57421875 381.915039062 98.689453125 c 0,66,67
 398.728515625 114.252929688 398.728515625 114.252929688 407.087890625 133.370117188 c 0,68,69
 415 152.565429688 415 152.565429688 415 172.618164062 c 0,70,71
 415 234.586914062 415 234.586914062 367.451171875 267.588867188 c 0,72,73
 318.34765625 301.326171875 318.34765625 301.326171875 231.395507812 319.045898438 c 1,74,75
 207.849609375 306.528320312 207.849609375 306.528320312 190.24609375 291.857421875 c 128,-1,76
 172.643554688 277.186523438 172.643554688 277.186523438 159.755859375 259.521484375 c 0,40,41
390.456054688 517.4765625 m 128,-1,78
 397.116210938 538.879882812 397.116210938 538.879882812 397.116210938 566 c 0,79,80
 397.116210938 572.45703125 397.116210938 572.45703125 395.403320312 580.276367188 c 128,-1,81
 393.689453125 588.096679688 393.689453125 588.096679688 390.189453125 597.12109375 c 0,82,83
 383.350585938 614.754882812 383.350585938 614.754882812 369.125 629.28515625 c 128,-1,84
 354.94921875 643.764648438 354.94921875 643.764648438 331.036132812 653.909179688 c 128,-1,85
 307.252929688 664 307.252929688 664 273.959960938 664 c 0,86,87
 256.614257812 664 256.614257812 664 242.33203125 661.564453125 c 128,-1,88
 228.05078125 659.12890625 228.05078125 659.12890625 216.868164062 654.403320312 c 0,89,90
 193.958007812 644.721679688 193.958007812 644.721679688 179.209960938 630.16015625 c 0,91,92
 171.861328125 622.903320312 171.861328125 622.903320312 166.674804688 614.977539062 c 128,-1,93
 161.489257812 607.051757812 161.489257812 607.051757812 158.3515625 598.337890625 c 0,94,95
 155.095703125 589.296875 155.095703125 589.296875 153.489257812 580.720703125 c 128,-1,96
 151.883789062 572.143554688 151.883789062 572.143554688 151.883789062 564 c 0,97,98
 151.883789062 519.581054688 151.883789062 519.581054688 186.69921875 480.34765625 c 0,99,100
 220.602539062 442.143554688 220.602539062 442.143554688 300.350585938 423.670898438 c 1,101,102
 322.743164062 436.036132812 322.743164062 436.036132812 340.150390625 450.016601562 c 128,-1,103
 357.559570312 463.997070312 357.559570312 463.997070312 370.677734375 480.036132812 c 128,-1,77
 383.795898438 496.073242188 383.795898438 496.073242188 390.456054688 517.4765625 c 128,-1,78
EndSplineSet
Substitution2: "'ss02' Style Set 2 lookup 15 subtable" eightsuperior
Substitution2: "'sinf' Scientific Inferiors lookup 11 subtable" eight.sinf
Substitution2: "'subs' Subscript lookup 10 subtable" eight.sinf
Substitution2: "'sups' Superscript lookup 9 subtable" eight.sups
Substitution2: "'dnom' Denominators lookup 8 subtable" eightinferior
Substitution2: "'numr' Numerators lookup 6 subtable" eightsuperior
EndChar

StartChar: nine
Encoding: 57 57 28
Width: 550
VWidth: 1177
Flags: W
LayerCount: 2
Fore
SplineSet
512.205078125 563.2109375 m 128,-1,1
 528 506.5703125 528 506.5703125 528 435.16015625 c 0,2,3
 528 218.967773438 528 218.967773438 418.684570312 109.037109375 c 0,4,5
 301.26171875 -1.0068359375 301.26171875 -1.0068359375 72.046875 -2 c 2,6,-1
 62.3603515625 -2.044921875 l 1,7,-1
 62.0068359375 7.634765625 l 1,8,-1
 59.0068359375 71.87890625 l 1,9,-1
 58.6279296875 80 l 1,10,-1
 69 80 l 2,11,12
 202.64453125 80 202.64453125 80 286.971679688 133.625976562 c 0,13,14
 306.081054688 145.779296875 306.081054688 145.779296875 322.189453125 161.961914062 c 128,-1,15
 338.297851562 178.145507812 338.297851562 178.145507812 351.541015625 198.55078125 c 128,-1,16
 364.786132812 218.95703125 364.786132812 218.95703125 375.111328125 243.662109375 c 0,17,18
 385.435546875 267.838867188 385.435546875 267.838867188 392.869140625 296.28515625 c 1,19,20
 369.508789062 288.112304688 369.508789062 288.112304688 342.735351562 282.728515625 c 0,21,22
 323.513671875 278.862304688 323.513671875 278.862304688 303.611328125 276.931640625 c 128,-1,23
 283.708984375 275 283.708984375 275 263.149414062 275 c 0,24,25
 193.903320312 275 193.903320312 275 145.375976562 293.912109375 c 0,26,27
 99.818359375 312.966796875 99.818359375 312.966796875 72.77734375 345.158203125 c 0,28,29
 46 377.034179688 46 377.034179688 33.421875 418.088867188 c 0,30,31
 21 458.633789062 21 458.633789062 21 504.134765625 c 0,32,33
 21 544.784179688 21 544.784179688 34.447265625 587.326171875 c 0,34,35
 48.001953125 630.208007812 48.001953125 630.208007812 76.1689453125 664.939453125 c 128,-1,36
 104.470703125 699.838867188 104.470703125 699.838867188 149.455078125 722.830078125 c 0,37,38
 197.768554688 746 197.768554688 746 264.23046875 746 c 0,39,40
 308.825195312 746 308.825195312 746 346.559570312 736.42578125 c 0,41,42
 384.294921875 727.103515625 384.294921875 727.103515625 414.556640625 708.328125 c 0,43,44
 443.041992188 689.553710938 443.041992188 689.553710938 464.517578125 661.505859375 c 0,45,0
 496.41015625 619.8515625 496.41015625 619.8515625 512.205078125 563.2109375 c 128,-1,1
172.362304688 407.390625 m 0,46,47
 204.265625 375 204.265625 375 273.959960938 375 c 0,48,49
 313.885742188 375 313.885742188 375 347.891601562 381.532226562 c 0,50,51
 363.1796875 384.46875 363.1796875 384.46875 378.150390625 388.6171875 c 128,-1,52
 393.12109375 392.765625 393.12109375 392.765625 407.47265625 397.989257812 c 1,53,54
 408.154296875 406.3046875 408.154296875 406.3046875 408.51171875 413.538085938 c 0,55,56
 409 423.430664062 409 423.430664062 409 434.76953125 c 0,57,58
 409 478.35546875 409 478.35546875 402.1875 517.130859375 c 0,59,60
 395.43359375 555.123046875 395.43359375 555.123046875 378.9375 583.62890625 c 0,61,62
 362.967773438 611.220703125 362.967773438 611.220703125 335.134765625 627.178710938 c 0,63,64
 321.44921875 635.024414062 321.44921875 635.024414062 304.059570312 639.01171875 c 128,-1,65
 286.671875 643 286.671875 643 265.311523438 643 c 0,66,67
 230.543945312 643 230.543945312 643 207.750976562 630.458007812 c 0,68,69
 199.876953125 626.124023438 199.876953125 626.124023438 192.931640625 621.072265625 c 128,-1,70
 185.987304688 616.020507812 185.987304688 616.020507812 179.955078125 610.243164062 c 128,-1,71
 173.921875 604.46484375 173.921875 604.46484375 168.75390625 597.922851562 c 0,72,73
 160.961914062 588.059570312 160.961914062 588.059570312 155.4453125 577.100585938 c 128,-1,74
 149.927734375 566.141601562 149.927734375 566.141601562 146.645507812 553.981445312 c 0,75,76
 143.272460938 541.490234375 143.272460938 541.490234375 141.596679688 529.524414062 c 128,-1,77
 140 517.559570312 140 517.559570312 140 506.108398438 c 0,78,79
 140 483.831054688 140 483.831054688 143.672851562 465.303710938 c 128,-1,80
 147.42578125 446.77734375 147.42578125 446.77734375 154.58984375 432.469726562 c 128,-1,81
 161.75390625 418.162109375 161.75390625 418.162109375 172.362304688 407.390625 c 0,46,47
EndSplineSet
Substitution2: "'ss02' Style Set 2 lookup 15 subtable" ninesuperior
Substitution2: "'sinf' Scientific Inferiors lookup 11 subtable" nine.sinf
Substitution2: "'subs' Subscript lookup 10 subtable" nine.sinf
Substitution2: "'sups' Superscript lookup 9 subtable" nine.sups
Substitution2: "'dnom' Denominators lookup 8 subtable" nineinferior
Substitution2: "'numr' Numerators lookup 6 subtable" ninesuperior
EndChar

StartChar: less
Encoding: 60 60 31
Width: 550
VWidth: 1177
Flags: W
LayerCount: 2
Fore
SplineSet
170.27734375 299.969726562 m 1,0,-1
 520.81640625 155.243164062 l 1,1,-1
 529.435546875 151.684570312 l 1,2,-1
 526.487304688 142.837890625 l 1,3,-1
 499.487304688 61.837890625 l 1,4,-1
 496.060546875 51.5576171875 l 1,5,-1
 486.087890625 55.796875 l 1,6,-1
 32.087890625 248.796875 l 1,7,-1
 26 251.384765625 l 1,8,-1
 26 258 l 1,9,-1
 26 342 l 1,10,-1
 26 348.615234375 l 1,11,-1
 32.087890625 351.203125 l 1,12,-1
 486.087890625 544.203125 l 1,13,-1
 496.096679688 548.458007812 l 1,14,-1
 499.498046875 538.127929688 l 1,15,-1
 526.498046875 456.127929688 l 1,16,-1
 529.411132812 447.282226562 l 1,17,-1
 520.794921875 443.748046875 l 1,18,-1
 170.27734375 299.969726562 l 1,0,-1
EndSplineSet
EndChar

StartChar: equal
Encoding: 61 61 32
Width: 550
VWidth: 1177
Flags: W
LayerCount: 2
Fore
SplineSet
34 249 m 1,0,-1
 516 249 l 1,1,-1
 526 249 l 1,2,-1
 526 239 l 1,3,-1
 526 155 l 1,4,-1
 526 145 l 1,5,-1
 516 145 l 1,6,-1
 34 145 l 1,7,-1
 24 145 l 1,8,-1
 24 155 l 1,9,-1
 24 239 l 1,10,-1
 24 249 l 1,11,-1
 34 249 l 1,0,-1
34 473 m 1,12,-1
 516 473 l 1,13,-1
 526 473 l 1,14,-1
 526 463 l 1,15,-1
 526 379 l 1,16,-1
 526 369 l 1,17,-1
 516 369 l 1,18,-1
 34 369 l 1,19,-1
 24 369 l 1,20,-1
 24 379 l 1,21,-1
 24 463 l 1,22,-1
 24 473 l 1,23,-1
 34 473 l 1,12,-1
EndSplineSet
EndChar

StartChar: greater
Encoding: 62 62 33
Width: 550
VWidth: 1177
Flags: W
LayerCount: 2
Fore
SplineSet
27.9375 456.127929688 m 1,0,-1
 54.9375 538.127929688 l 1,1,-1
 58.3388671875 548.458007812 l 1,2,-1
 68.34765625 544.203125 l 1,3,-1
 522.34765625 351.203125 l 1,4,-1
 528.435546875 348.615234375 l 1,5,-1
 528.435546875 342 l 1,6,-1
 528.435546875 258 l 1,7,-1
 528.435546875 251.384765625 l 1,8,-1
 522.34765625 248.796875 l 1,9,-1
 68.34765625 55.796875 l 1,10,-1
 58.375 51.5576171875 l 1,11,-1
 54.9482421875 61.837890625 l 1,12,-1
 27.9482421875 142.837890625 l 1,13,-1
 25 151.684570312 l 1,14,-1
 33.619140625 155.243164062 l 1,15,-1
 384.158203125 299.969726562 l 1,16,-1
 33.640625 443.748046875 l 1,17,-1
 25.0244140625 447.282226562 l 1,18,-1
 27.9375 456.127929688 l 1,0,-1
EndSplineSet
EndChar

StartChar: question
Encoding: 63 63 34
Width: 550
VWidth: 1177
Flags: W
LayerCount: 2
Fore
SplineSet
188.264648438 248.545898438 m 1,0,-1
 187.264648438 270.545898438 l 1,1,-1
 187.25390625 271 l 2,2,3
 187.25390625 288.891601562 187.25390625 288.891601562 190.32421875 305.28515625 c 256,4,5
 193.393554688 321.678710938 193.393554688 321.678710938 199.592773438 336.610351562 c 256,6,7
 205.791015625 351.541992188 205.791015625 351.541992188 215.072265625 364.749023438 c 0,8,9
 241.546875 402.42578125 241.546875 402.42578125 273.126953125 434.514648438 c 0,10,11
 303.79296875 465.674804688 303.79296875 465.674804688 329.493164062 497.305664062 c 0,12,13
 353.25390625 526.55078125 353.25390625 526.55078125 353.25390625 564 c 0,14,15
 353.25390625 584.724609375 353.25390625 584.724609375 346.9296875 600.703125 c 256,16,17
 340.604492188 616.681640625 340.604492188 616.681640625 327.875976562 628.740234375 c 256,18,19
 315.260742188 640.692382812 315.260742188 640.692382812 296.232421875 646.846679688 c 256,20,21
 277.204101562 653 277.204101562 653 251.25390625 653 c 0,22,23
 218.431640625 653 218.431640625 653 186.076171875 645.2734375 c 0,24,25
 170.015625 641.4375 170.015625 641.4375 153.500976562 634.928710938 c 256,26,27
 136.987304688 628.419921875 136.987304688 628.419921875 120.024414062 619.211914062 c 2,28,-1
 109.790039062 613.655273438 l 1,29,-1
 105.844726562 624.61328125 l 1,30,-1
 78.8447265625 699.61328125 l 1,31,-1
 76 707.515625 l 1,32,-1
 83.29296875 711.682617188 l 2,33,34
 119.466796875 732.353515625 119.466796875 732.353515625 165.778320312 744.188476562 c 0,35,36
 181.205078125 748.130859375 181.205078125 748.130859375 197.310546875 750.7578125 c 256,37,38
 213.416015625 753.383789062 213.416015625 753.383789062 230.140625 754.692382812 c 256,39,40
 246.865234375 756 246.865234375 756 264.25390625 756 c 0,41,42
 295.158203125 756 295.158203125 756 320.61328125 751.71484375 c 256,43,44
 346.067382812 747.430664062 346.067382812 747.430664062 366.236328125 738.672851562 c 0,45,46
 386.139648438 730.030273438 386.139648438 730.030273438 402.171875 718.901367188 c 256,47,48
 418.203125 707.772460938 418.203125 707.772460938 430.251953125 694.116210938 c 0,49,50
 454.217773438 666.955078125 454.217773438 666.955078125 463.844726562 634.330078125 c 0,51,52
 473.25390625 602.444335938 473.25390625 602.444335938 473.25390625 572 c 0,53,54
 473.25390625 553.456054688 473.25390625 553.456054688 469.631835938 536.689453125 c 256,55,56
 466.010742188 519.922851562 466.010742188 519.922851562 458.73046875 505.09375 c 0,57,58
 444.747070312 476.609375 444.747070312 476.609375 424.0625 450.752929688 c 0,59,60
 417.24609375 442.232421875 417.24609375 442.232421875 410.03125 434.052734375 c 256,61,62
 402.81640625 425.872070312 402.81640625 425.872070312 395.206054688 418.033203125 c 256,63,64
 387.594726562 410.1953125 387.594726562 410.1953125 379.587890625 402.700195312 c 0,65,66
 368.079101562 391.92578125 368.079101562 391.92578125 357.43359375 380.545898438 c 256,67,68
 346.788085938 369.166015625 346.788085938 369.166015625 337.000976562 357.17578125 c 256,69,70
 327.366210938 345.374023438 327.366210938 345.374023438 319.311523438 332.750976562 c 256,71,72
 311.255859375 320.126953125 311.255859375 320.126953125 304.76171875 306.657226562 c 0,73,74
 298.51171875 293.6953125 298.51171875 293.6953125 295.3828125 279.32421875 c 256,75,76
 292.25390625 264.953125 292.25390625 264.953125 292.25390625 249 c 2,77,-1
 292.25390625 239 l 1,78,-1
 282.25390625 239 l 1,79,-1
 198.25390625 239 l 1,80,-1
 188.698242188 239 l 1,81,-1
 188.264648438 248.545898438 l 1,0,-1
249.25390625 -24 m 0,82,83
 212.307617188 -24 212.307617188 -24 186.424804688 0.1943359375 c 0,84,85
 160.25390625 24.6591796875 160.25390625 24.6591796875 160.25390625 66 c 0,86,87
 160.25390625 86.26953125 160.25390625 86.26953125 166.802734375 102.926757812 c 256,88,89
 173.352539062 119.584960938 173.352539062 119.584960938 186.424804688 131.805664062 c 0,90,91
 212.307617188 156 212.307617188 156 249.25390625 156 c 0,92,93
 285.266601562 156 285.266601562 156 311.166015625 131.2265625 c 256,94,95
 337.25390625 106.272460938 337.25390625 106.272460938 337.25390625 66 c 0,96,97
 337.25390625 24.6591796875 337.25390625 24.6591796875 311.083007812 0.1943359375 c 0,98,99
 285.200195312 -24 285.200195312 -24 249.25390625 -24 c 0,82,83
EndSplineSet
EndChar

StartChar: at
Encoding: 64 64 35
Width: 550
VWidth: 1177
Flags: W
LayerCount: 2
Fore
SplineSet
532.713867188 64.71484375 m 2,0,1
 525.504882812 61.83203125 525.504882812 61.83203125 518.23046875 59.296875 c 256,2,3
 510.955078125 56.7626953125 510.955078125 56.7626953125 503.61328125 54.576171875 c 256,4,5
 496.271484375 52.390625 496.271484375 52.390625 488.866210938 50.5546875 c 256,6,7
 481.461914062 48.71875 481.461914062 48.71875 473.991210938 47.232421875 c 256,8,9
 466.520507812 45.74609375 466.520507812 45.74609375 458.990234375 44.611328125 c 0,10,11
 440.395507812 41.8095703125 440.395507812 41.8095703125 423.154296875 40.4052734375 c 256,12,13
 405.913085938 39 405.913085938 39 390 39 c 0,14,15
 347.099609375 39 347.099609375 39 309.831054688 53.697265625 c 0,16,17
 272.264648438 68.5126953125 272.264648438 68.5126953125 244.237304688 98.1259765625 c 256,18,19
 216.201171875 127.749023438 216.201171875 127.749023438 201.001953125 173.870117188 c 0,20,21
 186 219.39453125 186 219.39453125 186 283 c 0,22,23
 186 339.602539062 186 339.602539062 200.776367188 383.1484375 c 256,24,25
 215.551757812 426.694335938 215.551757812 426.694335938 245.428710938 456.571289062 c 256,26,27
 275.107421875 486.25 275.107421875 486.25 313.940429688 501.125 c 256,28,29
 352.772460938 516 352.772460938 516 400 516 c 0,30,31
 409.27734375 516 409.27734375 516 418.5546875 515.484375 c 0,32,33
 422.162109375 515.284179688 422.162109375 515.284179688 425.821289062 515.001953125 c 1,34,35
 424.73828125 547.017578125 424.73828125 547.017578125 417.587890625 572.029296875 c 256,36,37
 410.436523438 597.040039062 410.436523438 597.040039062 397.3125 615.758789062 c 0,38,39
 369.798828125 655 369.798828125 655 308 655 c 0,40,41
 269.689453125 655 269.689453125 655 237.515625 636.348632812 c 256,42,43
 205.397460938 617.729492188 205.397460938 617.729492188 182.237304688 576.134765625 c 0,44,45
 158.495117188 533.497070312 158.495117188 533.497070312 144.802734375 465.525390625 c 0,46,47
 131 397.002929688 131 397.002929688 131 299 c 0,48,49
 131 226.00390625 131 226.00390625 144.80078125 157.98828125 c 0,50,51
 151.650390625 124.224609375 151.650390625 124.224609375 162.370117188 94.8701171875 c 256,52,53
 173.088867188 65.5146484375 173.088867188 65.5146484375 187.640625 40.533203125 c 0,54,55
 216.494140625 -8.998046875 216.494140625 -8.998046875 261.108398438 -39.220703125 c 0,56,57
 305.068359375 -69 305.068359375 -69 367 -69 c 0,58,59
 412.532226562 -69 412.532226562 -69 461.126953125 -54.421875 c 2,60,-1
 472.4375 -51.0283203125 l 1,61,-1
 473.920898438 -62.744140625 l 1,62,-1
 483.920898438 -141.744140625 l 1,63,-1
 485.02734375 -150.482421875 l 1,64,-1
 476.499023438 -152.682617188 l 2,65,66
 413.26953125 -169 413.26953125 -169 358 -169 c 0,67,68
 269.186523438 -169 269.186523438 -169 203.78515625 -129.033203125 c 0,69,70
 138.861328125 -89.3564453125 138.861328125 -89.3564453125 97.1279296875 -25.46875 c 0,71,72
 55.703125 37.947265625 55.703125 37.947265625 35.294921875 120.088867188 c 0,73,74
 28.53125 147.3125 28.53125 147.3125 24.021484375 174.826171875 c 256,75,76
 19.5107421875 202.340820312 19.5107421875 202.340820312 17.255859375 230.13671875 c 256,77,78
 15 257.931640625 15 257.931640625 15 286 c 0,79,80
 15 408.23828125 15 408.23828125 37.3017578125 496.938476562 c 0,81,82
 44.755859375 526.586914062 44.755859375 526.586914062 54.017578125 552.63671875 c 256,83,84
 63.279296875 578.686523438 63.279296875 578.686523438 74.4755859375 601.368164062 c 256,85,86
 85.6708984375 624.049804688 85.6708984375 624.049804688 98.7490234375 643.149414062 c 0,87,88
 138.165039062 700.717773438 138.165039062 700.717773438 191.389648438 728.374023438 c 256,89,90
 244.556640625 756 244.556640625 756 305 756 c 0,91,92
 340.8828125 756 340.8828125 756 372.00390625 747.79296875 c 256,93,94
 403.124023438 739.5859375 403.124023438 739.5859375 429.390625 723.096679688 c 256,95,96
 455.657226562 706.606445312 455.657226562 706.606445312 476.615234375 681.981445312 c 0,97,98
 507.93359375 645.182617188 507.93359375 645.182617188 523.466796875 594.828125 c 256,99,100
 539 544.47265625 539 544.47265625 539 481 c 2,101,-1
 539 74 l 1,102,-1
 539 67.2294921875 l 1,103,-1
 532.713867188 64.71484375 l 2,0,1
300 283 m 0,104,105
 300 259.553710938 300 259.553710938 302.938476562 233.104492188 c 0,106,107
 305.76171875 207.696289062 305.76171875 207.696289062 315.596679688 186.153320312 c 0,108,109
 325.134765625 165.260742188 325.134765625 165.260742188 342.842773438 150.73046875 c 0,110,111
 348.278320312 146.271484375 348.278320312 146.271484375 355.116210938 143.254882812 c 256,112,113
 361.954101562 140.23828125 361.954101562 140.23828125 370.75390625 138.619140625 c 256,114,115
 379.552734375 137 379.552734375 137 390 137 c 0,116,117
 391.639648438 137 391.639648438 137 393.407226562 137.055664062 c 256,118,119
 395.174804688 137.111328125 395.174804688 137.111328125 397.09375 137.223632812 c 256,120,121
 399.01171875 137.336914062 399.01171875 137.336914062 401.048828125 137.506835938 c 256,122,123
 403.0859375 137.67578125 403.0859375 137.67578125 405.2734375 137.905273438 c 256,124,125
 407.461914062 138.135742188 407.461914062 138.135742188 409.759765625 138.422851562 c 0,126,127
 417.563476562 139.3984375 417.563476562 139.3984375 426 141.075195312 c 1,128,-1
 426 414.747070312 l 1,129,130
 419.524414062 416.521484375 419.524414062 416.521484375 414.453125 417.0546875 c 0,131,132
 405.475585938 418 405.475585938 418 396 418 c 0,133,134
 390.143554688 418 390.143554688 418 384.694335938 417.459960938 c 256,135,136
 379.24609375 416.918945312 379.24609375 416.918945312 374.16796875 415.829101562 c 256,137,138
 369.08984375 414.739257812 369.08984375 414.739257812 364.391601562 413.106445312 c 256,139,140
 359.693359375 411.473632812 359.693359375 411.473632812 355.333984375 409.27734375 c 256,141,142
 350.974609375 407.08203125 350.974609375 407.08203125 346.966796875 404.340820312 c 256,143,144
 342.959960938 401.600585938 342.959960938 401.600585938 339.259765625 398.283203125 c 256,145,146
 335.559570312 394.965820312 335.559570312 394.965820312 332.18359375 391.102539062 c 256,147,148
 328.807617188 387.240234375 328.807617188 387.240234375 325.70703125 382.786132812 c 0,149,150
 312.98046875 364.506835938 312.98046875 364.506835938 306.490234375 339.610351562 c 256,151,152
 300 314.712890625 300 314.712890625 300 283 c 0,104,105
EndSplineSet
Substitution2: "'case' Case-Sensitive Forms lookup 17 subtable" At
EndChar

StartChar: A
Encoding: 65 65 36
Width: 550
VWidth: 1177
Flags: W
LayerCount: 2
Fore
SplineSet
444.768554688 0 m 1,0,-1
 442.879882812 7.7548828125 l 1,1,-1
 398.2734375 191 l 1,2,-1
 119.3046875 191 l 1,3,-1
 76.748046875 7.8525390625 l 1,4,-1
 74.927734375 0 l 1,5,-1
 66.8876953125 0 l 1,6,-1
 -32.1123046875 0 l 1,7,-1
 -45 0 l 1,8,-1
 -41.798828125 12.1474609375 l 2,9,10
 -21.779296875 88.12109375 -21.779296875 88.12109375 2.7353515625 176.236328125 c 128,-1,11
 27.27734375 264.452148438 27.27734375 264.452148438 56.3193359375 357.513671875 c 0,12,13
 85.9384765625 450.546875 85.9384765625 450.546875 119.260742188 544.063476562 c 0,14,15
 152.662109375 637.802734375 152.662109375 637.802734375 190.86328125 722.823242188 c 2,16,-1
 193.564453125 729 l 1,17,-1
 200.627929688 729 l 1,18,-1
 327.430664062 729 l 1,19,-1
 334.646484375 729 l 1,20,-1
 337.272460938 722.639648438 l 2,21,22
 373.31640625 637.709960938 373.31640625 637.709960938 406.170898438 544.016601562 c 128,-1,23
 438.97265625 450.477539062 438.97265625 450.477539062 467.483398438 357.421875 c 0,24,25
 495.51171875 264.401367188 495.51171875 264.401367188 520.040039062 176.235351562 c 128,-1,26
 544.5546875 88.119140625 544.5546875 88.119140625 564.57421875 12.1474609375 c 2,27,-1
 567.775390625 0 l 1,28,-1
 554.887695312 0 l 1,29,-1
 452.887695312 0 l 1,30,-1
 444.768554688 0 l 1,0,-1
284.990234375 547.942382812 m 128,-1,32
 272.073242188 583.75 272.073242188 583.75 259.98046875 614.966796875 c 1,33,34
 247.641601562 582.162109375 247.641601562 582.162109375 234.774414062 546.100585938 c 128,-1,35
 221.90625 510.040039062 221.90625 510.040039062 208.041015625 469.42578125 c 0,36,37
 176.877929688 378.142578125 176.877929688 378.142578125 147.989257812 281 c 1,38,-1
 369.815429688 281 l 1,39,40
 360.673828125 314.467773438 360.673828125 314.467773438 351.212890625 346.631835938 c 128,-1,41
 341.751953125 378.796875 341.751953125 378.796875 331.884765625 409.971679688 c 128,-1,42
 322.017578125 441.147460938 322.017578125 441.147460938 311.55859375 471.939453125 c 0,43,31
 297.90625 512.135742188 297.90625 512.135742188 284.990234375 547.942382812 c 128,-1,32
EndSplineSet
EndChar

StartChar: B
Encoding: 66 66 37
Width: 550
VWidth: 1177
Flags: W
LayerCount: 2
Fore
SplineSet
455.740234375 50.140625 m 0,0,1
 381.438476562 -6 381.438476562 -6 213.34375 -6 c 0,2,3
 203.479492188 -6 203.479492188 -6 192.286132812 -5.7470703125 c 128,-1,4
 181.094726562 -5.4951171875 181.094726562 -5.4951171875 168.5546875 -4.990234375 c 0,5,6
 143.46875 -3.9814453125 143.46875 -3.9814453125 119.169921875 -1.9658203125 c 0,7,8
 111.063476562 -1.2900390625 111.063476562 -1.2900390625 103.012695312 -0.4453125 c 128,-1,9
 94.9619140625 0.3994140625 94.9619140625 0.3994140625 86.96484375 1.4130859375 c 128,-1,10
 78.9677734375 2.4267578125 78.9677734375 2.4267578125 71.02734375 3.609375 c 0,11,12
 46.8427734375 7.1142578125 46.8427734375 7.1142578125 29.1787109375 12.169921875 c 2,13,-1
 22 14.2236328125 l 1,14,-1
 22 21.5048828125 l 1,15,-1
 22 708.495117188 l 1,16,-1
 22 715.891601562 l 1,17,-1
 29.3232421875 717.87109375 l 2,18,19
 47.8857421875 722.887695312 47.8857421875 722.887695312 70.962890625 726.380859375 c 0,20,21
 93.8232421875 729.9375 93.8232421875 729.9375 118.686523438 731.966796875 c 128,-1,22
 143.482421875 733.981445312 143.482421875 733.981445312 168.00390625 734.990234375 c 128,-1,23
 192.56640625 736 192.56640625 736 213.34375 736 c 0,24,25
 233.131835938 736 233.131835938 736 252.137695312 734.92578125 c 128,-1,26
 271.14453125 733.852539062 271.14453125 733.852539062 289.418945312 731.697265625 c 128,-1,27
 307.692382812 729.541992188 307.692382812 729.541992188 325.182617188 726.305664062 c 0,28,29
 338.444335938 723.852539062 338.444335938 723.852539062 350.829101562 720.58203125 c 128,-1,30
 363.21484375 717.400390625 363.21484375 717.400390625 374.766601562 713.409179688 c 128,-1,31
 386.317382812 709.416992188 386.317382812 709.416992188 397.017578125 704.600585938 c 128,-1,32
 407.716796875 699.784179688 407.716796875 699.784179688 416.876953125 694.159179688 c 0,33,34
 435.1796875 682.799804688 435.1796875 682.799804688 449.583984375 667.61328125 c 128,-1,35
 463.989257812 652.42578125 463.989257812 652.42578125 474.3203125 633.606445312 c 128,-1,36
 484.743164062 614.619140625 484.743164062 614.619140625 489.87109375 591.198242188 c 128,-1,37
 495 567.776367188 495 567.776367188 495 539.971679688 c 0,38,39
 495 531.034179688 495 531.034179688 494.0546875 522.30078125 c 128,-1,40
 493.109375 513.568359375 493.109375 513.568359375 491.216796875 505.041015625 c 128,-1,41
 489.323242188 496.514648438 489.323242188 496.514648438 486.487304688 488.233398438 c 0,42,43
 484.791992188 483.286132812 484.791992188 483.286132812 482.798828125 478.45703125 c 128,-1,44
 480.8046875 473.627929688 480.8046875 473.627929688 478.515625 468.926757812 c 128,-1,45
 476.2265625 464.224609375 476.2265625 464.224609375 473.642578125 459.647460938 c 128,-1,46
 471.05859375 455.0703125 471.05859375 455.0703125 468.181640625 450.623046875 c 128,-1,47
 465.305664062 446.17578125 465.305664062 446.17578125 462.137695312 441.859375 c 0,48,49
 446.3671875 420.373046875 446.3671875 420.373046875 425.842773438 403.984375 c 0,50,51
 422.677734375 401.456054688 422.677734375 401.456054688 418.881835938 398.765625 c 128,-1,52
 415.0859375 396.07421875 415.0859375 396.07421875 411.56640625 393.8125 c 128,-1,53
 407.969726562 391.55078125 407.969726562 391.55078125 404.696289062 389.818359375 c 1,54,55
 429.099609375 380.653320312 429.099609375 380.653320312 448.97265625 367.353515625 c 128,-1,56
 468.844726562 354.0546875 468.844726562 354.0546875 485.895507812 335.822265625 c 0,57,58
 507.458007812 312.764648438 507.458007812 312.764648438 518.229492188 282.87109375 c 128,-1,59
 529 252.977539062 529 252.977539062 529 216.865234375 c 0,60,61
 529 107.076171875 529 107.076171875 455.740234375 50.140625 c 0,0,1
233.8828125 330 m 2,62,-1
 138 330 l 1,63,-1
 138 98.40234375 l 1,64,65
 145.313476562 97.689453125 145.313476562 97.689453125 156.391601562 96.88671875 c 0,66,67
 182.436523438 95 182.436523438 95 220.911132812 95 c 0,68,69
 259.946289062 95 259.946289062 95 295.213867188 100.604492188 c 0,70,71
 329.41015625 106.040039062 329.41015625 106.040039062 355.771484375 120.434570312 c 0,72,73
 368.77734375 127.536132812 368.77734375 127.536132812 379.202148438 136.787109375 c 128,-1,74
 389.627929688 146.038085938 389.627929688 146.038085938 397.631835938 157.578125 c 0,75,76
 405.368164062 168.734375 405.368164062 168.734375 409.3203125 183.51171875 c 0,77,78
 413 198.2890625 413 198.2890625 413 216.81640625 c 0,79,80
 413 249.603515625 413 249.603515625 398.700195312 270.797851562 c 0,81,82
 383.860351562 292.3046875 383.860351562 292.3046875 360.171875 305.004882812 c 0,83,84
 335.831054688 318.053710938 335.831054688 318.053710938 303.075195312 323.95703125 c 0,85,86
 269.549804688 330 269.549804688 330 233.8828125 330 c 2,62,-1
138 632.002929688 m 1,87,-1
 138 430 l 1,88,-1
 210.1015625 430 l 2,89,90
 240.361328125 430 240.361328125 430 271.18359375 436.095703125 c 0,91,92
 281.3203125 438.099609375 281.3203125 438.099609375 290.741210938 440.875976562 c 128,-1,93
 300.162109375 443.653320312 300.162109375 443.653320312 308.802734375 447.168945312 c 128,-1,94
 317.443359375 450.684570312 317.443359375 450.684570312 325.396484375 454.961914062 c 0,95,96
 348.33984375 467.302734375 348.33984375 467.302734375 361.98828125 488.629882812 c 0,97,98
 368.657226562 499.05078125 368.657226562 499.05078125 372.073242188 512.456054688 c 128,-1,99
 375.490234375 525.862304688 375.490234375 525.862304688 375.490234375 542.459960938 c 0,100,101
 375.490234375 573.370117188 375.490234375 573.370117188 363.338867188 594.63671875 c 128,-1,102
 351.12890625 616.004882812 351.12890625 616.004882812 330.135742188 629.296875 c 0,103,104
 327.065429688 631.240234375 327.065429688 631.240234375 323.875 633.025390625 c 128,-1,105
 320.684570312 634.810546875 320.684570312 634.810546875 317.356445312 636.443359375 c 128,-1,106
 314.028320312 638.077148438 314.028320312 638.077148438 310.577148438 639.551757812 c 128,-1,107
 307.125 641.025390625 307.125 641.025390625 303.53125 642.346679688 c 128,-1,108
 299.939453125 643.66796875 299.939453125 643.66796875 296.216796875 644.830078125 c 128,-1,109
 292.495117188 645.9921875 292.495117188 645.9921875 288.62890625 647 c 0,110,111
 284.76171875 645.346679688 284.76171875 645.346679688 280.762695312 643.954101562 c 0,112,113
 266.493164062 638.985351562 266.493164062 638.985351562 251.263671875 636.493164062 c 128,-1,114
 236.033203125 634 236.033203125 634 219.830078125 634 c 0,115,116
 186.440429688 634 186.440429688 634 162.237304688 633.525390625 c 0,117,118
 154.905273438 633.381835938 154.905273438 633.381835938 148.546875 632.971679688 c 128,-1,119
 142.188476562 632.561523438 142.188476562 632.561523438 138 632.002929688 c 1,87,-1
EndSplineSet
EndChar

StartChar: C
Encoding: 67 67 38
Width: 550
VWidth: 1177
Flags: W
LayerCount: 2
Fore
SplineSet
540.998046875 36.435546875 m 1,0,-1
 534.051757812 32.3701171875 l 2,1,2
 491.759765625 7.61328125 491.759765625 7.61328125 443.801757812 -3.7314453125 c 0,3,4
 419.880859375 -9.3720703125 419.880859375 -9.3720703125 392.541015625 -12.185546875 c 128,-1,5
 365.202148438 -15 365.202148438 -15 336.1484375 -15 c 0,6,7
 312.223632812 -15 312.223632812 -15 289.474609375 -12.3662109375 c 128,-1,8
 266.723632812 -9.732421875 266.723632812 -9.732421875 245.10546875 -4.4453125 c 128,-1,9
 223.487304688 0.8427734375 223.487304688 0.8427734375 203.115234375 8.7744140625 c 0,10,11
 141.69921875 32.0322265625 141.69921875 32.0322265625 99.4189453125 79.00390625 c 0,12,13
 58.099609375 125.723632812 58.099609375 125.723632812 34.48046875 197.141601562 c 0,14,15
 11 268.138671875 11 268.138671875 11 364.984375 c 0,16,17
 11 457.041015625 11 457.041015625 35.5263671875 527.614257812 c 0,18,19
 60.154296875 598.478515625 60.154296875 598.478515625 102.935546875 646.607421875 c 0,20,21
 124.364257812 670.713867188 124.364257812 670.713867188 150.879882812 689.120117188 c 0,22,23
 177.88671875 707.526367188 177.88671875 707.526367188 208.754882812 720.118164062 c 0,24,25
 270.470703125 746 270.470703125 746 339.370117188 746 c 0,26,27
 363.71484375 746 363.71484375 746 388.313476562 742.912109375 c 128,-1,28
 412.913085938 739.82421875 412.913085938 739.82421875 436.576171875 733.662109375 c 0,29,30
 482.986328125 721.286132812 482.986328125 721.286132812 528.23046875 693.5234375 c 2,31,-1
 535.1015625 689.306640625 l 1,32,-1
 532.438476562 681.696289062 l 1,33,-1
 504.438476562 601.696289062 l 1,34,-1
 500.453125 590.309570312 l 1,35,-1
 490.002929688 596.337890625 l 2,36,37
 451.987304688 618.270507812 451.987304688 618.270507812 416.419921875 629.134765625 c 0,38,39
 378.556640625 640 378.556640625 640 343.666992188 640 c 0,40,41
 333.833984375 640 333.833984375 640 324.4296875 640.439453125 c 128,-1,42
 315.024414062 640.87890625 315.024414062 640.87890625 306.0625 641.75390625 c 128,-1,43
 297.100585938 642.62890625 297.100585938 642.62890625 288.534179688 643.942382812 c 128,-1,44
 279.96875 645.255859375 279.96875 645.255859375 271.825195312 647 c 0,45,46
 263.681640625 643.844726562 263.681640625 643.844726562 255.90234375 639.896484375 c 0,47,48
 216.7578125 620.029296875 216.7578125 620.029296875 189.201171875 583.467773438 c 0,49,50
 161.26953125 546.407226562 161.26953125 546.407226562 145.65234375 493.608398438 c 0,51,52
 137.806640625 467.083007812 137.806640625 467.083007812 133.865234375 437.387695312 c 128,-1,53
 130 407.692382812 130 407.692382812 130 374.83203125 c 0,54,55
 130 301.288085938 130 301.288085938 146.690429688 247.177734375 c 0,56,57
 155.033203125 220.250976562 155.033203125 220.250976562 166.418945312 198.099609375 c 128,-1,58
 177.803710938 175.94921875 177.803710938 175.94921875 192.15234375 158.546875 c 0,59,60
 220.55859375 124.090820312 220.55859375 124.090820312 260.48046875 107.6328125 c 0,61,62
 300.828125 91 300.828125 91 347.962890625 91 c 0,63,64
 383.294921875 91 383.294921875 91 422.817382812 99.2587890625 c 0,65,66
 441.013671875 103.329101562 441.013671875 103.329101562 459.815429688 110.921875 c 128,-1,67
 478.6171875 118.515625 478.6171875 118.515625 498.015625 129.668945312 c 2,68,-1
 508.700195312 135.813476562 l 1,69,-1
 512.510742188 124.090820312 l 1,70,-1
 538.510742188 44.0908203125 l 1,71,-1
 540.998046875 36.435546875 l 1,0,-1
EndSplineSet
EndChar

StartChar: D
Encoding: 68 68 39
Width: 550
VWidth: 1177
Flags: W
LayerCount: 2
Fore
SplineSet
509.911132812 534.705078125 m 0,0,1
 536 463.985351562 536 463.985351562 536 364.932617188 c 0,2,3
 536 264.90625 536 264.90625 509.911132812 194.186523438 c 0,4,5
 483.654296875 123.010742188 483.654296875 123.010742188 438.071289062 78.6318359375 c 0,6,7
 415.201171875 56.4228515625 415.201171875 56.4228515625 385.943359375 40.2314453125 c 128,-1,8
 356.68359375 24.041015625 356.68359375 24.041015625 322.944335938 13.9638671875 c 0,9,10
 256.107421875 -6 256.107421875 -6 177.868164062 -6 c 0,11,12
 137.895507812 -6 137.895507812 -6 100.546875 -1.4267578125 c 128,-1,13
 63.19921875 3.025390625 63.19921875 3.025390625 25.63671875 11.9208984375 c 2,14,-1
 18 13.7294921875 l 1,15,-1
 18 21.3818359375 l 1,16,-1
 18 708.739257812 l 1,17,-1
 18 716.390625 l 1,18,-1
 25.63671875 718.19921875 l 2,19,20
 100.80078125 736 100.80078125 736 177.868164062 736 c 0,21,22
 216.926757812 736 216.926757812 736 253.209960938 730.87890625 c 128,-1,23
 289.4921875 725.892578125 289.4921875 725.892578125 322.944335938 715.901367188 c 0,24,25
 356.700195312 705.818359375 356.700195312 705.818359375 385.971679688 689.495117188 c 128,-1,26
 415.2421875 673.170898438 415.2421875 673.170898438 438.111328125 650.70703125 c 0,27,28
 483.6640625 605.853515625 483.6640625 605.853515625 509.911132812 534.705078125 c 0,0,1
134 630.44921875 m 1,29,-1
 134 99.767578125 l 1,30,31
 160.13671875 97.2138671875 160.13671875 97.2138671875 187.392578125 98 c 0,32,33
 242.668945312 98 242.668945312 98 285.514648438 112.778320312 c 0,34,35
 327.551757812 127.27734375 327.551757812 127.27734375 355.912109375 158.538085938 c 0,36,37
 384.681640625 190.250976562 384.681640625 190.250976562 400.780273438 241.353515625 c 0,38,39
 417 293.088867188 417 293.088867188 417 365.017578125 c 0,40,41
 417 504.256835938 417 504.256835938 358.079101562 569.075195312 c 0,42,43
 299.89453125 633 299.89453125 633 184.333007812 633 c 0,44,45
 168.529296875 633 168.529296875 633 152.724609375 632.057617188 c 0,46,47
 142.85546875 631.46875 142.85546875 631.46875 134 630.44921875 c 1,29,-1
EndSplineSet
EndChar

StartChar: E
Encoding: 69 69 40
Width: 550
VWidth: 1177
Flags: W
LayerCount: 2
Fore
SplineSet
52 0 m 1,0,-1
 52 10 l 1,1,-1
 52 719 l 1,2,-1
 52 729 l 1,3,-1
 62 729 l 1,4,-1
 491 729 l 1,5,-1
 501 729 l 1,6,-1
 501 719 l 1,7,-1
 501 654.826171875 l 1,8,-1
 501 647 l 1,9,-1
 491 647 l 1,10,-1
 169 647 l 1,11,-1
 169 433 l 1,12,-1
 452 433 l 1,13,-1
 462 433 l 1,14,-1
 462 423 l 1,15,-1
 462 340 l 1,16,-1
 462 330 l 1,17,-1
 452 330 l 1,18,-1
 169 330 l 1,19,-1
 169 82 l 1,20,-1
 517 82 l 1,21,-1
 527 82 l 1,22,-1
 527 74.173828125 l 1,23,-1
 527 10 l 1,24,-1
 527 0 l 1,25,-1
 517 0 l 1,26,-1
 62 0 l 1,27,-1
 52 0 l 1,0,-1
EndSplineSet
EndChar

StartChar: F
Encoding: 70 70 41
Width: 550
VWidth: 1177
Flags: W
LayerCount: 2
Fore
SplineSet
59 0 m 1,0,-1
 59 10 l 1,1,-1
 59 719 l 1,2,-1
 59 729 l 1,3,-1
 69 729 l 1,4,-1
 503 729 l 1,5,-1
 513 729 l 1,6,-1
 513 719 l 1,7,-1
 513 654.826171875 l 1,8,-1
 513 647 l 1,9,-1
 503 647 l 1,10,-1
 176 647 l 1,11,-1
 176 429 l 1,12,-1
 465 429 l 1,13,-1
 475 429 l 1,14,-1
 475 419 l 1,15,-1
 475 338 l 1,16,-1
 475 328 l 1,17,-1
 465 328 l 1,18,-1
 176 328 l 1,19,-1
 176 10 l 1,20,-1
 176 0 l 1,21,-1
 166 0 l 1,22,-1
 69 0 l 1,23,-1
 59 0 l 1,0,-1
EndSplineSet
EndChar

StartChar: G
Encoding: 71 71 42
Width: 550
VWidth: 1177
Flags: W
LayerCount: 2
Fore
SplineSet
419 379 m 1,0,-1
 429 379 l 1,1,-1
 526 379 l 1,2,-1
 536 379 l 1,3,-1
 536 369 l 1,4,-1
 536 28 l 1,5,-1
 536 20.99609375 l 1,6,-1
 529.416992188 18.6025390625 l 2,7,8
 506.940429688 10.4287109375 506.940429688 10.4287109375 456.948242188 -2.1953125 c 0,9,10
 405.485351562 -15 405.485351562 -15 330.959960938 -15 c 0,11,12
 257.555664062 -15 257.555664062 -15 197.284179688 10.23828125 c 0,13,14
 136.8125 35.560546875 136.8125 35.560546875 97.1279296875 84.6201171875 c 0,15,16
 57.97265625 133.270507812 57.97265625 133.270507812 35.9287109375 204.134765625 c 0,17,18
 14 274.6328125 14 274.6328125 14 364.663085938 c 0,19,20
 14 455.803710938 14 455.803710938 38.0126953125 525.93359375 c 0,21,22
 50.0380859375 561.052734375 50.0380859375 561.052734375 66.6201171875 590.834960938 c 128,-1,23
 83.203125 620.618164062 83.203125 620.618164062 104.36328125 644.986328125 c 0,24,25
 147.739257812 693.815429688 147.739257812 693.815429688 207.97265625 719.54296875 c 0,26,27
 268.275390625 746 268.275390625 746 337.41796875 746 c 0,28,29
 381.501953125 746 381.501953125 746 415.879882812 739.817382812 c 0,30,31
 447.8125 733.641601562 447.8125 733.641601562 470.176757812 724.799804688 c 128,-1,32
 492.392578125 716.016601562 492.392578125 716.016601562 507.557617188 707.126953125 c 0,33,34
 509.671875 705.887695312 509.671875 705.887695312 511.611328125 704.732421875 c 128,-1,35
 513.549804688 703.578125 513.549804688 703.578125 515.362304688 702.479492188 c 128,-1,36
 517.174804688 701.379882812 517.174804688 701.379882812 518.823242188 700.358398438 c 128,-1,37
 520.470703125 699.3359375 520.470703125 699.3359375 521.990234375 698.369140625 c 128,-1,38
 523.509765625 697.40234375 523.509765625 697.40234375 524.876953125 696.504882812 c 128,-1,39
 526.244140625 695.606445312 526.244140625 695.606445312 527.48046875 694.762695312 c 128,-1,40
 528.716796875 693.919921875 528.716796875 693.919921875 529.8125 693.137695312 c 2,41,-1
 536.171875 688.594726562 l 1,42,-1
 533.30078125 681.326171875 l 1,43,-1
 501.30078125 600.326171875 l 1,44,-1
 496.396484375 587.912109375 l 1,45,-1
 485.860351562 596.106445312 l 2,46,47
 477.318359375 602.750976562 477.318359375 602.750976562 467.6484375 608.618164062 c 128,-1,48
 457.978515625 614.484375 457.978515625 614.484375 447.07421875 619.6171875 c 128,-1,49
 436.169921875 624.750976562 436.169921875 624.750976562 424.11328125 629.090820312 c 0,50,51
 386.125 642 386.125 642 343.875976562 642 c 0,52,53
 298.21875 642 298.21875 642 259.75 622.9375 c 0,54,55
 221.05859375 603.763671875 221.05859375 603.763671875 193.434570312 567.984375 c 0,56,57
 186.459960938 558.951171875 186.459960938 558.951171875 180.212890625 548.965820312 c 128,-1,58
 173.966796875 538.98046875 173.966796875 538.98046875 168.430664062 528.0078125 c 128,-1,59
 162.893554688 517.03515625 162.893554688 517.03515625 158.08203125 505.057617188 c 128,-1,60
 153.26953125 493.080078125 153.26953125 493.080078125 149.202148438 480.141601562 c 0,61,62
 133 428.344726562 133 428.344726562 133 365.017578125 c 0,63,64
 133 352.484375 133 352.484375 133.53125 340.411132812 c 128,-1,65
 134.067382812 328.338867188 134.067382812 328.338867188 135.208007812 316.76171875 c 128,-1,66
 136.346679688 305.184570312 136.346679688 305.184570312 138.0546875 294.068359375 c 128,-1,67
 139.76171875 282.953125 139.76171875 282.953125 142.03125 272.330078125 c 128,-1,68
 144.299804688 261.70703125 144.299804688 261.70703125 147.131835938 251.546875 c 0,69,70
 161.209960938 201.052734375 161.209960938 201.052734375 188.159179688 164.805664062 c 0,71,72
 214.733398438 129.0625 214.733398438 129.0625 253.963867188 108.9609375 c 0,73,74
 292.918945312 89 292.918945312 89 342.799804688 89 c 0,75,76
 378.000976562 89 378.000976562 89 397.103515625 93.6708984375 c 0,77,78
 410.505859375 96.947265625 410.505859375 96.947265625 419 100.291015625 c 1,79,-1
 419 369 l 1,80,-1
 419 379 l 1,0,-1
EndSplineSet
EndChar

StartChar: H
Encoding: 72 72 43
Width: 550
VWidth: 1177
Flags: W
LayerCount: 2
Fore
SplineSet
419 729 m 1,0,-1
 429 729 l 1,1,-1
 526 729 l 1,2,-1
 536 729 l 1,3,-1
 536 719 l 1,4,-1
 536 10 l 1,5,-1
 536 0 l 1,6,-1
 526 0 l 1,7,-1
 429 0 l 1,8,-1
 419 0 l 1,9,-1
 419 10 l 1,10,-1
 419 329 l 1,11,-1
 130 329 l 1,12,-1
 130 10 l 1,13,-1
 130 0 l 1,14,-1
 120 0 l 1,15,-1
 23 0 l 1,16,-1
 13 0 l 1,17,-1
 13 10 l 1,18,-1
 13 719 l 1,19,-1
 13 729 l 1,20,-1
 23 729 l 1,21,-1
 120 729 l 1,22,-1
 130 729 l 1,23,-1
 130 719 l 1,24,-1
 130 432 l 1,25,-1
 419 432 l 1,26,-1
 419 719 l 1,27,-1
 419 729 l 1,0,-1
EndSplineSet
EndChar

StartChar: I
Encoding: 73 73 44
Width: 550
VWidth: 1177
Flags: W
LayerCount: 2
Fore
SplineSet
474 647 m 1,0,-1
 340.358398438 647 l 1,1,-1
 340.358398438 82 l 1,2,-1
 474 82 l 1,3,-1
 484 82 l 1,4,-1
 484 74.173828125 l 1,5,-1
 484 10 l 1,6,-1
 484 0 l 1,7,-1
 474 0 l 1,8,-1
 75 0 l 1,9,-1
 65 0 l 1,10,-1
 65 10 l 1,11,-1
 65 74.173828125 l 1,12,-1
 65 82 l 1,13,-1
 75 82 l 1,14,-1
 208.641601562 82 l 1,15,-1
 208.641601562 647 l 1,16,-1
 75 647 l 1,17,-1
 65 647 l 1,18,-1
 65 654.826171875 l 1,19,-1
 65 719 l 1,20,-1
 65 729 l 1,21,-1
 75 729 l 1,22,-1
 474 729 l 1,23,-1
 484 729 l 1,24,-1
 484 719 l 1,25,-1
 484 654.826171875 l 1,26,-1
 484 647 l 1,27,-1
 474 647 l 1,0,-1
EndSplineSet
EndChar

StartChar: J
Encoding: 74 74 45
Width: 550
VWidth: 1177
Flags: W
LayerCount: 2
Fore
SplineSet
119.360351562 647 m 1,0,-1
 119.360351562 654.826171875 l 1,1,-1
 119.360351562 719 l 1,2,-1
 119.360351562 729 l 1,3,-1
 129.360351562 729 l 1,4,-1
 494.360351562 729 l 1,5,-1
 504.360351562 729 l 1,6,-1
 504.360351562 719 l 1,7,-1
 504.360351562 237.493164062 l 2,8,9
 504.360351562 220.259765625 504.360351562 220.259765625 503.053710938 203.727539062 c 128,-1,10
 501.74609375 187.1953125 501.74609375 187.1953125 499.12109375 171.315429688 c 128,-1,11
 496.49609375 155.434570312 496.49609375 155.434570312 492.555664062 140.266601562 c 0,12,13
 480.5078125 93.8994140625 480.5078125 93.8994140625 451.58984375 59.6318359375 c 0,14,15
 421.6484375 25.1123046875 421.6484375 25.1123046875 372.73046875 5.2783203125 c 0,16,17
 346.078125 -4.94140625 346.078125 -4.94140625 312.926757812 -9.970703125 c 128,-1,18
 279.774414062 -15 279.774414062 -15 239.987304688 -15 c 0,19,20
 160.143554688 -15 160.143554688 -15 109.513671875 5.76953125 c 0,21,22
 97.224609375 10.8896484375 97.224609375 10.8896484375 86.6689453125 15.904296875 c 128,-1,23
 76.1142578125 20.9189453125 76.1142578125 20.9189453125 67.0009765625 25.9833984375 c 128,-1,24
 57.888671875 31.048828125 57.888671875 31.048828125 50.345703125 36.1591796875 c 128,-1,25
 42.8017578125 41.2685546875 42.8017578125 41.2685546875 36.82421875 46.431640625 c 2,26,-1
 31 51.4619140625 l 1,27,-1
 34.3701171875 58.3798828125 l 1,28,-1
 72.3701171875 136.379882812 l 1,29,-1
 77.5947265625 147.103515625 l 1,30,-1
 87.2421875 140.086914062 l 2,31,32
 108.594726562 124.55859375 108.594726562 124.55859375 145.379882812 105.919921875 c 0,33,34
 183.538085938 88 183.538085938 88 235.612304688 88 c 0,35,36
 312.860351562 88 312.860351562 88 350.08203125 124.790039062 c 0,37,38
 387.360351562 161.916015625 387.360351562 161.916015625 387.360351562 254 c 2,39,-1
 387.360351562 647 l 1,40,-1
 129.360351562 647 l 1,41,-1
 119.360351562 647 l 1,0,-1
EndSplineSet
EndChar

StartChar: K
Encoding: 75 75 46
Width: 550
VWidth: 1177
Flags: W
LayerCount: 2
Fore
SplineSet
528.805664062 729 m 1,0,-1
 518.291015625 713.825195312 l 2,1,2
 498.872070312 685.799804688 498.872070312 685.799804688 478.2265625 657.88671875 c 128,-1,3
 457.58203125 629.97265625 457.58203125 629.97265625 435.717773438 602.177734375 c 0,4,5
 412.810546875 574.3828125 412.810546875 574.3828125 388.116210938 546.69921875 c 0,6,7
 374.013671875 530.888671875 374.013671875 530.888671875 359.393554688 515.022460938 c 128,-1,8
 344.771484375 499.15625 344.771484375 499.15625 329.75390625 483.364257812 c 128,-1,9
 314.737304688 467.572265625 314.737304688 467.572265625 299.272460938 451.793945312 c 128,-1,10
 283.809570312 436.015625 283.809570312 436.015625 267.993164062 420.34765625 c 128,-1,11
 252.177734375 404.6796875 252.177734375 404.6796875 235.987304688 389.094726562 c 1,12,13
 248.826171875 379.016601562 248.826171875 379.016601562 261.553710938 368.422851562 c 128,-1,14
 274.28125 357.828125 274.28125 357.828125 287.135742188 346.53125 c 128,-1,15
 299.990234375 335.234375 299.990234375 335.234375 313.625976562 322.676757812 c 0,16,17
 324.948242188 312.25 324.948242188 312.25 336.200195312 301.366210938 c 128,-1,18
 347.452148438 290.482421875 347.452148438 290.482421875 358.630859375 279.14453125 c 128,-1,19
 369.809570312 267.806640625 369.809570312 267.806640625 380.9140625 256.015625 c 128,-1,20
 392.01953125 244.224609375 392.01953125 244.224609375 403.055664062 231.9765625 c 0,21,22
 446.112304688 182.861328125 446.112304688 182.861328125 482.43359375 127.37890625 c 0,23,24
 518.920898438 71.642578125 518.920898438 71.642578125 543.262695312 13.400390625 c 2,25,-1
 548.86328125 0 l 1,26,-1
 534 0 l 1,27,-1
 424.731445312 0 l 1,28,-1
 418.3359375 0 l 1,29,-1
 415.309570312 5.2685546875 l 2,30,31
 384.530273438 58.859375 384.530273438 58.859375 347.908203125 110.471679688 c 128,-1,32
 311.387695312 161.939453125 311.387695312 161.939453125 270.66015625 205.95703125 c 128,-1,33
 229.873046875 250.038085938 229.873046875 250.038085938 186.993164062 287.162109375 c 0,34,35
 152.928710938 316.654296875 152.928710938 316.654296875 118 340.046875 c 1,36,-1
 118 10 l 1,37,-1
 118 0 l 1,38,-1
 108 0 l 1,39,-1
 11 0 l 1,40,-1
 1 0 l 1,41,-1
 1 10 l 1,42,-1
 1 719 l 1,43,-1
 1 729 l 1,44,-1
 11 729 l 1,45,-1
 108 729 l 1,46,-1
 118 729 l 1,47,-1
 118 719 l 1,48,-1
 118 418.765625 l 1,49,50
 189.888671875 489.348632812 189.888671875 489.348632812 256.015625 565.3125 c 0,51,52
 330.670898438 651.073242188 330.670898438 651.073242188 387.161132812 724.823242188 c 2,53,-1
 390.361328125 729 l 1,54,-1
 395.85546875 729 l 1,55,-1
 510 729 l 1,56,-1
 528.805664062 729 l 1,0,-1
EndSplineSet
EndChar

StartChar: L
Encoding: 76 76 47
Width: 550
VWidth: 1177
Flags: W
LayerCount: 2
Fore
SplineSet
527 82 m 1,0,-1
 527 74.173828125 l 1,1,-1
 527 10 l 1,2,-1
 527 0 l 1,3,-1
 517 0 l 1,4,-1
 62 0 l 1,5,-1
 52 0 l 1,6,-1
 52 10 l 1,7,-1
 52 719 l 1,8,-1
 52 729 l 1,9,-1
 62 729 l 1,10,-1
 159 729 l 1,11,-1
 169 729 l 1,12,-1
 169 719 l 1,13,-1
 169 82 l 1,14,-1
 517 82 l 1,15,-1
 527 82 l 1,0,-1
EndSplineSet
EndChar

StartChar: M
Encoding: 77 77 48
Width: 550
VWidth: 1177
Flags: W
LayerCount: 2
Fore
SplineSet
164.913085938 722.020507812 m 1,0,-1
 277.46875 389.375976562 l 1,1,-1
 388.05078125 721.97265625 l 1,2,-1
 390.38671875 729 l 1,3,-1
 398.248046875 729 l 1,4,-1
 490.454101562 729 l 1,5,-1
 499.15625 729 l 1,6,-1
 500.358398438 720.381835938 l 2,7,8
 524.41796875 552.61328125 524.41796875 552.61328125 534.438476562 377.0859375 c 0,9,10
 544.443359375 201.869140625 544.443359375 201.869140625 552.446289062 10.125 c 2,11,-1
 552.868164062 0 l 1,12,-1
 542.454101562 0 l 1,13,-1
 448.454101562 0 l 1,14,-1
 438.609375 0 l 1,15,-1
 438.455078125 9.84375 l 2,16,17
 437.456054688 73.8173828125 437.456054688 73.8173828125 435.956054688 147.796875 c 128,-1,18
 434.456054688 221.803710938 434.456054688 221.803710938 432.956054688 300.810546875 c 128,-1,19
 431.361328125 379.78125 431.361328125 379.78125 429.224609375 460.752929688 c 0,20,21
 427.9140625 510.477539062 427.9140625 510.477539062 426.579101562 559.577148438 c 1,22,-1
 332.590820312 283.958007812 l 1,23,-1
 330.217773438 277 l 1,24,-1
 322.416015625 277 l 1,25,-1
 231.630859375 277 l 1,26,-1
 223.874023438 277 l 1,27,-1
 221.473632812 283.90625 l 1,28,-1
 125.974609375 558.7734375 l 1,29,30
 125.51171875 534.307617188 125.51171875 534.307617188 124.962890625 510.204101562 c 128,-1,31
 124.413085938 486.099609375 124.413085938 486.099609375 123.75390625 461.251953125 c 0,32,33
 121.619140625 380.78125 121.619140625 380.78125 120.016601562 301.311523438 c 128,-1,34
 118.452148438 221.7734375 118.452148438 221.7734375 116.450195312 147.729492188 c 128,-1,35
 114.452148438 73.779296875 114.452148438 73.779296875 113.453125 9.84375 c 2,36,-1
 113.298828125 0 l 1,37,-1
 103.454101562 0 l 1,38,-1
 9.4541015625 0 l 1,39,-1
 -1 0 l 1,40,-1
 -0.5361328125 10.162109375 l 2,41,42
 3.46484375 97.748046875 3.46484375 97.748046875 7.9658203125 189.224609375 c 128,-1,43
 12.470703125 280.790039062 12.470703125 280.790039062 18.978515625 371.384765625 c 128,-1,44
 25.486328125 461.985351562 25.486328125 461.985351562 33.998046875 550.159179688 c 128,-1,45
 42.513671875 638.37890625 42.513671875 638.37890625 53.5390625 720.298828125 c 2,46,-1
 54.6787109375 729 l 1,47,-1
 63.4541015625 729 l 1,48,-1
 154.73046875 729 l 1,49,-1
 162.551757812 729 l 1,50,-1
 164.913085938 722.020507812 l 1,0,-1
EndSplineSet
EndChar

StartChar: N
Encoding: 78 78 49
Width: 550
VWidth: 1177
Flags: W
LayerCount: 2
Fore
SplineSet
408.280273438 0 m 1,0,-1
 405.741210938 6.220703125 l 2,1,2
 384.245117188 55.1513671875 384.245117188 55.1513671875 363.823242188 99.453125 c 128,-1,3
 343.40234375 143.755859375 343.40234375 143.755859375 324.208007812 183.422851562 c 0,4,5
 285.758789062 262.875976562 285.758789062 262.875976562 251.111328125 332.317382812 c 128,-1,6
 216.541992188 401.598632812 216.541992188 401.598632812 181.985351562 462.883789062 c 0,7,8
 157.467773438 506.365234375 157.467773438 506.365234375 133 551.32421875 c 1,9,-1
 133 10 l 1,10,-1
 133 0 l 1,11,-1
 123 0 l 1,12,-1
 35 0 l 1,13,-1
 25 0 l 1,14,-1
 25 10 l 1,15,-1
 25 719 l 1,16,-1
 25 729 l 1,17,-1
 35 729 l 1,18,-1
 134 729 l 1,19,-1
 139.936523438 729 l 1,20,-1
 142.779296875 723.788085938 l 1,21,-1
 233.623046875 569.788085938 l 2,22,23
 272.750976562 503.592773438 272.750976562 503.592773438 305.38671875 441.35546875 c 128,-1,24
 338.010742188 379.138671875 338.010742188 379.138671875 368.450195312 313.430664062 c 0,25,26
 390.293945312 266.276367188 390.293945312 266.276367188 416 207.680664062 c 1,27,-1
 416 719 l 1,28,-1
 416 729 l 1,29,-1
 426 729 l 1,30,-1
 514 729 l 1,31,-1
 524 729 l 1,32,-1
 524 719 l 1,33,-1
 524 10 l 1,34,-1
 524 0 l 1,35,-1
 514 0 l 1,36,-1
 415 0 l 1,37,-1
 408.280273438 0 l 1,0,-1
EndSplineSet
EndChar

StartChar: O
Encoding: 79 79 50
Width: 550
VWidth: 1177
Flags: W
LayerCount: 2
Fore
SplineSet
13.3349609375 197.619140625 m 0,0,1
 -6 268.3984375 -6 268.3984375 -6 364.999023438 c 128,-1,2
 -6 461.590820312 -6 461.590820312 13.3310546875 532.849609375 c 0,3,4
 32.8125 604.6640625 32.8125 604.6640625 67.927734375 651.380859375 c 0,5,6
 103.411132812 698.587890625 103.411132812 698.587890625 156.306640625 722.018554688 c 0,7,8
 209.669921875 746 209.669921875 746 273.93359375 746 c 128,-1,9
 338.174804688 746 338.174804688 746 392.055664062 722.03515625 c 0,10,11
 419.120117188 710.326171875 419.120117188 710.326171875 441.77734375 692.618164062 c 0,12,13
 463.38671875 674.91015625 463.38671875 674.91015625 481.072265625 651.380859375 c 0,14,15
 516.166992188 604.69140625 516.166992188 604.69140625 536.15234375 532.911132812 c 0,16,17
 556 461.623046875 556 461.623046875 556 364.999023438 c 128,-1,18
 556 268.366210938 556 268.366210938 536.147460938 197.557617188 c 0,19,20
 516.17578125 126.321289062 516.17578125 126.321289062 481.131835938 78.6962890625 c 0,21,22
 445.571289062 30.37109375 445.571289062 30.37109375 391.891601562 7.8935546875 c 0,23,24
 381.116210938 3.30859375 381.116210938 3.30859375 369.908203125 -0.359375 c 128,-1,25
 358.701171875 -4.0283203125 358.701171875 -4.0283203125 347.103515625 -6.771484375 c 128,-1,26
 335.505859375 -9.515625 335.505859375 -9.515625 323.497070312 -11.345703125 c 128,-1,27
 311.486328125 -13.1748046875 311.486328125 -13.1748046875 299.099609375 -14.087890625 c 128,-1,28
 286.712890625 -15 286.712890625 -15 273.93359375 -15 c 0,29,30
 208.677734375 -15 208.677734375 -15 155.899414062 7.92578125 c 0,31,32
 103.403320312 30.4052734375 103.403320312 30.4052734375 67.8681640625 78.697265625 c 0,33,34
 32.8046875 126.348632812 32.8046875 126.348632812 13.3349609375 197.619140625 c 0,0,1
123.139648438 485.69140625 m 128,-1,36
 113 433.474609375 113 433.474609375 113 365 c 0,37,38
 113 228.3359375 113 228.3359375 153.353515625 156.56640625 c 0,39,40
 191.969726562 88 191.969726562 88 271.801757812 88 c 0,41,42
 312.748046875 88 312.748046875 88 342.973632812 104.948242188 c 128,-1,43
 373.200195312 121.896484375 373.200195312 121.896484375 394.108398438 156.78515625 c 0,44,45
 415.374023438 192.270507812 415.374023438 192.270507812 426.220703125 244.418945312 c 128,-1,46
 437 296.567382812 437 296.567382812 437 365 c 0,47,48
 437 410.701171875 437 410.701171875 432.241210938 449.317382812 c 128,-1,49
 427.416992188 487.932617188 427.416992188 487.932617188 418.002929688 518.793945312 c 128,-1,50
 408.590820312 549.655273438 408.590820312 549.655273438 394.616210938 573.2578125 c 0,51,52
 380.83203125 596.5390625 380.83203125 596.5390625 362.768554688 611.780273438 c 128,-1,53
 344.70703125 627.021484375 344.70703125 627.021484375 322.096679688 634.510742188 c 128,-1,54
 299.489257812 642 299.489257812 642 271.801757812 642 c 0,55,56
 231.448242188 642 231.448242188 642 202.205078125 625.124023438 c 128,-1,57
 172.9609375 608.249023438 172.9609375 608.249023438 153.353515625 573.43359375 c 0,58,35
 133.345703125 537.909179688 133.345703125 537.909179688 123.139648438 485.69140625 c 128,-1,36
EndSplineSet
EndChar

StartChar: P
Encoding: 80 80 51
Width: 550
VWidth: 1177
Flags: W
LayerCount: 2
Fore
SplineSet
196.452148438 735.498046875 m 0,0,1
 223.194335938 736 223.194335938 736 245.043945312 736 c 0,2,3
 281.173828125 736 281.173828125 736 312.883789062 731.758789062 c 128,-1,4
 344.592773438 727.607421875 344.592773438 727.607421875 371.9140625 719.233398438 c 0,5,6
 425.2265625 702.409179688 425.2265625 702.409179688 459.283203125 671.627929688 c 0,7,8
 470.65234375 661.3515625 470.65234375 661.3515625 480.129882812 649.776367188 c 128,-1,9
 489.606445312 638.201171875 489.606445312 638.201171875 497.161132812 625.36328125 c 128,-1,10
 504.71484375 612.524414062 504.71484375 612.524414062 510.315429688 598.47265625 c 0,11,12
 527 556.610351562 527 556.610351562 527 504.831054688 c 0,13,14
 527 485.729492188 527 485.729492188 525.067382812 467.993164062 c 128,-1,15
 523.133789062 450.256835938 523.133789062 450.256835938 519.262695312 433.85546875 c 128,-1,16
 515.392578125 417.454101562 515.392578125 417.454101562 509.549804688 402.447265625 c 128,-1,17
 503.708007812 387.440429688 503.708007812 387.440429688 495.921875 373.860351562 c 128,-1,18
 488.13671875 360.280273438 488.13671875 360.280273438 478.338867188 348.119140625 c 128,-1,19
 468.541015625 335.958007812 468.541015625 335.958007812 456.791992188 325.3125 c 0,20,21
 433.279296875 304.0078125 433.279296875 304.0078125 401.518554688 289.892578125 c 0,22,23
 367.473632812 275.77734375 367.473632812 275.77734375 325.774414062 268.888671875 c 128,-1,24
 284.07421875 262 284.07421875 262 234.173828125 262 c 2,25,-1
 154 262 l 1,26,-1
 154 10 l 1,27,-1
 154 0 l 1,28,-1
 144 0 l 1,29,-1
 47 0 l 1,30,-1
 37 0 l 1,31,-1
 37 10 l 1,32,-1
 37 708.354492188 l 1,33,-1
 37 716.037109375 l 1,34,-1
 44.68359375 717.81640625 l 2,35,36
 51.86328125 719.479492188 51.86328125 719.479492188 59.5400390625 720.97265625 c 128,-1,37
 67.2158203125 722.5078125 67.2158203125 722.5078125 75.35546875 723.864257812 c 128,-1,38
 83.494140625 725.220703125 83.494140625 725.220703125 92.140625 726.407226562 c 0,39,40
 117.817382812 729.931640625 117.817382812 729.931640625 143.004882812 732.450195312 c 0,41,42
 169.390625 734.990234375 169.390625 734.990234375 196.452148438 735.498046875 c 0,0,1
370.043945312 600.705078125 m 128,-1,44
 332 633 332 633 252.65234375 633 c 0,45,46
 219.150390625 633 219.150390625 633 188.909179688 632.041992188 c 0,47,48
 167.493164062 631.36328125 167.493164062 631.36328125 154 630.202148438 c 1,49,-1
 154 365 l 1,50,-1
 229.826171875 365 l 2,51,52
 321.61328125 365 321.61328125 365 365.356445312 396.577148438 c 0,53,54
 408 427.424804688 408 427.424804688 408 500.927734375 c 0,55,43
 408 568.41015625 408 568.41015625 370.043945312 600.705078125 c 128,-1,44
EndSplineSet
EndChar

StartChar: Q
Encoding: 81 81 52
Width: 550
VWidth: 1177
Flags: W
LayerCount: 2
Fore
SplineSet
50.9501953125 101.2578125 m 0,0,1
 -6 192.645507812 -6 192.645507812 -6 363.755859375 c 0,2,3
 -6 460.415039062 -6 460.415039062 13.3349609375 531.237304688 c 0,4,5
 23.048828125 566.817382812 23.048828125 566.817382812 36.673828125 596.34375 c 128,-1,6
 50.298828125 625.870117188 50.298828125 625.870117188 67.927734375 649.337890625 c 0,7,8
 103.411132812 696.57421875 103.411132812 696.57421875 156.306640625 720.018554688 c 0,9,10
 209.669921875 744 209.669921875 744 273.93359375 744 c 128,-1,11
 338.174804688 744 338.174804688 744 392.055664062 720.03515625 c 0,12,13
 419.120117188 708.008789062 419.120117188 708.008789062 441.77734375 689.821289062 c 0,14,15
 463.38671875 671.633789062 463.38671875 671.633789062 481.072265625 647.467773438 c 0,16,17
 516.162109375 599.521484375 516.162109375 599.521484375 536.147460938 526.306640625 c 0,18,19
 546.104492188 489.83203125 546.104492188 489.83203125 551.051757812 446.861328125 c 128,-1,20
 556 403.889648438 556 403.889648438 556 354.331054688 c 0,21,22
 556 310.34765625 556 310.34765625 552.069335938 271.456054688 c 128,-1,23
 548.138671875 232.564453125 548.138671875 232.564453125 540.239257812 198.702148438 c 0,24,25
 524.391601562 130.7734375 524.391601562 130.7734375 495.614257812 82 c 0,26,27
 485.947265625 68.4345703125 485.947265625 68.4345703125 474.857421875 56.77734375 c 128,-1,28
 463.767578125 45.1201171875 463.767578125 45.1201171875 451.177734375 35.328125 c 128,-1,29
 438.586914062 25.5361328125 438.586914062 25.5361328125 423.83984375 17.7236328125 c 0,30,31
 384.303710938 -2.978515625 384.303710938 -2.978515625 335.896484375 -10.9267578125 c 1,32,33
 341.116210938 -26.0458984375 341.116210938 -26.0458984375 352.48828125 -37.03515625 c 0,34,35
 368.727539062 -52.7275390625 368.727539062 -52.7275390625 394.159179688 -63.9521484375 c 0,36,37
 420.4765625 -75.5673828125 420.4765625 -75.5673828125 452.567382812 -83.8349609375 c 0,38,39
 483.978515625 -92.1787109375 483.978515625 -92.1787109375 519.375976562 -97.0947265625 c 2,40,-1
 530.916015625 -98.6982421875 l 1,41,-1
 527.58203125 -109.862304688 l 1,42,-1
 504.58203125 -186.862304688 l 1,43,-1
 502.056640625 -195.314453125 l 1,44,-1
 493.356445312 -193.864257812 l 2,45,46
 444.752929688 -185.763671875 444.752929688 -185.763671875 397.793945312 -172.58984375 c 0,47,48
 349.610351562 -159.23828125 349.610351562 -159.23828125 310.62109375 -137.606445312 c 0,49,50
 297.483398438 -130.318359375 297.483398438 -130.318359375 285.672851562 -121.908203125 c 128,-1,51
 273.86328125 -113.499023438 273.86328125 -113.499023438 263.37109375 -103.952148438 c 128,-1,52
 252.87890625 -94.4052734375 252.87890625 -94.4052734375 243.763671875 -83.7626953125 c 0,53,54
 217.975585938 -53.6533203125 217.975585938 -53.6533203125 207.36328125 -10.3564453125 c 1,55,56
 106.678710938 11.8291015625 106.678710938 11.8291015625 50.9501953125 101.2578125 c 0,0,1
123.139648438 479.048828125 m 128,-1,58
 113 424.946289062 113 424.946289062 113 354 c 0,59,60
 113 212.40234375 113 212.40234375 153.353515625 138.041992188 c 0,61,62
 191.969726562 67 191.969726562 67 271.801757812 67 c 0,63,64
 312.748046875 67 312.748046875 67 342.973632812 84.560546875 c 128,-1,65
 373.200195312 102.120117188 373.200195312 102.120117188 394.108398438 138.268554688 c 0,66,67
 408.25 162.717773438 408.25 162.717773438 417.776367188 194.684570312 c 128,-1,68
 427.301757812 226.650390625 427.301757812 226.650390625 432.18359375 266.65234375 c 128,-1,69
 437 306.653320312 437 306.653320312 437 354 c 128,-1,70
 437 401.3515625 437 401.3515625 432.241210938 441.361328125 c 128,-1,71
 427.416992188 481.37109375 427.416992188 481.37109375 418.002929688 513.345703125 c 128,-1,72
 408.590820312 545.321289062 408.590820312 545.321289062 394.616210938 569.776367188 c 0,73,74
 380.83203125 593.897460938 380.83203125 593.897460938 362.768554688 609.689453125 c 128,-1,75
 344.70703125 625.48046875 344.70703125 625.48046875 322.096679688 633.240234375 c 128,-1,76
 299.489257812 641 299.489257812 641 271.801757812 641 c 0,77,78
 231.448242188 641 231.448242188 641 202.205078125 623.514648438 c 128,-1,79
 172.9609375 606.030273438 172.9609375 606.030273438 153.353515625 569.958007812 c 0,80,57
 133.345703125 533.151367188 133.345703125 533.151367188 123.139648438 479.048828125 c 128,-1,58
EndSplineSet
EndChar

StartChar: R
Encoding: 82 82 53
Width: 550
VWidth: 1177
Flags: W
LayerCount: 2
Fore
SplineSet
480.560546875 603.319335938 m 128,-1,1
 498 559.416015625 498 559.416015625 498 502.229492188 c 0,2,3
 498 433.963867188 498 433.963867188 460.70703125 381.818359375 c 0,4,5
 443.818359375 358.203125 443.818359375 358.203125 421.22265625 339.231445312 c 0,6,7
 396.9921875 320.258789062 396.9921875 320.258789062 367.75390625 306.545898438 c 1,8,9
 384.7734375 282.145507812 384.7734375 282.145507812 403.970703125 252.6484375 c 0,10,11
 415.567382812 234.829101562 415.567382812 234.829101562 426.930664062 216.040039062 c 0,12,13
 437.961914062 197.250976562 437.961914062 197.250976562 449.241210938 177.490234375 c 0,14,15
 471.828125 137.918945312 471.828125 137.918945312 493.90234375 95.9248046875 c 128,-1,16
 516.037109375 53.8154296875 516.037109375 53.8154296875 534.15625 13.6455078125 c 2,17,-1
 540.311523438 0 l 1,18,-1
 525 0 l 1,19,-1
 422 0 l 1,20,-1
 414.924804688 0 l 1,21,-1
 412.18359375 6.1923828125 l 2,22,23
 374.752929688 87.712890625 374.752929688 87.712890625 329.868164062 161.982421875 c 0,24,25
 319.241210938 179.568359375 319.241210938 179.568359375 308.563476562 195.924804688 c 128,-1,26
 297.885742188 212.28125 297.885742188 212.28125 287.525390625 226.876953125 c 128,-1,27
 277.166992188 241.47265625 277.166992188 241.47265625 267.122070312 254.391601562 c 128,-1,28
 257.076171875 267.338867188 257.076171875 267.338867188 247.47265625 278.436523438 c 1,29,30
 240.283203125 277.841796875 240.283203125 277.841796875 230.569335938 277.506835938 c 0,31,32
 215.853515625 277 215.853515625 277 210.276367188 277 c 2,33,-1
 133 277 l 1,34,-1
 133 10 l 1,35,-1
 133 0 l 1,36,-1
 123 0 l 1,37,-1
 25 0 l 1,38,-1
 15 0 l 1,39,-1
 15 10 l 1,40,-1
 15 708.499023438 l 1,41,-1
 15 715.893554688 l 1,42,-1
 22.3232421875 717.873046875 l 2,43,44
 40.8857421875 722.888671875 40.8857421875 722.888671875 63.962890625 726.380859375 c 0,45,46
 86.8232421875 729.9375 86.8232421875 729.9375 111.686523438 731.966796875 c 128,-1,47
 136.475585938 733.982421875 136.475585938 733.982421875 161.965820312 734.991210938 c 128,-1,48
 187.46484375 736 187.46484375 736 208.125976562 736 c 0,49,50
 256.38671875 736 256.38671875 736 296.811523438 729.426757812 c 128,-1,51
 337.235351562 723.029296875 337.235351562 723.029296875 370.395507812 709.91015625 c 128,-1,52
 403.5546875 696.790039062 403.5546875 696.790039062 428.073242188 676.974609375 c 0,53,0
 463.12109375 647.221679688 463.12109375 647.221679688 480.560546875 603.319335938 c 128,-1,1
249.024414062 636.505859375 m 128,-1,55
 233.360351562 633 233.360351562 633 216.729492188 633 c 0,56,57
 187.893554688 633 187.893554688 633 160.692382812 632.044921875 c 0,58,59
 143.798828125 631.452148438 143.798828125 631.452148438 133 630.439453125 c 1,60,-1
 133 377 l 1,61,-1
 188.76953125 377 l 2,62,63
 210.916992188 377 210.916992188 377 230.891601562 378.524414062 c 128,-1,64
 250.865234375 380.048828125 250.865234375 380.048828125 268.62890625 383.078125 c 0,65,66
 302.971679688 388.936523438 302.971679688 388.936523438 326.905273438 404.359375 c 0,67,68
 350.232421875 419.390625 350.232421875 419.390625 362.9375 445.369140625 c 0,69,70
 369.290039062 458.357421875 369.290039062 458.357421875 372.586914062 476.12890625 c 128,-1,71
 375.885742188 493.901367188 375.885742188 493.901367188 375.885742188 516.287109375 c 0,72,73
 375.885742188 537.109375 375.885742188 537.109375 372.6015625 554.075195312 c 128,-1,74
 369.318359375 571.040039062 369.318359375 571.040039062 362.9375 584.087890625 c 128,-1,75
 356.4609375 597.330078125 356.4609375 597.330078125 348.02734375 607.608398438 c 128,-1,76
 339.59375 617.88671875 339.59375 617.88671875 329.139648438 625.407226562 c 0,77,78
 307.8359375 640.73046875 307.8359375 640.73046875 279.3984375 647 c 0,79,54
 264.6875 640.010742188 264.6875 640.010742188 249.024414062 636.505859375 c 128,-1,55
EndSplineSet
EndChar

StartChar: S
Encoding: 83 83 54
Width: 550
VWidth: 1177
Flags: W
LayerCount: 2
Fore
SplineSet
139.479492188 104.379882812 m 0,0,1
 187.021484375 88 187.021484375 88 256.5625 88 c 0,2,3
 272.126953125 88 272.126953125 88 286.202148438 89.08203125 c 128,-1,4
 300.278320312 90.1640625 300.278320312 90.1640625 312.58984375 92.267578125 c 128,-1,5
 324.900390625 94.37109375 324.900390625 94.37109375 335.73046875 97.5 c 128,-1,6
 346.560546875 100.627929688 346.560546875 100.627929688 355.713867188 104.6875 c 128,-1,7
 364.868164062 108.747070312 364.868164062 108.747070312 372.548828125 113.7734375 c 0,8,9
 391.541015625 126.203125 391.541015625 126.203125 400.943359375 144.446289062 c 0,10,11
 410.013671875 162.689453125 410.013671875 162.689453125 410.013671875 187.897460938 c 0,12,13
 410.013671875 203.231445312 410.013671875 203.231445312 406.71875 216.124023438 c 0,14,15
 403.208984375 229.017578125 403.208984375 229.017578125 396.151367188 239.6953125 c 0,16,17
 381.517578125 261.83984375 381.517578125 261.83984375 357.733398438 278.155273438 c 0,18,19
 333.251953125 294.948242188 333.251953125 294.948242188 302.413085938 307.586914062 c 0,20,21
 270.704101562 320.58203125 270.704101562 320.58203125 238.4609375 332.1328125 c 0,22,23
 199.92578125 345.936523438 199.92578125 345.936523438 164.133789062 363.689453125 c 0,24,25
 129.119140625 381.7109375 129.119140625 381.7109375 102.736328125 405.291015625 c 0,26,27
 75.8154296875 429.353515625 75.8154296875 429.353515625 59.984375 461.596679688 c 0,28,29
 44.013671875 494.125976562 44.013671875 494.125976562 44.013671875 538.9921875 c 0,30,31
 44.013671875 570.819335938 44.013671875 570.819335938 51.064453125 598.34765625 c 128,-1,32
 58.115234375 625.875976562 58.115234375 625.875976562 72.345703125 649.09765625 c 128,-1,33
 86.576171875 672.319335938 86.576171875 672.319335938 107.854492188 690.739257812 c 0,34,35
 139.654296875 718.268554688 139.654296875 718.268554688 186.502929688 731.921875 c 0,36,37
 233.794921875 746 233.794921875 746 293.383789062 746 c 0,38,39
 304.130859375 746 304.130859375 746 314.879882812 745.486328125 c 128,-1,40
 325.62890625 744.97265625 325.62890625 744.97265625 336.373046875 743.947265625 c 128,-1,41
 347.1171875 742.920898438 347.1171875 742.920898438 357.856445312 741.381835938 c 0,42,43
 373.728515625 739.107421875 373.728515625 739.107421875 388.387695312 736.577148438 c 128,-1,44
 403.047851562 734.046875 403.047851562 734.046875 415.704101562 731.256835938 c 0,45,46
 424.149414062 729.361328125 424.149414062 729.361328125 432.030273438 727.118164062 c 128,-1,47
 439.911132812 724.875976562 439.911132812 724.875976562 447.296875 722.259765625 c 128,-1,48
 454.682617188 719.642578125 454.682617188 719.642578125 461.508789062 716.666992188 c 0,49,50
 466.55078125 714.46875 466.55078125 714.46875 471.09375 712.311523438 c 128,-1,51
 475.63671875 710.154296875 475.63671875 710.154296875 479.772460938 707.990234375 c 128,-1,52
 483.908203125 705.827148438 483.908203125 705.827148438 487.607421875 703.658203125 c 128,-1,53
 491.305664062 701.490234375 491.305664062 701.490234375 494.560546875 699.3203125 c 2,54,-1
 501.208984375 694.888671875 l 1,55,-1
 498.352539062 687.42578125 l 1,56,-1
 467.352539062 606.42578125 l 1,57,-1
 463.14453125 595.4296875 l 1,58,-1
 452.974609375 601.362304688 l 2,59,60
 429.836914062 614.859375 429.836914062 614.859375 388.435546875 628.536132812 c 0,61,62
 345.733398438 642 345.733398438 642 293.383789062 642 c 0,63,64
 239.315429688 642 239.315429688 642 199.8359375 617.9609375 c 0,65,66
 162.342773438 595.131835938 162.342773438 595.131835938 162.342773438 548.8359375 c 0,67,68
 162.342773438 534.819335938 162.342773438 534.819335938 165.05078125 523.345703125 c 128,-1,69
 167.760742188 511.87109375 167.760742188 511.87109375 173.018554688 502.875 c 0,70,71
 183.909179688 484.243164062 183.909179688 484.243164062 203.325195312 469.967773438 c 0,72,73
 223.504882812 455.130859375 223.504882812 455.130859375 250.575195312 443.001953125 c 0,74,75
 278.411132812 430.530273438 278.411132812 430.530273438 311.674804688 418.030273438 c 0,76,77
 360.728515625 399.470703125 360.728515625 399.470703125 401.109375 381.377929688 c 0,78,79
 439.893554688 362.741210938 439.893554688 362.741210938 467.516601562 336.439453125 c 0,80,81
 495.490234375 309.8046875 495.490234375 309.8046875 510.770507812 273.499023438 c 128,-1,82
 526.013671875 237.283203125 526.013671875 237.283203125 526.013671875 186.85546875 c 0,83,84
 526.013671875 90.0146484375 526.013671875 90.0146484375 458.282226562 37.1220703125 c 0,85,86
 390.3359375 -15 390.3359375 -15 256.5625 -15 c 0,87,88
 213.098632812 -14.8642578125 213.098632812 -14.8642578125 175.409179688 -9.896484375 c 0,89,90
 156.31640625 -7.341796875 156.31640625 -7.341796875 139.805664062 -3.8798828125 c 0,91,92
 124.162109375 -0.4169921875 124.162109375 -0.4169921875 110.458984375 3.9775390625 c 0,93,94
 97.0546875 8.27734375 97.0546875 8.27734375 85.2724609375 12.4580078125 c 128,-1,95
 73.490234375 16.638671875 73.490234375 16.638671875 63.2998046875 20.71484375 c 0,96,97
 42.2255859375 29.14453125 42.2255859375 29.14453125 31.2783203125 36.8076171875 c 2,98,-1
 25 41.203125 l 1,99,-1
 27.6123046875 48.408203125 l 1,100,-1
 56.6123046875 128.408203125 l 1,101,-1
 60.568359375 139.322265625 l 1,102,-1
 70.7763671875 133.79296875 l 2,103,104
 78.4404296875 129.641601562 78.4404296875 129.641601562 88.6064453125 124.9921875 c 128,-1,105
 98.771484375 120.342773438 98.771484375 120.342773438 111.561523438 115.15625 c 128,-1,106
 124.3515625 109.970703125 124.3515625 109.970703125 139.479492188 104.379882812 c 0,0,1
EndSplineSet
EndChar

StartChar: T
Encoding: 84 84 55
Width: 550
VWidth: 1177
Flags: W
LayerCount: 2
Fore
SplineSet
543 729 m 1,0,-1
 543 719 l 1,1,-1
 543 654.826171875 l 1,2,-1
 543 647 l 1,3,-1
 533 647 l 1,4,-1
 337.223632812 647 l 1,5,-1
 337.223632812 10 l 1,6,-1
 337.223632812 0 l 1,7,-1
 326.501953125 0 l 1,8,-1
 222.498046875 0 l 1,9,-1
 211.776367188 0 l 1,10,-1
 211.776367188 10 l 1,11,-1
 211.776367188 647 l 1,12,-1
 16 647 l 1,13,-1
 6 647 l 1,14,-1
 6 654.826171875 l 1,15,-1
 6 719 l 1,16,-1
 6 729 l 1,17,-1
 16 729 l 1,18,-1
 533 729 l 1,19,-1
 543 729 l 1,0,-1
EndSplineSet
EndChar

StartChar: U
Encoding: 85 85 56
Width: 550
VWidth: 1177
Flags: W
LayerCount: 2
Fore
SplineSet
397.189453125 4.236328125 m 0,0,1
 346.166992188 -15 346.166992188 -15 273.9609375 -15 c 128,-1,2
 201.732421875 -15 201.732421875 -15 151.232421875 4.2509765625 c 0,3,4
 102.883789062 23.1728515625 102.883789062 23.1728515625 72.7900390625 58.6103515625 c 128,-1,5
 42.85546875 93.8603515625 42.85546875 93.8603515625 29.8046875 144.137695312 c 0,6,7
 17 193.461914062 17 193.461914062 17 254.01171875 c 2,8,-1
 17 719 l 1,9,-1
 17 729 l 1,10,-1
 27 729 l 1,11,-1
 123 729 l 1,12,-1
 133 729 l 1,13,-1
 133 719 l 1,14,-1
 133 265.377929688 l 2,15,16
 133 256.657226562 133 256.657226562 133.274414062 248.404296875 c 128,-1,17
 133.548828125 240.151367188 133.548828125 240.151367188 134.09375 232.430664062 c 128,-1,18
 134.638671875 224.709960938 134.638671875 224.709960938 135.448242188 217.48046875 c 128,-1,19
 136.2578125 210.250976562 136.2578125 210.250976562 137.358398438 203.536132812 c 128,-1,20
 138.516601562 196.821289062 138.516601562 196.821289062 139.950195312 190.625 c 128,-1,21
 141.384765625 184.428710938 141.384765625 184.428710938 143.096679688 178.733398438 c 0,22,23
 148.225585938 161.6796875 148.225585938 161.6796875 155.422851562 148.174804688 c 128,-1,24
 162.620117188 134.669921875 162.620117188 134.669921875 171.751953125 124.688476562 c 0,25,26
 189.859375 104.895507812 189.859375 104.895507812 214.637695312 96.5986328125 c 0,27,28
 240.315429688 88 240.315429688 88 273.9609375 88 c 0,29,30
 290.891601562 88 290.891601562 88 305.864257812 90.1669921875 c 128,-1,31
 320.836914062 92.333984375 320.836914062 92.333984375 333.887695312 96.619140625 c 0,32,33
 359.1640625 104.920898438 359.1640625 104.920898438 377.248046875 124.688476562 c 0,34,35
 386.379882812 134.669921875 386.379882812 134.669921875 393.577148438 148.174804688 c 128,-1,36
 400.774414062 161.678710938 400.774414062 161.678710938 405.903320312 178.733398438 c 0,37,38
 416 213.354492188 416 213.354492188 416 265.377929688 c 2,39,-1
 416 719 l 1,40,-1
 416 729 l 1,41,-1
 426 729 l 1,42,-1
 522 729 l 1,43,-1
 532 729 l 1,44,-1
 532 719 l 1,45,-1
 532 254.010742188 l 2,46,47
 532 193.415039062 532 193.415039062 518.671875 144.047851562 c 0,48,49
 514.178710938 127.405273438 514.178710938 127.405273438 507.936523438 112.389648438 c 128,-1,50
 501.694335938 97.375 501.694335938 97.375 493.637695312 83.908203125 c 128,-1,51
 485.581054688 70.44140625 485.581054688 70.44140625 475.764648438 58.6748046875 c 0,52,53
 446.145507812 23.173828125 446.145507812 23.173828125 397.189453125 4.236328125 c 0,0,1
EndSplineSet
EndChar

StartChar: V
Encoding: 86 86 57
Width: 550
VWidth: 1177
Flags: W
LayerCount: 2
Fore
SplineSet
91.23828125 729 m 1,0,-1
 92.8681640625 720.859375 l 2,1,2
 107.623046875 647.143554688 107.623046875 647.143554688 130.825195312 559.42578125 c 128,-1,3
 154.072265625 471.53515625 154.072265625 471.53515625 179.43359375 384.145507812 c 128,-1,4
 204.776367188 296.814453125 204.776367188 296.814453125 231.170898438 216.982421875 c 0,5,6
 236.208984375 201.744140625 236.208984375 201.744140625 241.231445312 186.837890625 c 128,-1,7
 246.252929688 171.931640625 246.252929688 171.931640625 251.053710938 157.959960938 c 128,-1,8
 255.852539062 143.987304688 255.852539062 143.987304688 260.436523438 130.915039062 c 128,-1,9
 265.01953125 117.842773438 265.01953125 117.842773438 269.299804688 105.916992188 c 1,10,11
 277.967773438 131.983398438 277.967773438 131.983398438 286.9296875 159.20703125 c 128,-1,12
 295.892578125 186.430664062 295.892578125 186.430664062 306.185546875 217.94921875 c 0,13,14
 319.391601562 258.392578125 319.391601562 258.392578125 332.600585938 300.588867188 c 128,-1,15
 345.80859375 342.78515625 345.80859375 342.78515625 359.017578125 386.732421875 c 0,16,17
 385.419921875 474.5703125 385.419921875 474.5703125 408.122070312 561.399414062 c 128,-1,18
 430.802734375 648.142578125 430.802734375 648.142578125 445.5625 720.883789062 c 2,19,-1
 447.209960938 729 l 1,20,-1
 455.610351562 729 l 1,21,-1
 557.610351562 729 l 1,22,-1
 569.70703125 729 l 1,23,-1
 567.432617188 717.439453125 l 2,24,25
 558.361328125 671.34765625 558.361328125 671.34765625 536.763671875 593.63671875 c 128,-1,26
 515.219726562 516.12109375 515.219726562 516.12109375 485.690429688 420.180664062 c 128,-1,27
 456.149414062 324.201171875 456.149414062 324.201171875 418.397460938 217.061523438 c 0,28,29
 380.250976562 109.861328125 380.250976562 109.861328125 338.919921875 6.546875 c 2,30,-1
 336.372070312 0 l 1,31,-1
 328.990234375 0 l 1,32,-1
 202.028320312 0 l 1,33,-1
 194.515625 0 l 1,34,-1
 192.0390625 6.7041015625 l 2,35,36
 152.837890625 109.9921875 152.837890625 109.9921875 116.2890625 216.680664062 c 0,37,38
 80.0537109375 323.290039062 80.0537109375 323.290039062 50.53125 419.208984375 c 128,-1,39
 20.9912109375 515.18359375 20.9912109375 515.18359375 -0.0615234375 593.220703125 c 128,-1,40
 -21.095703125 671.19140625 -21.095703125 671.19140625 -32.1259765625 717.051757812 c 2,41,-1
 -35 729 l 1,42,-1
 -22.3896484375 729 l 1,43,-1
 82.6103515625 729 l 1,44,-1
 91.23828125 729 l 1,0,-1
EndSplineSet
EndChar

StartChar: W
Encoding: 87 87 58
Width: 550
VWidth: 1177
Flags: W
LayerCount: 2
Fore
SplineSet
161.372070312 0 m 1,0,-1
 153.510742188 0 l 1,1,-1
 61.310546875 0 l 1,2,-1
 52.72265625 0 l 1,3,-1
 51.42578125 8.4892578125 l 2,4,5
 40.3759765625 78.8583984375 40.3759765625 78.8583984375 32.8486328125 163.337890625 c 0,6,7
 25.33984375 247.59375 25.33984375 247.59375 18.8349609375 339.131835938 c 128,-1,8
 12.328125 430.688476562 12.328125 430.688476562 7.3232421875 527.099609375 c 128,-1,9
 2.318359375 623.521484375 2.318359375 623.521484375 -0.6845703125 718.97265625 c 2,10,-1
 -1 729 l 1,11,-1
 9.310546875 729 l 1,12,-1
 103.310546875 729 l 1,13,-1
 113.099609375 729 l 1,14,-1
 113.30859375 719.213867188 l 1,15,-1
 125.438476562 170.182617188 l 1,16,-1
 219.169921875 445.041992188 l 1,17,-1
 221.54296875 452 l 1,18,-1
 229.344726562 452 l 1,19,-1
 320.1328125 452 l 1,20,-1
 327.889648438 452 l 1,21,-1
 330.290039062 445.09375 l 1,22,-1
 426.153320312 169.190429688 l 1,23,-1
 438.313476562 719.213867188 l 1,24,-1
 438.522460938 729 l 1,25,-1
 448.310546875 729 l 1,26,-1
 542.310546875 729 l 1,27,-1
 552.72265625 729 l 1,28,-1
 552.302734375 718.876953125 l 2,29,30
 548.30078125 622.502929688 548.30078125 622.502929688 543.297851562 526.12890625 c 128,-1,31
 538.291992188 429.692382812 538.291992188 429.692382812 531.283203125 338.594726562 c 128,-1,32
 524.274414062 247.514648438 524.274414062 247.514648438 515.762695312 163.713867188 c 1,33,-1
 498.235351562 8.7763671875 l 1,34,-1
 497.153320312 0 l 1,35,-1
 488.310546875 0 l 1,36,-1
 397.03515625 0 l 1,37,-1
 389.215820312 0 l 1,38,-1
 386.853515625 6.9794921875 l 1,39,-1
 274.294921875 339.624023438 l 1,40,-1
 163.708984375 7.02734375 l 1,41,-1
 161.372070312 0 l 1,0,-1
EndSplineSet
EndChar

StartChar: X
Encoding: 88 88 59
Width: 550
VWidth: 1177
Flags: W
LayerCount: 2
Fore
SplineSet
433.166992188 0 m 1,0,-1
 430.475585938 6.236328125 l 2,1,2
 416.716796875 38.11328125 416.716796875 38.11328125 398.181640625 77.9921875 c 128,-1,3
 379.651367188 117.856445312 379.651367188 117.856445312 358.461914062 160.2421875 c 128,-1,4
 337.34375 202.48046875 337.34375 202.48046875 313.045898438 244.740234375 c 0,5,6
 303.174804688 261.91015625 303.174804688 261.91015625 292.799804688 278.21875 c 128,-1,7
 282.42578125 294.52734375 282.42578125 294.52734375 271.854492188 309.556640625 c 1,8,9
 251.7578125 278.165039062 251.7578125 278.165039062 232.658203125 244.506835938 c 128,-1,10
 213.55859375 210.849609375 213.55859375 210.849609375 193.854492188 172.17578125 c 0,11,12
 150.357421875 86.7978515625 150.357421875 86.7978515625 112.177734375 5.9384765625 c 2,13,-1
 109.374023438 0 l 1,14,-1
 102.46875 0 l 1,15,-1
 -2.55859375 0 l 1,16,-1
 -18 0 l 1,17,-1
 -11.68359375 13.7138671875 l 2,18,19
 27.4189453125 98.61328125 27.4189453125 98.61328125 79.5322265625 198.106445312 c 0,20,21
 132.112304688 295.111328125 132.112304688 295.111328125 193.201171875 384.76171875 c 1,22,-1
 0.6884765625 714.561523438 l 1,23,-1
 -7.505859375 729 l 1,24,-1
 9.44140625 729 l 1,25,-1
 117.342773438 729 l 1,26,-1
 123.8359375 729 l 1,27,-1
 126.797851562 723.561523438 l 1,28,-1
 269.586914062 461.341796875 l 1,29,-1
 422.504882812 723.80859375 l 1,30,-1
 425.529296875 729 l 1,31,-1
 431.819335938 729 l 1,32,-1
 537.44140625 729 l 1,33,-1
 554.6171875 729 l 1,34,-1
 546.137695312 714.461914062 l 1,35,-1
 350.673828125 388.557617188 l 1,36,37
 359.333007812 375.69140625 359.333007812 375.69140625 367.760742188 362.904296875 c 128,-1,38
 376.188476562 350.118164062 376.188476562 350.118164062 384.435546875 337.334960938 c 128,-1,39
 392.682617188 324.552734375 392.682617188 324.552734375 400.783203125 311.719726562 c 128,-1,40
 408.8828125 298.885742188 408.8828125 298.885742188 416.844726562 285.9921875 c 128,-1,41
 424.806640625 273.09765625 424.806640625 273.09765625 432.70703125 260.017578125 c 128,-1,42
 440.608398438 246.9375 440.608398438 246.9375 448.060546875 233.732421875 c 128,-1,43
 455.408203125 220.528320312 455.408203125 220.528320312 462.776367188 207.005859375 c 0,44,45
 515.499023438 110.241210938 515.499023438 110.241210938 556.680664062 13.45703125 c 2,46,-1
 562.40625 0 l 1,47,-1
 547.44140625 0 l 1,48,-1
 440.318359375 0 l 1,49,-1
 433.166992188 0 l 1,0,-1
EndSplineSet
EndChar

StartChar: Y
Encoding: 89 89 60
Width: 550
VWidth: 1177
Flags: W
LayerCount: 2
Fore
SplineSet
197.115234375 0 m 1,0,-1
 197.115234375 10 l 1,1,-1
 197.115234375 270.93359375 l 1,2,3
 121.649414062 384.928710938 121.649414062 384.928710938 61.5732421875 492.46484375 c 0,4,5
 32.435546875 546.963867188 32.435546875 546.963867188 6.8125 602.809570312 c 128,-1,6
 -18.8095703125 658.65625 -18.8095703125 658.65625 -40.916015625 715.845703125 c 2,7,-1
 -46 729 l 1,8,-1
 -31.5556640625 729 l 1,9,-1
 77.6416015625 729 l 1,10,-1
 85.189453125 729 l 1,11,-1
 87.6416015625 722.248046875 l 2,12,13
 105.510742188 673.034179688 105.510742188 673.034179688 126.00390625 626.071289062 c 128,-1,14
 146.49609375 579.108398438 146.49609375 579.108398438 169.609375 534.392578125 c 0,15,16
 190.580078125 493.822265625 190.580078125 493.822265625 213.713867188 451.049804688 c 128,-1,17
 236.84765625 408.27734375 236.84765625 408.27734375 260.573242188 366.166015625 c 1,18,19
 286.549804688 412.143554688 286.549804688 412.143554688 309.30859375 455.006835938 c 128,-1,20
 332.065429688 497.87109375 332.065429688 497.87109375 352.47265625 539.228515625 c 0,21,22
 396.676757812 628.821289062 396.676757812 628.821289062 432.46484375 722.401367188 c 2,23,-1
 434.98828125 729 l 1,24,-1
 442.407226562 729 l 1,25,-1
 548.444335938 729 l 1,26,-1
 563.095703125 729 l 1,27,-1
 557.756835938 715.725585938 l 2,28,29
 512.555664062 603.3359375 512.555664062 603.3359375 454.797851562 496.323242188 c 0,30,31
 395.259765625 390.811523438 395.259765625 390.811523438 320.818359375 272.987304688 c 1,32,-1
 320.818359375 10 l 1,33,-1
 320.818359375 0 l 1,34,-1
 310.24609375 0 l 1,35,-1
 207.688476562 0 l 1,36,-1
 197.115234375 0 l 1,0,-1
EndSplineSet
EndChar

StartChar: Z
Encoding: 90 90 61
Width: 550
VWidth: 1177
Flags: W
LayerCount: 2
Fore
SplineSet
523 640.735351562 m 1,0,-1
 521.07421875 638.099609375 l 2,1,2
 502.169921875 612.231445312 502.169921875 612.231445312 481.1171875 581.461914062 c 128,-1,3
 460.064453125 550.692382812 460.064453125 550.692382812 436.8828125 515.047851562 c 0,4,5
 388.721679688 443.625976562 388.721679688 443.625976562 336.418945312 366.1953125 c 128,-1,6
 284.166992188 288.837890625 284.166992188 288.837890625 235.147460938 210.485351562 c 0,7,8
 213.525390625 175.923828125 213.525390625 175.923828125 194.078125 143.575195312 c 128,-1,9
 174.631835938 111.2265625 174.631835938 111.2265625 157.88671875 82 c 1,10,-1
 522 82 l 1,11,-1
 532 82 l 1,12,-1
 532 74.173828125 l 1,13,-1
 532 10 l 1,14,-1
 532 0 l 1,15,-1
 522 0 l 1,16,-1
 30 0 l 1,17,-1
 20 0 l 1,18,-1
 20 10 l 1,19,-1
 20 74 l 1,20,-1
 20 76.3603515625 l 1,21,-1
 21.0556640625 78.4716796875 l 2,22,23
 58.1640625 152.689453125 58.1640625 152.689453125 101.766601562 230.87109375 c 0,24,25
 145.78515625 309.037109375 145.78515625 309.037109375 195.543945312 384.703125 c 128,-1,26
 245.26953125 460.31640625 245.26953125 460.31640625 295.004882812 531.4375 c 0,27,28
 338.173828125 593.16796875 338.173828125 593.16796875 379.201171875 647 c 1,29,-1
 47 647 l 1,30,-1
 37 647 l 1,31,-1
 37 654.826171875 l 1,32,-1
 37 719 l 1,33,-1
 37 729 l 1,34,-1
 47 729 l 1,35,-1
 513 729 l 1,36,-1
 523 729 l 1,37,-1
 523 719 l 1,38,-1
 523 644 l 1,39,-1
 523 640.735351562 l 1,0,-1
EndSplineSet
EndChar

StartChar: bracketleft
Encoding: 91 91 62
Width: 550
VWidth: 1177
Flags: W
LayerCount: 2
Fore
SplineSet
147 833 m 1,0,-1
 429 833 l 1,1,-1
 439 833 l 1,2,-1
 439 823 l 1,3,-1
 439 747 l 1,4,-1
 439 737 l 1,5,-1
 429 737 l 1,6,-1
 249 737 l 1,7,-1
 249 -108 l 1,8,-1
 429 -108 l 1,9,-1
 439 -108 l 1,10,-1
 439 -118 l 1,11,-1
 439 -194 l 1,12,-1
 439 -204 l 1,13,-1
 429 -204 l 1,14,-1
 147 -204 l 1,15,-1
 137 -204 l 1,16,-1
 137 -194 l 1,17,-1
 137 823 l 1,18,-1
 137 833 l 1,19,-1
 147 833 l 1,0,-1
EndSplineSet
Substitution2: "'case' Case-Sensitive Forms lookup 17 subtable" Bracketleft
EndChar

StartChar: backslash
Encoding: 92 92 63
Width: 550
VWidth: 1177
Flags: W
LayerCount: 2
Fore
SplineSet
62.70703125 833 m 1,0,-1
 160.70703125 833 l 1,1,-1
 168.002929688 833 l 1,2,-1
 170.229492188 826.052734375 l 1,3,-1
 496.229492188 -190.947265625 l 1,4,-1
 500.4140625 -204 l 1,5,-1
 486.70703125 -204 l 1,6,-1
 388.70703125 -204 l 1,7,-1
 381.411132812 -204 l 1,8,-1
 379.184570312 -197.052734375 l 1,9,-1
 53.1845703125 819.947265625 l 1,10,-1
 49 833 l 1,11,-1
 62.70703125 833 l 1,0,-1
EndSplineSet
Substitution2: "'case' Case-Sensitive Forms lookup 17 subtable" Backslash
EndChar

StartChar: bracketright
Encoding: 93 93 64
Width: 550
VWidth: 1177
Flags: W
LayerCount: 2
Fore
SplineSet
402 -204 m 1,0,-1
 121 -204 l 1,1,-1
 111 -204 l 1,2,-1
 111 -194 l 1,3,-1
 111 -118 l 1,4,-1
 111 -108 l 1,5,-1
 121 -108 l 1,6,-1
 301 -108 l 1,7,-1
 301 737 l 1,8,-1
 121 737 l 1,9,-1
 111 737 l 1,10,-1
 111 747 l 1,11,-1
 111 823 l 1,12,-1
 111 833 l 1,13,-1
 121 833 l 1,14,-1
 402 833 l 1,15,-1
 412 833 l 1,16,-1
 412 823 l 1,17,-1
 412 -194 l 1,18,-1
 412 -204 l 1,19,-1
 402 -204 l 1,0,-1
EndSplineSet
Substitution2: "'case' Case-Sensitive Forms lookup 17 subtable" Bracketright
EndChar

StartChar: asciicircum
Encoding: 94 94 65
Width: 550
VWidth: 1177
Flags: W
LayerCount: 2
Fore
SplineSet
326.55078125 733.951171875 m 1,0,-1
 530.55078125 375.951171875 l 1,1,-1
 535.724609375 366.87109375 l 1,2,-1
 526.42578125 362.1015625 l 1,3,-1
 448.42578125 322.1015625 l 1,4,-1
 439.927734375 317.744140625 l 1,5,-1
 435.18359375 326.032226562 l 1,6,-1
 273.887695312 607.825195312 l 1,7,-1
 113.553710938 326.0546875 l 1,8,-1
 108.818359375 317.732421875 l 1,9,-1
 100.298828125 322.1015625 l 1,10,-1
 22.298828125 362.1015625 l 1,11,-1
 13 366.87109375 l 1,12,-1
 18.173828125 375.951171875 l 1,13,-1
 222.173828125 733.951171875 l 1,14,-1
 225.05078125 739 l 1,15,-1
 230.862304688 739 l 1,16,-1
 317.862304688 739 l 1,17,-1
 323.673828125 739 l 1,18,-1
 326.55078125 733.951171875 l 1,0,-1
EndSplineSet
EndChar

StartChar: underscore
Encoding: 95 95 66
Width: 550
VWidth: 1177
Flags: W
LayerCount: 2
Fore
SplineSet
-3 -102 m 1,0,-1
 568 -102 l 1,1,-1
 578 -102 l 1,2,-1
 578 -112 l 1,3,-1
 578 -194 l 1,4,-1
 578 -204 l 1,5,-1
 568 -204 l 1,6,-1
 -3 -204 l 1,7,-1
 -13 -204 l 1,8,-1
 -13 -194 l 1,9,-1
 -13 -112 l 1,10,-1
 -13 -102 l 1,11,-1
 -3 -102 l 1,0,-1
EndSplineSet
EndChar

StartChar: grave
Encoding: 96 96 67
Width: 550
VWidth: 1177
Flags: W
LayerCount: 2
Fore
SplineSet
242.8984375 822.401367188 m 1,0,-1
 377.8984375 660.401367188 l 1,1,-1
 384.129882812 652.923828125 l 1,2,-1
 376.822265625 646.493164062 l 1,3,-1
 326.822265625 602.493164062 l 1,4,-1
 319.8515625 596.358398438 l 1,5,-1
 313.217773438 602.856445312 l 1,6,-1
 166.217773438 746.856445312 l 1,7,-1
 159 753.926757812 l 1,8,-1
 166.14453125 761.071289062 l 1,9,-1
 228.14453125 823.071289062 l 1,10,-1
 235.887695312 830.814453125 l 1,11,-1
 242.8984375 822.401367188 l 1,0,-1
EndSplineSet
EndChar

StartChar: a
Encoding: 97 97 68
Width: 550
VWidth: 1177
Flags: W
LayerCount: 2
Fore
SplineSet
183.7578125 107.440429688 m 0,0,1
 220.467773438 89 220.467773438 89 284.041015625 89 c 0,2,3
 323.919921875 89 323.919921875 89 355.077148438 91.3125 c 0,4,5
 378.8125 93.0751953125 378.8125 93.0751953125 396 95.7548828125 c 1,6,-1
 396 233.153320312 l 1,7,8
 387.297851562 235.265625 387.297851562 235.265625 377.688476562 236.874023438 c 128,-1,9
 368.078125 238.483398438 368.078125 238.483398438 356.740234375 239.796875 c 0,10,11
 329.111328125 243 329.111328125 243 297.126953125 243 c 0,12,13
 287.583984375 243 287.583984375 243 278.163085938 242.594726562 c 128,-1,14
 268.743164062 242.188476562 268.743164062 242.188476562 259.452148438 241.37890625 c 128,-1,15
 250.162109375 240.568359375 250.162109375 240.568359375 240.98828125 239.353515625 c 0,16,17
 214.434570312 235.834960938 214.434570312 235.834960938 194.236328125 226.704101562 c 0,18,19
 174.557617188 217.807617188 174.557617188 217.807617188 161.842773438 203.491210938 c 0,20,21
 157.916015625 199.068359375 157.916015625 199.068359375 155.291992188 193.889648438 c 128,-1,22
 152.66796875 188.7109375 152.66796875 188.7109375 151.2890625 182.411132812 c 128,-1,23
 150 176.110351562 150 176.110351562 150 168.817382812 c 0,24,25
 150 124.442382812 150 124.442382812 183.7578125 107.440429688 c 0,0,1
164.098632812 551.888671875 m 0,26,27
 215.614257812 559 215.614257812 559 274.2265625 559 c 0,28,29
 342.635742188 559 342.635742188 559 390.21484375 543.416992188 c 0,30,31
 412.341796875 535.8515625 412.341796875 535.8515625 430.33984375 525.135742188 c 128,-1,32
 448.337890625 514.420898438 448.337890625 514.420898438 462.203125 500.541015625 c 0,33,34
 471.463867188 491.271484375 471.463867188 491.271484375 478.903320312 480.591796875 c 128,-1,35
 486.342773438 469.912109375 486.342773438 469.912109375 491.899414062 457.950195312 c 128,-1,36
 497.456054688 445.989257812 497.456054688 445.989257812 501.15625 432.743164062 c 0,37,38
 504.780273438 419.768554688 504.780273438 419.768554688 507.192382812 406.034179688 c 128,-1,39
 509.604492188 392.30078125 509.604492188 392.30078125 510.801757812 377.884765625 c 128,-1,40
 512 363.469726562 512 363.469726562 512 348.303710938 c 2,41,-1
 512 18.64453125 l 1,42,-1
 512 10.5576171875 l 1,43,-1
 503.73828125 9.15234375 l 2,44,45
 495.17578125 7.6416015625 495.17578125 7.6416015625 485.250976562 6.0078125 c 128,-1,46
 475.325195312 4.3740234375 475.325195312 4.3740234375 464.03515625 2.6181640625 c 128,-1,47
 452.744140625 0.8623046875 452.744140625 0.8623046875 440.096679688 -1.0166015625 c 128,-1,48
 427.448242188 -2.89453125 427.448242188 -2.89453125 413.4140625 -4.8994140625 c 0,49,50
 384.428710938 -8.9501953125 384.428710938 -8.9501953125 352.688476562 -10.9755859375 c 128,-1,51
 320.950195312 -13 320.950195312 -13 288.40234375 -13 c 0,52,53
 263.40234375 -13 263.40234375 -13 239.0703125 -11.087890625 c 128,-1,54
 214.73828125 -9.1748046875 214.73828125 -9.1748046875 191.088867188 -5.34765625 c 0,55,56
 167.018554688 -1.453125 167.018554688 -1.453125 145.958007812 5.603515625 c 0,57,58
 126.225585938 12.45703125 126.225585938 12.45703125 108.913085938 22.3916015625 c 0,59,60
 73.66015625 42.62109375 73.66015625 42.62109375 52.3486328125 78.3232421875 c 128,-1,61
 31 114.0859375 31 114.0859375 31 168.16796875 c 0,62,63
 31 192.224609375 31 192.224609375 36.6337890625 212.8046875 c 128,-1,64
 42.2666015625 233.385742188 42.2666015625 233.385742188 53.6396484375 250.21484375 c 0,65,66
 75.841796875 283.0703125 75.841796875 283.0703125 109.700195312 303.62109375 c 0,67,68
 126.48046875 313.805664062 126.48046875 313.805664062 145.798828125 321.158203125 c 0,69,70
 166.39453125 328.510742188 166.39453125 328.510742188 190.153320312 333.043945312 c 0,71,72
 237.083984375 342 237.083984375 342 284.041015625 342 c 0,73,74
 312.44921875 342 312.44921875 342 340.920898438 339.309570312 c 128,-1,75
 369.392578125 336.619140625 369.392578125 336.619140625 396 331.47265625 c 1,76,-1
 396 345.6796875 l 2,77,78
 396 353.033203125 396 353.033203125 395.467773438 360.180664062 c 128,-1,79
 394.935546875 367.327148438 394.935546875 367.327148438 393.875976562 374.24609375 c 128,-1,80
 392.81640625 381.1640625 392.81640625 381.1640625 391.159179688 387.885742188 c 0,81,82
 386.241210938 406.967773438 386.241210938 406.967773438 371.4453125 422.779296875 c 0,83,84
 364.125976562 430.600585938 364.125976562 430.600585938 354.318359375 436.806640625 c 128,-1,85
 344.508789062 443.012695312 344.508789062 443.012695312 331.993164062 447.659179688 c 0,86,87
 306.829101562 457 306.829101562 457 265.501953125 457 c 0,88,89
 210.896484375 457 210.896484375 457 170.994140625 461.376953125 c 0,90,91
 132.583984375 459.193359375 132.583984375 459.193359375 113.303710938 457.044921875 c 2,92,-1
 101.90234375 453.0546875 l 1,93,-1
 100.110351562 465 l 1,94,-1
 88.1103515625 528.55859375 l 1,95,-1
 86.986328125 534.51171875 l 1,96,-1
 93.896484375 536.981445312 l 2,97,98
 104.94140625 540.930664062 104.94140625 540.930664062 121.966796875 544.181640625 c 0,99,100
 138.993164062 548.272460938 138.993164062 548.272460938 164.098632812 551.888671875 c 0,26,27
EndSplineSet
Substitution2: "'case' Case-Sensitive Forms lookup 18 subtable" A
Substitution2: "'ordn' Ordinals in Latin lookup 7 subtable" ordfeminine
EndChar

StartChar: b
Encoding: 98 98 69
Width: 550
VWidth: 1177
Flags: W
LayerCount: 2
Fore
SplineSet
150 806 m 1,0,-1
 150 533.577148438 l 1,1,2
 156.276367188 536.345703125 156.276367188 536.345703125 162.836914062 538.772460938 c 128,-1,3
 169.397460938 541.198242188 169.397460938 541.198242188 176.251953125 543.408203125 c 128,-1,4
 183.106445312 545.6171875 183.106445312 545.6171875 191.493164062 548.041992188 c 0,5,6
 229.391601562 559 229.391601562 559 275.49609375 559 c 0,7,8
 296.08984375 559 296.08984375 559 315.383789062 556.573242188 c 128,-1,9
 334.677734375 554.146484375 334.677734375 554.146484375 352.745117188 549.255859375 c 128,-1,10
 370.813476562 544.364257812 370.813476562 544.364257812 387.484375 537.024414062 c 0,11,12
 404.087890625 529.98046875 404.087890625 529.98046875 418.361328125 521.059570312 c 0,13,14
 432.098632812 512.137695312 432.098632812 512.137695312 444.223632812 501.357421875 c 128,-1,15
 456.348632812 490.577148438 456.348632812 490.577148438 466.80859375 477.978515625 c 0,16,17
 498.006835938 440.400390625 498.006835938 440.400390625 514.565429688 388.044921875 c 0,18,19
 522.798828125 362.013671875 522.798828125 362.013671875 526.899414062 333.243164062 c 128,-1,20
 531 304.471679688 531 304.471679688 531 272.977539062 c 0,21,22
 531 251.287109375 531 251.287109375 528.837890625 230.986328125 c 128,-1,23
 526.67578125 210.685546875 526.67578125 210.685546875 522.318359375 191.671875 c 128,-1,24
 517.9609375 172.657226562 517.9609375 172.657226562 511.413085938 155.05859375 c 0,25,26
 491.731445312 102.155273438 491.731445312 102.155273438 456.36328125 65.068359375 c 0,27,28
 438.625976562 46.4677734375 438.625976562 46.4677734375 417.075195312 32.12109375 c 0,29,30
 394.223632812 17.7734375 394.223632812 17.7734375 366.893554688 7.7548828125 c 0,31,32
 348.671875 0.82421875 348.671875 0.82421875 329.137695312 -3.7939453125 c 128,-1,33
 309.602539062 -8.412109375 309.602539062 -8.412109375 288.893554688 -10.7060546875 c 128,-1,34
 268.184570312 -13 268.184570312 -13 246.2265625 -13 c 0,35,36
 174.75390625 -13 174.75390625 -13 121.651367188 -3.3271484375 c 0,37,38
 70.6318359375 6.0341796875 70.6318359375 6.0341796875 40.126953125 14.9609375 c 2,39,-1
 33 17.0458984375 l 1,40,-1
 33 24.3037109375 l 1,41,-1
 33 790 l 1,42,-1
 33 798.485351562 l 1,43,-1
 41.3720703125 799.866210938 l 1,44,-1
 138.372070312 815.866210938 l 1,45,-1
 150 817.784179688 l 1,46,-1
 150 806 l 1,0,-1
150 416.26953125 m 1,47,-1
 150 82 l 1,48,49
 156.443359375 83.720703125 156.443359375 83.720703125 162.932617188 85.125 c 128,-1,50
 169.421875 86.5283203125 169.421875 86.5283203125 175.873046875 87.65625 c 128,-1,51
 182.325195312 88.7841796875 182.325195312 88.7841796875 189.090820312 89.7041015625 c 0,52,53
 201.229492188 91.3544921875 201.229492188 91.3544921875 212.537109375 92.177734375 c 128,-1,54
 223.844726562 93 223.844726562 93 234.302734375 93 c 0,55,56
 317.3515625 93 317.3515625 93 363.997070312 137.30859375 c 0,57,58
 411 181.958007812 411 181.958007812 411 273 c 0,59,60
 411 311.729492188 411 311.729492188 402.053710938 346.221679688 c 0,61,62
 397.643554688 363.227539062 397.643554688 363.227539062 390.96484375 377.59375 c 128,-1,63
 384.286132812 391.9609375 384.286132812 391.9609375 375.395507812 403.7265625 c 128,-1,64
 366.611328125 415.350585938 366.611328125 415.350585938 355.424804688 424.366210938 c 128,-1,65
 344.239257812 433.381835938 344.239257812 433.381835938 330.46875 439.946289062 c 0,66,67
 303.084960938 453 303.084960938 453 263.571289062 453 c 0,68,69
 246.213867188 453 246.213867188 453 229.416015625 449.82421875 c 128,-1,70
 212.619140625 446.6484375 212.619140625 446.6484375 196.23828125 440.26171875 c 0,71,72
 167.151367188 428.918945312 167.151367188 428.918945312 150 416.26953125 c 1,47,-1
EndSplineSet
Substitution2: "'case' Case-Sensitive Forms lookup 18 subtable" B
EndChar

StartChar: c
Encoding: 99 99 70
Width: 550
VWidth: 1177
Flags: W
LayerCount: 2
Fore
SplineSet
40.2216796875 148.452148438 m 0,0,1
 18 201.755859375 18 201.755859375 18 272.064453125 c 0,2,3
 18 308.611328125 18 308.611328125 24.0576171875 340.543945312 c 128,-1,4
 30.115234375 372.4765625 30.115234375 372.4765625 42.3173828125 399.754882812 c 0,5,6
 66.73828125 454.352539062 66.73828125 454.352539062 109.5078125 489.547851562 c 0,7,8
 123.701171875 501.228515625 123.701171875 501.228515625 139.649414062 510.915039062 c 0,9,10
 156.723632812 520.6015625 156.723632812 520.6015625 175.466796875 528.256835938 c 128,-1,11
 194.208984375 535.911132812 194.208984375 535.911132812 214.635742188 541.553710938 c 128,-1,12
 234.9453125 547.374023438 234.9453125 547.374023438 256.118164062 551.252929688 c 128,-1,13
 277.291015625 555.131835938 277.291015625 555.131835938 299.258789062 557.06640625 c 128,-1,14
 321.225585938 559 321.225585938 559 344.024414062 559 c 0,15,16
 387.850585938 559 387.850585938 559 429.755859375 553.920898438 c 0,17,18
 470.129882812 548.810546875 470.129882812 548.810546875 515.970703125 534.548828125 c 2,19,-1
 525.094726562 531.709960938 l 1,20,-1
 522.673828125 522.466796875 l 1,21,-1
 500.673828125 438.466796875 l 1,22,-1
 497.905273438 427.896484375 l 1,23,-1
 487.62109375 431.587890625 l 2,24,25
 449.670898438 445.2109375 449.670898438 445.2109375 418.278320312 449.075195312 c 0,26,27
 384.3515625 453 384.3515625 453 349.416992188 453 c 0,28,29
 305.643554688 453 305.643554688 453 266.123046875 442.954101562 c 0,30,31
 253.153320312 439.657226562 253.153320312 439.657226562 241.436523438 435.084960938 c 128,-1,32
 229.719726562 430.51171875 229.719726562 430.51171875 219.28125 424.692382812 c 128,-1,33
 208.842773438 418.874023438 208.842773438 418.874023438 199.564453125 411.762695312 c 0,34,35
 185.697265625 401.134765625 185.697265625 401.134765625 174.54296875 387.221679688 c 128,-1,36
 163.389648438 373.30859375 163.389648438 373.30859375 154.92578125 355.966796875 c 0,37,38
 138 321.28515625 138 321.28515625 138 272.079101562 c 0,39,40
 138 248.264648438 138 248.264648438 141.875 228.072265625 c 128,-1,41
 145.751953125 207.879882812 145.751953125 207.879882812 153.389648438 191.334960938 c 0,42,43
 168.583984375 158.420898438 168.583984375 158.420898438 196.794921875 137.186523438 c 0,44,45
 225.294921875 115.735351562 225.294921875 115.735351562 265.217773438 104.948242188 c 0,46,47
 305.735351562 94 305.735351562 94 354.810546875 94 c 0,48,49
 375.006835938 94 375.006835938 94 394.248046875 94.984375 c 128,-1,50
 413.3984375 95.96875 413.3984375 95.96875 430.348632812 97.93359375 c 0,51,52
 463.673828125 101.796875 463.673828125 101.796875 503.564453125 116.391601562 c 2,53,-1
 514.836914062 120.515625 l 1,54,-1
 516.857421875 108.682617188 l 1,55,-1
 530.857421875 26.6826171875 l 1,56,-1
 532.259765625 18.470703125 l 1,57,-1
 524.435546875 15.6083984375 l 2,58,59
 482.498046875 0.265625 482.498046875 0.265625 439.01171875 -6.384765625 c 0,60,61
 394.462890625 -13 394.462890625 -13 340.788085938 -13 c 0,62,63
 316.528320312 -13 316.528320312 -13 293.583007812 -10.896484375 c 128,-1,64
 270.637695312 -8.79296875 270.637695312 -8.79296875 248.920898438 -4.5625 c 128,-1,65
 227.204101562 -0.3310546875 227.204101562 -0.3310546875 206.831054688 6.021484375 c 0,66,67
 145.4296875 24.4794921875 145.4296875 24.4794921875 103.868164062 59.517578125 c 0,68,69
 62.6015625 94.7666015625 62.6015625 94.7666015625 40.2216796875 148.452148438 c 0,0,1
EndSplineSet
Substitution2: "'case' Case-Sensitive Forms lookup 18 subtable" C
EndChar

StartChar: d
Encoding: 100 100 71
Width: 550
VWidth: 1177
Flags: W
LayerCount: 2
Fore
SplineSet
399 82 m 2,0,-1
 399 416.4453125 l 1,1,2
 394.0625 420.44921875 394.0625 420.44921875 387.3125 424.408203125 c 128,-1,3
 380.563476562 428.3671875 380.563476562 428.3671875 372.001953125 432.372070312 c 128,-1,4
 363.440429688 436.377929688 363.440429688 436.377929688 353.358398438 440.24609375 c 0,5,6
 320.124023438 453 320.124023438 453 285.428710938 453 c 0,7,8
 275.4140625 453 275.4140625 453 266.19921875 454.3515625 c 128,-1,9
 256.984375 455.704101562 256.984375 455.704101562 248.643554688 458.3828125 c 128,-1,10
 240.302734375 461.0625 240.302734375 461.0625 232.797851562 465 c 0,11,12
 225.29296875 462.4375 225.29296875 462.4375 218.53125 459.037109375 c 0,13,14
 191.088867188 445.235351562 191.088867188 445.235351562 173.604492188 420.82421875 c 0,15,16
 155.713867188 395.846679688 155.713867188 395.846679688 146.939453125 360.626953125 c 0,17,18
 138 324.75 138 324.75 138 282.904296875 c 0,19,20
 138 191.676757812 138 191.676757812 184.137695312 142.51953125 c 0,21,22
 229.676757812 94 229.676757812 94 302.7734375 94 c 0,23,24
 315.92578125 94 315.92578125 94 327.678710938 93.365234375 c 128,-1,25
 339.431640625 92.7314453125 339.431640625 92.7314453125 349.606445312 91.486328125 c 128,-1,26
 359.782226562 90.2421875 359.782226562 90.2421875 368.479492188 88.390625 c 0,27,28
 373.198242188 87.38671875 373.198242188 87.38671875 377.662109375 86.2978515625 c 128,-1,29
 382.125976562 85.208984375 382.125976562 85.208984375 385.984375 84.130859375 c 128,-1,30
 389.84375 83.0537109375 389.84375 83.0537109375 393.165039062 82 c 0,31,32
 396.447265625 82 396.447265625 82 399 82 c 2,0,-1
399 798.485351562 m 1,33,-1
 407.372070312 799.866210938 l 1,34,-1
 504.372070312 815.866210938 l 1,35,-1
 516 817.784179688 l 1,36,-1
 516 806 l 1,37,-1
 516 24.3173828125 l 1,38,-1
 516 16.923828125 l 1,39,-1
 508.70703125 14.9228515625 l 2,40,41
 476.309570312 6.0302734375 476.309570312 6.0302734375 426.903320312 -3.3173828125 c 0,42,43
 375.360351562 -13 375.360351562 -13 302.7734375 -13 c 0,44,45
 236.66796875 -13 236.66796875 -13 182.106445312 7.7548828125 c 0,46,47
 163.895507812 14.4404296875 163.895507812 14.4404296875 147.4453125 23.0498046875 c 0,48,49
 131.5390625 31.658203125 131.5390625 31.658203125 118.000976562 42.1953125 c 128,-1,50
 104.462890625 52.7314453125 104.462890625 52.7314453125 92.63671875 65.1513671875 c 0,51,52
 57.2685546875 102.291992188 57.2685546875 102.291992188 37.5869140625 155.2734375 c 0,53,54
 18 207.997070312 18 207.997070312 18 273.36328125 c 0,55,56
 18 336.560546875 18 336.560546875 34.4345703125 388.59765625 c 0,57,58
 51.005859375 441.068359375 51.005859375 441.068359375 82.7421875 478.72265625 c 0,59,60
 93.3486328125 491.306640625 93.3486328125 491.306640625 105.442382812 502.076171875 c 128,-1,61
 117.53515625 512.844726562 117.53515625 512.844726562 131.088867188 521.7734375 c 0,62,63
 145.201171875 530.702148438 145.201171875 530.702148438 161.427734375 537.756835938 c 0,64,65
 210.29296875 559 210.29296875 559 273.50390625 559 c 0,66,67
 322.909179688 559 322.909179688 559 359.765625 548.015625 c 0,68,69
 382.625976562 541.202148438 382.625976562 541.202148438 399 533.908203125 c 1,70,-1
 399 790 l 1,71,-1
 399 798.485351562 l 1,33,-1
EndSplineSet
Substitution2: "'case' Case-Sensitive Forms lookup 18 subtable" D
EndChar

StartChar: e
Encoding: 101 101 72
Width: 550
VWidth: 1177
Flags: W
LayerCount: 2
Fore
SplineSet
183.1953125 540.846679688 m 0,0,1
 234.459960938 559 234.459960938 559 288.00390625 559 c 0,2,3
 412.127929688 559 412.127929688 559 475.522460938 489.254882812 c 0,4,5
 538 420.075195312 538 420.075195312 538 280.64453125 c 2,6,-1
 538 246.69921875 l 1,7,-1
 538 237 l 1,8,-1
 528 237 l 1,9,-1
 127.9296875 237 l 1,10,11
 136.365234375 168.778320312 136.365234375 168.778320312 183.369140625 132.793945312 c 0,12,13
 234.04296875 94 234.04296875 94 327.754882812 94 c 0,14,15
 355.120117188 94 355.120117188 94 378.1796875 90.9775390625 c 128,-1,16
 401.239257812 87.955078125 401.239257812 87.955078125 419.702148438 82 c 0,17,18
 454.673828125 90.2568359375 454.673828125 90.2568359375 472.71875 98.8046875 c 2,19,-1
 484.786132812 104.520507812 l 1,20,-1
 486.876953125 91.3330078125 l 1,21,-1
 499.876953125 25.107421875 l 1,22,-1
 501.0234375 19.443359375 l 1,23,-1
 494.471679688 16.87890625 l 2,24,25
 484.568359375 13.0009765625 484.568359375 13.0009765625 468.430664062 9.025390625 c 0,26,27
 452.293945312 3.9482421875 452.293945312 3.9482421875 428.849609375 -1.7197265625 c 0,28,29
 412.880859375 -5.4951171875 412.880859375 -5.4951171875 394.618164062 -8.00390625 c 128,-1,30
 376.35546875 -10.513671875 376.35546875 -10.513671875 356.71875 -11.7568359375 c 128,-1,31
 337.08203125 -13 337.08203125 -13 315.936523438 -13 c 0,32,33
 237.53515625 -13 237.53515625 -13 178.094726562 9.7509765625 c 0,34,35
 119.212890625 31.7392578125 119.212890625 31.7392578125 82.23828125 69.3798828125 c 128,-1,36
 45.2138671875 107.0703125 45.2138671875 107.0703125 27.0126953125 159.69140625 c 0,37,38
 9 211.76953125 9 211.76953125 9 272.120117188 c 0,39,40
 9 344.397460938 9 344.397460938 32.26953125 398.217773438 c 128,-1,41
 55.5576171875 452.08203125 55.5576171875 452.08203125 93.52734375 487.670898438 c 0,42,43
 131.697265625 523.272460938 131.697265625 523.272460938 183.1953125 540.846679688 c 0,0,1
130.923828125 346.0703125 m 1,44,-1
 418.794921875 346.0703125 l 1,45,46
 417.40625 376.125976562 417.40625 376.125976562 408.431640625 398.950195312 c 128,-1,47
 399.458007812 421.7734375 399.458007812 421.7734375 382.580078125 439.420898438 c 0,48,49
 364.477539062 455.333984375 364.477539062 455.333984375 340.805664062 463.205078125 c 0,50,51
 317.131835938 457 317.131835938 457 286.9296875 457 c 0,52,53
 269.751953125 457 269.751953125 457 254.271484375 459.001953125 c 128,-1,54
 238.791992188 461.004882812 238.791992188 461.004882812 224.84375 465 c 0,55,56
 196.611328125 452.798828125 196.611328125 452.798828125 176.530273438 433.173828125 c 128,-1,57
 156.385742188 413.485351562 156.385742188 413.485351562 144.79296875 388.151367188 c 0,58,59
 141.794921875 381.598632812 141.794921875 381.598632812 139.075195312 374.1328125 c 128,-1,60
 136.354492188 366.666015625 136.354492188 366.666015625 134.306640625 359.563476562 c 128,-1,61
 132.2578125 352.459960938 132.2578125 352.459960938 130.923828125 346.0703125 c 1,44,-1
EndSplineSet
Substitution2: "'case' Case-Sensitive Forms lookup 18 subtable" E
EndChar

StartChar: f
Encoding: 102 102 73
Width: 550
VWidth: 1177
Flags: W
LayerCount: 2
Fore
SplineSet
127 0 m 1,0,-1
 127 10 l 1,1,-1
 127 465 l 1,2,-1
 21 465 l 1,3,-1
 11 465 l 1,4,-1
 11 472.826171875 l 1,5,-1
 11 537 l 1,6,-1
 11 547 l 1,7,-1
 21 547 l 1,8,-1
 127 547 l 1,9,-1
 127 586 l 2,10,11
 127 607.879882812 127 607.879882812 128.985351562 627.203125 c 128,-1,12
 130.971679688 646.525390625 130.971679688 646.525390625 135.33984375 663.64453125 c 128,-1,13
 139.708984375 680.763671875 139.708984375 680.763671875 146.322265625 695.385742188 c 0,14,15
 166.025390625 738.950195312 166.025390625 738.950195312 198.918945312 766.4453125 c 128,-1,16
 231.8984375 794.013671875 231.8984375 794.013671875 275.083984375 805.138671875 c 0,17,18
 289.157226562 808.764648438 289.157226562 808.764648438 303.84375 811.1796875 c 128,-1,19
 318.529296875 813.595703125 318.529296875 813.595703125 333.760742188 814.797851562 c 128,-1,20
 348.993164062 816 348.993164062 816 364.81640625 816 c 0,21,22
 372.525390625 816 372.525390625 816 380.264648438 815.728515625 c 128,-1,23
 388.002929688 815.458007812 388.002929688 815.458007812 395.767578125 814.916015625 c 128,-1,24
 403.53125 814.375 403.53125 814.375 411.323242188 813.5625 c 128,-1,25
 419.114257812 812.750976562 419.114257812 812.750976562 426.913085938 811.668945312 c 0,26,27
 434.201171875 810.586914062 434.201171875 810.586914062 441.51171875 809.236328125 c 128,-1,28
 448.822265625 807.884765625 448.822265625 807.884765625 456.157226562 806.264648438 c 0,29,30
 499.706054688 796.643554688 499.706054688 796.643554688 538.237304688 783.461914062 c 2,31,-1
 546.659179688 780.580078125 l 1,32,-1
 544.772460938 771.880859375 l 1,33,-1
 526.772460938 688.880859375 l 1,34,-1
 524.043945312 676.297851562 l 1,35,-1
 512.528320312 682.055664062 l 2,36,37
 487.537109375 694.55078125 487.537109375 694.55078125 449.633789062 703.784179688 c 0,38,39
 410.721679688 713 410.721679688 713 369.106445312 713 c 0,40,41
 364.874023438 713 364.874023438 713 360.75 712.830078125 c 128,-1,42
 356.624023438 712.659179688 356.624023438 712.659179688 352.618164062 712.319335938 c 128,-1,43
 348.612304688 711.979492188 348.612304688 711.979492188 344.717773438 711.47265625 c 128,-1,44
 340.822265625 710.96484375 340.822265625 710.96484375 337.036132812 710.2890625 c 128,-1,45
 333.250976562 709.614257812 333.250976562 709.614257812 329.579101562 708.774414062 c 128,-1,46
 325.908203125 707.934570312 325.908203125 707.934570312 322.336914062 706.927734375 c 0,47,48
 312.010742188 704.017578125 312.010742188 704.017578125 302.9609375 699.021484375 c 128,-1,49
 293.911132812 694.025390625 293.911132812 694.025390625 285.943359375 686.821289062 c 0,50,51
 270.034179688 672.438476562 270.034179688 672.438476562 260.685546875 648.125 c 0,52,53
 257.55859375 639.991210938 257.55859375 639.991210938 255.442382812 630.337890625 c 128,-1,54
 253.325195312 620.68359375 253.325195312 620.68359375 252.225585938 609.26953125 c 128,-1,55
 251.125976562 597.85546875 251.125976562 597.85546875 251.125976562 585 c 2,56,-1
 251.125976562 547 l 1,57,-1
 473 547 l 1,58,-1
 483 547 l 1,59,-1
 483 537 l 1,60,-1
 483 472.826171875 l 1,61,-1
 483 465 l 1,62,-1
 473 465 l 1,63,-1
 251.125976562 465 l 1,64,-1
 251.125976562 10 l 1,65,-1
 251.125976562 0 l 1,66,-1
 240.400390625 0 l 1,67,-1
 137.435546875 0 l 1,68,-1
 127 0 l 1,0,-1
EndSplineSet
Substitution2: "'case' Case-Sensitive Forms lookup 18 subtable" F
EndChar

StartChar: g
Encoding: 103 103 74
Width: 550
VWidth: 1177
Flags: W
LayerCount: 2
Fore
SplineSet
399 38.65234375 m 2,0,-1
 399 41.6123046875 l 1,1,2
 382.67578125 35.3056640625 382.67578125 35.3056640625 358.642578125 28.46484375 c 0,3,4
 319.635742188 17.3623046875 319.635742188 17.3623046875 269.16796875 17.3623046875 c 0,5,6
 215.139648438 17.3623046875 215.139648438 17.3623046875 167.74609375 33.4794921875 c 0,7,8
 143.8828125 41.5947265625 143.8828125 41.5947265625 124.219726562 53.943359375 c 0,9,10
 105.012695312 66.2919921875 105.012695312 66.2919921875 88.763671875 82.77734375 c 128,-1,11
 72.5009765625 99.2763671875 72.5009765625 99.2763671875 59.5966796875 120.088867188 c 128,-1,12
 46.6923828125 140.90234375 46.6923828125 140.90234375 37.12109375 165.934570312 c 0,13,14
 18 215.9453125 18 215.9453125 18 283.482421875 c 0,15,16
 18 343.14453125 18 343.14453125 35.5322265625 393.044921875 c 0,17,18
 44.3349609375 418.100585938 44.3349609375 418.100585938 57.21875 439.88671875 c 128,-1,19
 70.1015625 461.672851562 70.1015625 461.672851562 87.03125 480.072265625 c 128,-1,20
 104.001953125 498.514648438 104.001953125 498.514648438 124.780273438 512.931640625 c 0,21,22
 146.1953125 527.349609375 146.1953125 527.349609375 172.69140625 537.666015625 c 0,23,24
 199.263671875 548.357421875 199.263671875 548.357421875 229.37109375 553.678710938 c 128,-1,25
 259.479492188 559 259.479492188 559 293.016601562 559 c 0,26,27
 308.583007812 559 308.583007812 559 323.21875 558.596679688 c 128,-1,28
 337.853515625 558.194335938 337.853515625 558.194335938 351.63671875 557.3828125 c 128,-1,29
 365.420898438 556.571289062 365.420898438 556.571289062 378.291015625 555.350585938 c 128,-1,30
 391.161132812 554.130859375 391.161132812 554.130859375 402.620117188 552.494140625 c 0,31,32
 413.704101562 550.857421875 413.704101562 550.857421875 423.9609375 548.805664062 c 0,33,34
 474.26171875 539.030273438 474.26171875 539.030273438 508.55859375 530.208007812 c 2,35,-1
 516 528.293945312 l 1,36,-1
 516 520.813476562 l 1,37,-1
 516 46.603515625 l 2,38,39
 516 -81.1923828125 516 -81.1923828125 448.618164062 -138.997070312 c 0,40,41
 380.587890625 -198 380.587890625 -198 235.563476562 -198 c 0,42,43
 177.048828125 -198 177.048828125 -198 130.060546875 -189.310546875 c 0,44,45
 86.439453125 -180.6875 86.439453125 -180.6875 52.837890625 -169.487304688 c 2,46,-1
 44.3876953125 -166.669921875 l 1,47,-1
 46.2119140625 -157.951171875 l 1,48,-1
 64.2119140625 -71.951171875 l 1,49,-1
 66.6943359375 -60.0927734375 l 1,50,-1
 77.8671875 -64.7783203125 l 2,51,52
 107.955078125 -77.3955078125 107.955078125 -77.3955078125 147.198242188 -85.19921875 c 0,53,54
 168.030273438 -89.0908203125 168.030273438 -89.0908203125 190.938476562 -91.0458984375 c 128,-1,55
 213.846679688 -93 213.846679688 -93 238.815429688 -93 c 0,56,57
 326.69140625 -93 326.69140625 -93 363.135742188 -61.6826171875 c 0,58,59
 399 -31.650390625 399 -31.650390625 399 38.65234375 c 2,0,-1
399 136.34765625 m 1,60,-1
 399 443.670898438 l 1,61,62
 385.9375 447.0625 385.9375 447.0625 366.311523438 449.596679688 c 0,63,64
 339.959960938 453 339.959960938 453 295.184570312 453 c 0,65,66
 219.188476562 453 219.188476562 453 179.08203125 405.366210938 c 0,67,68
 138 356.572265625 138 356.572265625 138 274 c 0,69,70
 138 228.668945312 138 228.668945312 149.87890625 196.747070312 c 0,71,72
 155.80859375 180.813476562 155.80859375 180.813476562 163.575195312 167.775390625 c 128,-1,73
 171.342773438 154.737304688 171.342773438 154.737304688 180.893554688 144.536132812 c 0,74,75
 199.763671875 124.379882812 199.763671875 124.379882812 224.412109375 115.28515625 c 0,76,77
 249.575195312 106 249.575195312 106 277.840820312 106 c 0,78,79
 316.2421875 106 316.2421875 106 349.84765625 116.015625 c 0,80,81
 379.52734375 124.861328125 379.52734375 124.861328125 399 136.34765625 c 1,60,-1
EndSplineSet
Substitution2: "'case' Case-Sensitive Forms lookup 18 subtable" G
EndChar

StartChar: h
Encoding: 104 104 75
Width: 550
VWidth: 1177
Flags: W
LayerCount: 2
Fore
SplineSet
43 0 m 1,0,-1
 43 10 l 1,1,-1
 43 790 l 1,2,-1
 43 798.485351562 l 1,3,-1
 51.3720703125 799.866210938 l 1,4,-1
 148.372070312 815.866210938 l 1,5,-1
 160 817.784179688 l 1,6,-1
 160 806 l 1,7,-1
 160 542.030273438 l 1,8,9
 181.236328125 548.219726562 181.236328125 548.219726562 205.439453125 552.331054688 c 0,10,11
 238.815429688 558 238.815429688 558 270.560546875 558 c 0,12,13
 340.862304688 558 340.862304688 558 388.939453125 539.19140625 c 0,14,15
 433.372070312 520.841796875 433.372070312 520.841796875 459.970703125 487.010742188 c 0,16,17
 486.270507812 453.559570312 486.270507812 453.559570312 497.249023438 407.212890625 c 0,18,19
 502.634765625 384.478515625 502.634765625 384.478515625 505.317382812 359.614257812 c 128,-1,20
 508 334.749023438 508 334.749023438 508 307.747070312 c 2,21,-1
 508 10 l 1,22,-1
 508 0 l 1,23,-1
 498 0 l 1,24,-1
 401 0 l 1,25,-1
 391 0 l 1,26,-1
 391 10 l 1,27,-1
 391 284.576171875 l 2,28,29
 391 378.306640625 391 378.306640625 362.404296875 416.078125 c 0,30,31
 334.931640625 452 334.931640625 452 260.682617188 452 c 0,32,33
 249.729492188 452 249.729492188 452 239.025390625 453.447265625 c 128,-1,34
 228.321289062 454.89453125 228.321289062 454.89453125 217.87890625 457.782226562 c 128,-1,35
 207.4375 460.669921875 207.4375 460.669921875 197.23046875 465 c 0,36,37
 185.545898438 462.618164062 185.545898438 462.618164062 175.70703125 460.120117188 c 128,-1,38
 165.8671875 457.622070312 165.8671875 457.622070312 160 455.572265625 c 1,39,-1
 160 10 l 1,40,-1
 160 0 l 1,41,-1
 150 0 l 1,42,-1
 53 0 l 1,43,-1
 43 0 l 1,0,-1
EndSplineSet
Substitution2: "'case' Case-Sensitive Forms lookup 18 subtable" H
EndChar

